G75*
%MOIN*%
%OFA0B0*%
%FSLAX24Y24*%
%IPPOS*%
%LPD*%
%AMOC8*
5,1,8,0,0,1.08239X$1,22.5*
%
%ADD10C,0.0520*%
%ADD11R,0.0276X0.0354*%
%ADD12C,0.0600*%
%ADD13R,0.0591X0.0197*%
%ADD14R,0.0197X0.0591*%
%ADD15C,0.0440*%
%ADD16R,0.2126X0.2441*%
%ADD17R,0.0394X0.0630*%
%ADD18R,0.0169X0.0110*%
%ADD19R,0.2100X0.0760*%
%ADD20R,0.1161X0.1063*%
%ADD21R,0.0906X0.0630*%
%ADD22C,0.0160*%
%ADD23C,0.0100*%
%ADD24R,0.0396X0.0396*%
%ADD25C,0.0240*%
%ADD26R,0.0357X0.0357*%
%ADD27C,0.0396*%
D10*
X024040Y011451D02*
X024560Y011451D01*
X024560Y012451D02*
X024040Y012451D01*
X024040Y013451D02*
X024560Y013451D01*
X024560Y014451D02*
X024040Y014451D01*
X024040Y015451D02*
X024560Y015451D01*
X024560Y016451D02*
X024040Y016451D01*
D11*
G36*
X021203Y006105D02*
X021008Y005910D01*
X020759Y006159D01*
X020954Y006354D01*
X021203Y006105D01*
G37*
G36*
X020841Y005743D02*
X020646Y005548D01*
X020397Y005797D01*
X020592Y005992D01*
X020841Y005743D01*
G37*
G36*
X019183Y004124D02*
X018988Y003929D01*
X018739Y004178D01*
X018934Y004373D01*
X019183Y004124D01*
G37*
G36*
X018821Y003763D02*
X018626Y003568D01*
X018377Y003817D01*
X018572Y004012D01*
X018821Y003763D01*
G37*
D12*
X020000Y014451D02*
X020600Y014451D01*
X020600Y015451D02*
X020000Y015451D01*
X020000Y016451D02*
X020600Y016451D01*
X020600Y017451D02*
X020000Y017451D01*
X020000Y018451D02*
X020600Y018451D01*
X020600Y019451D02*
X020000Y019451D01*
X020000Y020451D02*
X020600Y020451D01*
X020600Y021451D02*
X020000Y021451D01*
X020000Y022451D02*
X020600Y022451D01*
X020600Y023451D02*
X020000Y023451D01*
X026049Y028636D02*
X026649Y028636D01*
X026649Y029636D02*
X026049Y029636D01*
X026049Y030636D02*
X026649Y030636D01*
X026649Y031636D02*
X026049Y031636D01*
X026049Y032636D02*
X026649Y032636D01*
X026649Y033636D02*
X026049Y033636D01*
X026049Y034636D02*
X026649Y034636D01*
X026649Y035636D02*
X026049Y035636D01*
X026049Y036636D02*
X026649Y036636D01*
X026649Y037636D02*
X026049Y037636D01*
X038582Y037660D02*
X039182Y037660D01*
X039182Y036660D02*
X038582Y036660D01*
X038582Y035660D02*
X039182Y035660D01*
X039182Y034660D02*
X038582Y034660D01*
X038582Y033660D02*
X039182Y033660D01*
X039182Y032660D02*
X038582Y032660D01*
X038582Y031660D02*
X039182Y031660D01*
X039182Y030660D02*
X038582Y030660D01*
X038582Y029660D02*
X039182Y029660D01*
X039182Y028660D02*
X038582Y028660D01*
X008100Y023451D02*
X007500Y023451D01*
X007500Y022451D02*
X008100Y022451D01*
X008100Y021451D02*
X007500Y021451D01*
X007500Y020451D02*
X008100Y020451D01*
X008100Y019451D02*
X007500Y019451D01*
X007500Y018451D02*
X008100Y018451D01*
X008100Y017451D02*
X007500Y017451D01*
X007500Y016451D02*
X008100Y016451D01*
X008100Y015451D02*
X007500Y015451D01*
X007500Y014451D02*
X008100Y014451D01*
X004470Y010935D02*
X003870Y010935D01*
X003870Y009935D02*
X004470Y009935D01*
X004470Y008935D02*
X003870Y008935D01*
X003600Y015951D02*
X003000Y015951D01*
X003000Y016951D02*
X003600Y016951D01*
X003600Y017951D02*
X003000Y017951D01*
D13*
X010017Y010026D03*
X010017Y009711D03*
X010017Y009396D03*
X010017Y009081D03*
X010017Y008766D03*
X010017Y008451D03*
X010017Y008136D03*
X010017Y007821D03*
X010017Y007506D03*
X010017Y007191D03*
X010017Y006876D03*
X014583Y006876D03*
X014583Y007191D03*
X014583Y007506D03*
X014583Y007821D03*
X014583Y008136D03*
X014583Y008451D03*
X014583Y008766D03*
X014583Y009081D03*
X014583Y009396D03*
X014583Y009711D03*
X014583Y010026D03*
D14*
X013875Y010734D03*
X013560Y010734D03*
X013245Y010734D03*
X012930Y010734D03*
X012615Y010734D03*
X012300Y010734D03*
X011985Y010734D03*
X011670Y010734D03*
X011355Y010734D03*
X011040Y010734D03*
X010725Y010734D03*
X010725Y006167D03*
X011040Y006167D03*
X011355Y006167D03*
X011670Y006167D03*
X011985Y006167D03*
X012300Y006167D03*
X012615Y006167D03*
X012930Y006167D03*
X013245Y006167D03*
X013560Y006167D03*
X013875Y006167D03*
D15*
X004300Y012451D03*
X004300Y013451D03*
X004300Y014451D03*
D16*
X005418Y018935D03*
D17*
X004520Y016061D03*
X006316Y016061D03*
D18*
X025064Y012043D03*
X025064Y011843D03*
D19*
G36*
X020655Y007767D02*
X019171Y006283D01*
X018633Y006821D01*
X020117Y008305D01*
X020655Y007767D01*
G37*
G36*
X017967Y005080D02*
X016483Y003596D01*
X015945Y004134D01*
X017429Y005618D01*
X017967Y005080D01*
G37*
D20*
G36*
X021145Y009545D02*
X020326Y008726D01*
X019575Y009477D01*
X020394Y010296D01*
X021145Y009545D01*
G37*
G36*
X023025Y011424D02*
X022206Y010605D01*
X021455Y011356D01*
X022274Y012175D01*
X023025Y011424D01*
G37*
D21*
G36*
X023134Y009731D02*
X023774Y010371D01*
X024220Y009925D01*
X023580Y009285D01*
X023134Y009731D01*
G37*
G36*
X021380Y007977D02*
X022020Y008617D01*
X022466Y008171D01*
X021826Y007531D01*
X021380Y007977D01*
G37*
X015040Y004451D03*
X012560Y004451D03*
D22*
X000800Y000951D02*
X000800Y026951D01*
X024549Y026951D01*
X024549Y026829D01*
X024510Y021884D01*
X024500Y021834D01*
X024510Y021820D01*
X024510Y021803D01*
X024546Y021767D01*
X026300Y019154D01*
X021061Y019154D01*
X021058Y019145D02*
X021140Y019343D01*
X021140Y019558D01*
X021058Y019757D01*
X020906Y019909D01*
X020804Y019951D01*
X020906Y019993D01*
X021058Y020145D01*
X021140Y020343D01*
X021140Y020558D01*
X021058Y020757D01*
X020906Y020909D01*
X020804Y020951D01*
X020906Y020993D01*
X021058Y021145D01*
X021140Y021343D01*
X021140Y021558D01*
X021058Y021757D01*
X020906Y021909D01*
X020804Y021951D01*
X020906Y021993D01*
X021058Y022145D01*
X021140Y022343D01*
X021140Y022558D01*
X021058Y022757D01*
X020906Y022909D01*
X020804Y022951D01*
X020906Y022993D01*
X021058Y023145D01*
X021140Y023343D01*
X021140Y023558D01*
X021058Y023757D01*
X020906Y023909D01*
X020707Y023991D01*
X019893Y023991D01*
X019694Y023909D01*
X019542Y023757D01*
X019460Y023558D01*
X019460Y023343D01*
X019542Y023145D01*
X019694Y022993D01*
X019796Y022951D01*
X019694Y022909D01*
X019542Y022757D01*
X019460Y022558D01*
X019460Y022343D01*
X019542Y022145D01*
X019694Y021993D01*
X019796Y021951D01*
X019694Y021909D01*
X019542Y021757D01*
X019460Y021558D01*
X019460Y021343D01*
X019542Y021145D01*
X019694Y020993D01*
X019796Y020951D01*
X019694Y020909D01*
X019542Y020757D01*
X019460Y020558D01*
X019460Y020343D01*
X019542Y020145D01*
X019694Y019993D01*
X019796Y019951D01*
X019694Y019909D01*
X019542Y019757D01*
X019460Y019558D01*
X019460Y019343D01*
X019542Y019145D01*
X019694Y018993D01*
X019796Y018951D01*
X019694Y018909D01*
X019542Y018757D01*
X019460Y018558D01*
X019460Y018343D01*
X019542Y018145D01*
X019694Y017993D01*
X019796Y017951D01*
X019694Y017909D01*
X019542Y017757D01*
X019460Y017558D01*
X019460Y017343D01*
X019542Y017145D01*
X019694Y016993D01*
X019796Y016951D01*
X019694Y016909D01*
X019542Y016757D01*
X019460Y016558D01*
X019460Y016343D01*
X019542Y016145D01*
X019694Y015993D01*
X019796Y015951D01*
X019694Y015909D01*
X019542Y015757D01*
X019460Y015558D01*
X019460Y015343D01*
X019542Y015145D01*
X019694Y014993D01*
X019796Y014951D01*
X019694Y014909D01*
X019542Y014757D01*
X019460Y014558D01*
X019460Y014343D01*
X019542Y014145D01*
X019694Y013993D01*
X019893Y013911D01*
X020707Y013911D01*
X020906Y013993D01*
X021058Y014145D01*
X021140Y014343D01*
X021140Y014558D01*
X021058Y014757D01*
X020906Y014909D01*
X020804Y014951D01*
X020906Y014993D01*
X021058Y015145D01*
X021140Y015343D01*
X021140Y015558D01*
X021058Y015757D01*
X020906Y015909D01*
X020804Y015951D01*
X020906Y015993D01*
X021058Y016145D01*
X021140Y016343D01*
X021140Y016558D01*
X021058Y016757D01*
X020906Y016909D01*
X020804Y016951D01*
X020906Y016993D01*
X021058Y017145D01*
X021140Y017343D01*
X021140Y017558D01*
X021058Y017757D01*
X020906Y017909D01*
X020804Y017951D01*
X020906Y017993D01*
X021058Y018145D01*
X021140Y018343D01*
X021140Y018558D01*
X021058Y018757D01*
X020906Y018909D01*
X020804Y018951D01*
X020906Y018993D01*
X021058Y019145D01*
X021127Y019312D02*
X026193Y019312D01*
X026087Y019471D02*
X021140Y019471D01*
X021111Y019629D02*
X025981Y019629D01*
X025874Y019788D02*
X021027Y019788D01*
X020815Y019946D02*
X025768Y019946D01*
X025661Y020105D02*
X021018Y020105D01*
X021107Y020263D02*
X025555Y020263D01*
X025448Y020422D02*
X021140Y020422D01*
X021131Y020580D02*
X025342Y020580D01*
X025236Y020739D02*
X021065Y020739D01*
X020917Y020897D02*
X025129Y020897D01*
X025023Y021056D02*
X020969Y021056D01*
X021087Y021214D02*
X024916Y021214D01*
X024810Y021373D02*
X021140Y021373D01*
X021140Y021531D02*
X024703Y021531D01*
X024597Y021690D02*
X021085Y021690D01*
X020966Y021848D02*
X024503Y021848D01*
X024511Y022007D02*
X020920Y022007D01*
X021066Y022165D02*
X024512Y022165D01*
X024514Y022324D02*
X021132Y022324D01*
X021140Y022482D02*
X024515Y022482D01*
X024516Y022641D02*
X021106Y022641D01*
X021015Y022799D02*
X024517Y022799D01*
X024519Y022958D02*
X020821Y022958D01*
X021029Y023116D02*
X024520Y023116D01*
X024521Y023275D02*
X021112Y023275D01*
X021140Y023433D02*
X024522Y023433D01*
X024524Y023592D02*
X021126Y023592D01*
X021060Y023750D02*
X024525Y023750D01*
X024526Y023909D02*
X020905Y023909D01*
X019779Y022958D02*
X015717Y022958D01*
X015876Y023116D02*
X019571Y023116D01*
X019488Y023275D02*
X016034Y023275D01*
X016193Y023433D02*
X019460Y023433D01*
X019474Y023592D02*
X017637Y023592D01*
X017614Y023569D02*
X017682Y023636D01*
X017718Y023725D01*
X017718Y024177D01*
X017682Y024265D01*
X017614Y024333D01*
X017526Y024369D01*
X017074Y024369D01*
X016986Y024333D01*
X016918Y024265D01*
X016908Y024241D01*
X016638Y024241D01*
X016638Y024697D01*
X016601Y024785D01*
X016534Y024852D01*
X016445Y024889D01*
X015954Y024889D01*
X015866Y024852D01*
X015798Y024785D01*
X015761Y024697D01*
X015761Y024465D01*
X015738Y024442D01*
X015738Y024697D01*
X015702Y024785D01*
X015634Y024852D01*
X015546Y024889D01*
X015054Y024889D01*
X014966Y024852D01*
X014898Y024785D01*
X014862Y024697D01*
X014862Y024465D01*
X013250Y022853D01*
X013250Y022948D01*
X014571Y024270D01*
X014620Y024387D01*
X014620Y024514D01*
X014590Y024587D01*
X014590Y024894D01*
X014546Y025001D01*
X014464Y025082D01*
X014419Y025128D01*
X014419Y025362D01*
X014383Y025450D01*
X014315Y025518D01*
X014227Y025554D01*
X013775Y025554D01*
X013686Y025518D01*
X013619Y025450D01*
X013590Y025380D01*
X013590Y025508D01*
X013546Y025615D01*
X013464Y025697D01*
X013358Y025741D01*
X012692Y025741D01*
X012682Y025765D01*
X012614Y025833D01*
X012526Y025869D01*
X012074Y025869D01*
X011986Y025833D01*
X011918Y025765D01*
X011882Y025677D01*
X011882Y025225D01*
X011918Y025136D01*
X011986Y025069D01*
X012074Y025032D01*
X012526Y025032D01*
X012614Y025069D01*
X012682Y025136D01*
X012692Y025161D01*
X013010Y025161D01*
X013010Y024571D01*
X012506Y024067D01*
X012434Y024037D01*
X012344Y023947D01*
X012295Y023829D01*
X012295Y011210D01*
X012243Y011210D01*
X012219Y011233D01*
X012131Y011270D01*
X011990Y011270D01*
X011990Y023885D01*
X011960Y023957D01*
X011960Y023984D01*
X012075Y024099D01*
X012310Y024099D01*
X012398Y024136D01*
X012465Y024203D01*
X012502Y024292D01*
X012502Y024744D01*
X012465Y024832D01*
X012398Y024900D01*
X012310Y024936D01*
X011857Y024936D01*
X011769Y024900D01*
X011702Y024832D01*
X011675Y024768D01*
X011675Y024771D01*
X011639Y024860D01*
X011571Y024927D01*
X011483Y024964D01*
X011031Y024964D01*
X010942Y024927D01*
X010875Y024860D01*
X000800Y024860D01*
X000800Y025018D02*
X013010Y025018D01*
X013010Y024860D02*
X012438Y024860D01*
X012502Y024701D02*
X013010Y024701D01*
X012982Y024543D02*
X012502Y024543D01*
X012502Y024384D02*
X012823Y024384D01*
X012800Y024451D02*
X012300Y023951D01*
X012300Y010734D01*
X012300Y011451D01*
X012295Y011387D02*
X011990Y011387D01*
X011990Y011546D02*
X012295Y011546D01*
X012295Y011704D02*
X011990Y011704D01*
X011990Y011863D02*
X012295Y011863D01*
X012295Y012021D02*
X011990Y012021D01*
X011990Y012180D02*
X012295Y012180D01*
X012295Y012338D02*
X011990Y012338D01*
X011990Y012497D02*
X012295Y012497D01*
X012295Y012655D02*
X011990Y012655D01*
X011990Y012814D02*
X012295Y012814D01*
X012295Y012972D02*
X011990Y012972D01*
X011990Y013131D02*
X012295Y013131D01*
X012295Y013289D02*
X011990Y013289D01*
X011990Y013448D02*
X012295Y013448D01*
X012295Y013606D02*
X011990Y013606D01*
X011990Y013765D02*
X012295Y013765D01*
X012295Y013923D02*
X011990Y013923D01*
X011990Y014082D02*
X012295Y014082D01*
X012295Y014240D02*
X011990Y014240D01*
X011990Y014399D02*
X012295Y014399D01*
X012295Y014557D02*
X011990Y014557D01*
X011990Y014716D02*
X012295Y014716D01*
X012295Y014874D02*
X011990Y014874D01*
X011990Y015033D02*
X012295Y015033D01*
X012295Y015191D02*
X011990Y015191D01*
X011990Y015350D02*
X012295Y015350D01*
X012295Y015508D02*
X011990Y015508D01*
X011990Y015667D02*
X012295Y015667D01*
X012295Y015825D02*
X011990Y015825D01*
X011990Y015984D02*
X012295Y015984D01*
X012295Y016142D02*
X011990Y016142D01*
X011990Y016301D02*
X012295Y016301D01*
X012295Y016459D02*
X011990Y016459D01*
X011990Y016618D02*
X012295Y016618D01*
X012295Y016776D02*
X011990Y016776D01*
X011990Y016935D02*
X012295Y016935D01*
X012295Y017093D02*
X011990Y017093D01*
X011990Y017252D02*
X012295Y017252D01*
X012295Y017410D02*
X011990Y017410D01*
X011990Y017569D02*
X012295Y017569D01*
X012295Y017727D02*
X011990Y017727D01*
X011990Y017886D02*
X012295Y017886D01*
X012295Y018044D02*
X011990Y018044D01*
X011990Y018203D02*
X012295Y018203D01*
X012295Y018361D02*
X011990Y018361D01*
X011990Y018520D02*
X012295Y018520D01*
X012295Y018678D02*
X011990Y018678D01*
X011990Y018837D02*
X012295Y018837D01*
X012295Y018995D02*
X011990Y018995D01*
X011990Y019154D02*
X012295Y019154D01*
X012295Y019312D02*
X011990Y019312D01*
X011990Y019471D02*
X012295Y019471D01*
X012295Y019629D02*
X011990Y019629D01*
X011990Y019788D02*
X012295Y019788D01*
X012295Y019946D02*
X011990Y019946D01*
X011990Y020105D02*
X012295Y020105D01*
X012295Y020263D02*
X011990Y020263D01*
X011990Y020422D02*
X012295Y020422D01*
X012295Y020580D02*
X011990Y020580D01*
X011990Y020739D02*
X012295Y020739D01*
X012295Y020897D02*
X011990Y020897D01*
X011990Y021056D02*
X012295Y021056D01*
X012295Y021214D02*
X011990Y021214D01*
X011990Y021373D02*
X012295Y021373D01*
X012295Y021531D02*
X011990Y021531D01*
X011990Y021690D02*
X012295Y021690D01*
X012295Y021848D02*
X011990Y021848D01*
X011990Y022007D02*
X012295Y022007D01*
X012295Y022165D02*
X011990Y022165D01*
X011990Y022324D02*
X012295Y022324D01*
X012295Y022482D02*
X011990Y022482D01*
X011990Y022641D02*
X012295Y022641D01*
X012295Y022799D02*
X011990Y022799D01*
X011990Y022958D02*
X012295Y022958D01*
X012295Y023116D02*
X011990Y023116D01*
X011990Y023275D02*
X012295Y023275D01*
X012295Y023433D02*
X011990Y023433D01*
X011990Y023592D02*
X012295Y023592D01*
X012295Y023750D02*
X011990Y023750D01*
X011980Y023909D02*
X012328Y023909D01*
X012506Y024067D02*
X012043Y024067D01*
X011670Y023821D02*
X011670Y010734D01*
X011355Y010734D02*
X011355Y024396D01*
X011638Y024860D02*
X011729Y024860D01*
X011901Y025177D02*
X000800Y025177D01*
X000800Y025335D02*
X011882Y025335D01*
X011882Y025494D02*
X000800Y025494D01*
X000800Y025652D02*
X011882Y025652D01*
X011964Y025811D02*
X000800Y025811D01*
X000800Y025969D02*
X024543Y025969D01*
X024541Y025811D02*
X012636Y025811D01*
X012800Y024951D02*
X010300Y024951D01*
X010407Y024793D02*
X010339Y024726D01*
X010303Y024638D01*
X010303Y024369D01*
X010074Y024369D01*
X009986Y024333D01*
X009918Y024265D01*
X009882Y024177D01*
X009882Y023725D01*
X009918Y023636D01*
X009980Y023575D01*
X009980Y021387D01*
X010029Y021270D01*
X010119Y021180D01*
X010405Y020893D01*
X010405Y011122D01*
X010387Y011077D01*
X010387Y010391D01*
X010406Y010345D01*
X010360Y010364D01*
X010337Y010364D01*
X010337Y013298D01*
X010288Y013416D01*
X010071Y013632D01*
X009981Y013722D01*
X009864Y013771D01*
X006129Y013771D01*
X006605Y014247D01*
X006660Y014379D01*
X006660Y015554D01*
X006716Y015610D01*
X006753Y015698D01*
X006753Y016424D01*
X006716Y016512D01*
X006649Y016579D01*
X006560Y016616D01*
X006071Y016616D01*
X005983Y016579D01*
X005915Y016512D01*
X005879Y016424D01*
X005879Y015698D01*
X005915Y015610D01*
X005940Y015586D01*
X005940Y014600D01*
X005651Y014311D01*
X004675Y014311D01*
X004685Y014334D01*
X004700Y014411D01*
X004700Y014451D01*
X004700Y014490D01*
X004685Y014567D01*
X004654Y014640D01*
X004611Y014706D01*
X004555Y014761D01*
X004489Y014805D01*
X004417Y014835D01*
X004339Y014851D01*
X004300Y014851D01*
X004261Y014851D01*
X004183Y014835D01*
X004111Y014805D01*
X004045Y014761D01*
X003989Y014706D01*
X003946Y014640D01*
X003915Y014567D01*
X003900Y014490D01*
X003900Y014451D01*
X004300Y014451D01*
X004300Y014851D01*
X004300Y014451D01*
X004300Y014451D01*
X004300Y014451D01*
X004700Y014451D01*
X004300Y014451D01*
X004300Y014451D01*
X003900Y014451D01*
X003900Y014411D01*
X003915Y014334D01*
X003925Y014311D01*
X003660Y014311D01*
X003660Y015411D01*
X003707Y015411D01*
X003906Y015493D01*
X004058Y015645D01*
X004084Y015707D01*
X004084Y015698D01*
X004120Y015610D01*
X004188Y015543D01*
X004276Y015506D01*
X004765Y015506D01*
X004853Y015543D01*
X004921Y015610D01*
X004940Y015657D01*
X004940Y015326D01*
X004898Y015285D01*
X004862Y015197D01*
X004862Y014705D01*
X004898Y014617D01*
X004966Y014549D01*
X005054Y014513D01*
X005546Y014513D01*
X005634Y014549D01*
X005702Y014617D01*
X005738Y014705D01*
X005738Y015197D01*
X005702Y015285D01*
X005660Y015326D01*
X005660Y016133D01*
X005605Y016265D01*
X005504Y016366D01*
X005372Y016421D01*
X004957Y016421D01*
X004957Y016424D01*
X004921Y016512D01*
X004853Y016579D01*
X004765Y016616D01*
X004276Y016616D01*
X004188Y016579D01*
X004120Y016512D01*
X004084Y016424D01*
X004084Y016194D01*
X004058Y016257D01*
X003906Y016409D01*
X003804Y016451D01*
X003906Y016493D01*
X004058Y016645D01*
X004140Y016843D01*
X004140Y017058D01*
X004058Y017257D01*
X003906Y017409D01*
X003721Y017485D01*
X003784Y017506D01*
X003852Y017540D01*
X003913Y017585D01*
X003966Y017638D01*
X004011Y017699D01*
X004045Y017767D01*
X004068Y017838D01*
X004080Y017913D01*
X004080Y017931D01*
X003320Y017931D01*
X003320Y017971D01*
X003280Y017971D01*
X003280Y018431D01*
X002962Y018431D01*
X002888Y018419D01*
X002816Y018396D01*
X002748Y018361D01*
X000800Y018361D01*
X000800Y018203D02*
X002590Y018203D01*
X002589Y018202D02*
X002555Y018135D01*
X002532Y018063D01*
X002520Y017989D01*
X002520Y017971D01*
X003280Y017971D01*
X003280Y017931D01*
X002520Y017931D01*
X002520Y017913D01*
X002532Y017838D01*
X002555Y017767D01*
X002589Y017699D01*
X002634Y017638D01*
X002687Y017585D01*
X002748Y017540D01*
X002816Y017506D01*
X002879Y017485D01*
X002694Y017409D01*
X002542Y017257D01*
X002460Y017058D01*
X002460Y016843D01*
X002542Y016645D01*
X002694Y016493D01*
X002796Y016451D01*
X002694Y016409D01*
X002542Y016257D01*
X002460Y016058D01*
X002460Y015843D01*
X002542Y015645D01*
X002694Y015493D01*
X002893Y015411D01*
X002940Y015411D01*
X002940Y013879D01*
X002995Y013747D01*
X003096Y013646D01*
X003228Y013591D01*
X003860Y013591D01*
X003840Y013542D01*
X003840Y013359D01*
X003910Y013190D01*
X004039Y013061D01*
X004208Y012991D01*
X004391Y012991D01*
X004561Y013061D01*
X004631Y013131D01*
X008821Y013131D01*
X008811Y013106D01*
X008811Y012614D01*
X008829Y012570D01*
X008742Y012533D01*
X008674Y012466D01*
X008637Y012378D01*
X008637Y011925D01*
X008674Y011837D01*
X008736Y011775D01*
X008736Y011702D01*
X008702Y011785D01*
X008634Y011852D01*
X008546Y011889D01*
X008054Y011889D01*
X007966Y011852D01*
X007898Y011785D01*
X007862Y011697D01*
X007862Y011205D01*
X007898Y011117D01*
X007966Y011049D01*
X008054Y011013D01*
X008286Y011013D01*
X008382Y010917D01*
X008382Y009726D01*
X008430Y009608D01*
X008520Y009518D01*
X009229Y008809D01*
X009347Y008761D01*
X009481Y008761D01*
X009481Y008620D01*
X009518Y008531D01*
X009541Y008508D01*
X009541Y008456D01*
X007748Y008456D01*
X006238Y009965D01*
X006238Y010197D01*
X006202Y010285D01*
X006134Y010352D01*
X006090Y010371D01*
X006090Y011508D01*
X006046Y011615D01*
X005964Y011697D01*
X005599Y012062D01*
X005614Y012069D01*
X005682Y012136D01*
X005718Y012225D01*
X005718Y012677D01*
X005682Y012765D01*
X005614Y012833D01*
X005526Y012869D01*
X005074Y012869D01*
X004986Y012833D01*
X004918Y012765D01*
X004908Y012741D01*
X004661Y012741D01*
X004561Y012841D01*
X004391Y012911D01*
X004208Y012911D01*
X004039Y012841D01*
X003910Y012711D01*
X003840Y012542D01*
X003840Y012359D01*
X003910Y012190D01*
X004039Y012061D01*
X004208Y011991D01*
X004391Y011991D01*
X004561Y012061D01*
X004661Y012161D01*
X004908Y012161D01*
X004918Y012136D01*
X004986Y012069D01*
X005010Y012059D01*
X005010Y011893D01*
X005054Y011787D01*
X005510Y011331D01*
X005510Y010371D01*
X005466Y010352D01*
X005398Y010285D01*
X005362Y010197D01*
X005362Y009841D01*
X005087Y010116D01*
X005087Y010116D01*
X004997Y010206D01*
X004931Y010234D01*
X004928Y010241D01*
X004776Y010393D01*
X004591Y010470D01*
X004654Y010490D01*
X004722Y010525D01*
X004783Y010569D01*
X004836Y010622D01*
X004881Y010683D01*
X004915Y010751D01*
X004938Y010823D01*
X004950Y010897D01*
X004950Y010915D01*
X004190Y010915D01*
X004190Y010955D01*
X004150Y010955D01*
X004150Y010915D01*
X003390Y010915D01*
X003390Y010897D01*
X003402Y010823D01*
X003425Y010751D01*
X003460Y010683D01*
X003504Y010622D01*
X003557Y010569D01*
X003619Y010525D01*
X003686Y010490D01*
X003749Y010470D01*
X003564Y010393D01*
X003412Y010241D01*
X003330Y010042D01*
X003330Y009828D01*
X003412Y009629D01*
X003564Y009477D01*
X003666Y009435D01*
X003564Y009393D01*
X003412Y009241D01*
X003330Y009042D01*
X003330Y008828D01*
X003412Y008629D01*
X003564Y008477D01*
X003763Y008395D01*
X003980Y008395D01*
X003980Y007387D01*
X004029Y007270D01*
X004119Y007180D01*
X009119Y002180D01*
X009236Y002131D01*
X011864Y002131D01*
X011981Y002180D01*
X012071Y002270D01*
X012120Y002387D01*
X012120Y003043D01*
X012134Y003049D01*
X012202Y003117D01*
X012238Y003205D01*
X012238Y003697D01*
X012202Y003785D01*
X012134Y003852D01*
X012046Y003889D01*
X011990Y003889D01*
X011990Y003998D01*
X011997Y003992D01*
X012038Y003968D01*
X012083Y003956D01*
X012482Y003956D01*
X012482Y004373D01*
X012637Y004373D01*
X012637Y003956D01*
X013036Y003956D01*
X013082Y003968D01*
X013120Y003990D01*
X013120Y003116D01*
X013092Y003104D01*
X013024Y003037D01*
X012988Y002949D01*
X012988Y002457D01*
X013024Y002369D01*
X013092Y002301D01*
X013180Y002265D01*
X013355Y002265D01*
X013873Y001747D01*
X013974Y001646D01*
X014106Y001591D01*
X014964Y001591D01*
X014986Y001569D01*
X015074Y001532D01*
X015526Y001532D01*
X015614Y001569D01*
X015682Y001636D01*
X015718Y001725D01*
X015718Y002177D01*
X015682Y002265D01*
X015614Y002333D01*
X015526Y002369D01*
X015074Y002369D01*
X014986Y002333D01*
X014964Y002311D01*
X014327Y002311D01*
X014125Y002513D01*
X014546Y002513D01*
X014634Y002549D01*
X014702Y002617D01*
X014738Y002705D01*
X014738Y003197D01*
X014733Y003210D01*
X014862Y003210D01*
X014862Y003205D01*
X014898Y003117D01*
X014966Y003049D01*
X015054Y003013D01*
X015546Y003013D01*
X015634Y003049D01*
X015702Y003117D01*
X015738Y003205D01*
X015738Y003697D01*
X015702Y003785D01*
X015634Y003852D01*
X015546Y003889D01*
X015054Y003889D01*
X014966Y003852D01*
X014963Y003850D01*
X014622Y003850D01*
X014575Y003896D01*
X015541Y003896D01*
X015629Y003932D01*
X015696Y004000D01*
X015697Y004001D01*
X016410Y003288D01*
X016411Y003279D01*
X016456Y003242D01*
X016498Y003200D01*
X016507Y003200D01*
X016514Y003195D01*
X016572Y003200D01*
X016630Y003200D01*
X016636Y003207D01*
X018468Y003387D01*
X018491Y003363D01*
X018579Y003327D01*
X018675Y003327D01*
X018763Y003363D01*
X019026Y003626D01*
X019052Y003689D01*
X021387Y005814D01*
X021422Y005828D01*
X021434Y005856D01*
X021457Y005877D01*
X021459Y005915D01*
X021790Y006714D01*
X021814Y006739D01*
X021814Y006773D01*
X021828Y006805D01*
X021814Y006837D01*
X021814Y006871D01*
X021790Y006896D01*
X021777Y006928D01*
X021745Y006941D01*
X020895Y007791D01*
X020895Y007816D01*
X020858Y007904D01*
X020253Y008509D01*
X020165Y008545D01*
X020140Y008545D01*
X019810Y008875D01*
X019810Y008881D01*
X019764Y008922D01*
X019721Y008965D01*
X019715Y008965D01*
X019711Y008969D01*
X019649Y008965D01*
X019588Y008965D01*
X019584Y008961D01*
X018710Y008908D01*
X020433Y010631D01*
X021480Y010631D01*
X021480Y008416D01*
X021177Y008112D01*
X021140Y008024D01*
X021140Y007929D01*
X021177Y007840D01*
X021690Y007328D01*
X021778Y007291D01*
X021873Y007291D01*
X021962Y007328D01*
X022669Y008035D01*
X022706Y008124D01*
X022706Y008219D01*
X022669Y008307D01*
X022156Y008820D01*
X022120Y008835D01*
X022120Y010379D01*
X022157Y010364D01*
X022253Y010364D01*
X022341Y010400D01*
X023229Y011289D01*
X023266Y011377D01*
X023266Y011473D01*
X023229Y011561D01*
X023046Y011744D01*
X023433Y012131D01*
X023653Y012131D01*
X023757Y012027D01*
X023941Y011951D01*
X023757Y011875D01*
X023616Y011734D01*
X023540Y011550D01*
X023540Y011351D01*
X023616Y011168D01*
X023757Y011027D01*
X023941Y010951D01*
X024659Y010951D01*
X024843Y011027D01*
X024984Y011168D01*
X025024Y011265D01*
X025046Y011287D01*
X025310Y011550D01*
X025351Y011651D01*
X025352Y011651D01*
X025388Y011740D01*
X025388Y012146D01*
X025352Y012234D01*
X025284Y012302D01*
X025196Y012338D01*
X025179Y012338D01*
X025120Y012397D01*
X025120Y012514D01*
X025071Y012632D01*
X024994Y012709D01*
X024984Y012734D01*
X024843Y012875D01*
X024659Y012951D01*
X024843Y013027D01*
X024984Y013168D01*
X025060Y013351D01*
X025060Y013550D01*
X024984Y013734D01*
X024843Y013875D01*
X024659Y013951D01*
X024843Y014027D01*
X024984Y014168D01*
X025060Y014351D01*
X025060Y014550D01*
X024984Y014734D01*
X024843Y014875D01*
X024659Y014951D01*
X024843Y015027D01*
X024984Y015168D01*
X025060Y015351D01*
X025060Y015550D01*
X024984Y015734D01*
X024843Y015875D01*
X024659Y015951D01*
X023941Y015951D01*
X023757Y015875D01*
X023616Y015734D01*
X023540Y015550D01*
X023540Y015351D01*
X023562Y015299D01*
X020852Y012590D01*
X019858Y012590D01*
X019741Y012541D01*
X019651Y012451D01*
X017664Y010464D01*
X014638Y010464D01*
X014520Y010415D01*
X014469Y010364D01*
X014240Y010364D01*
X014194Y010345D01*
X014213Y010391D01*
X014213Y011077D01*
X014195Y011122D01*
X014195Y021435D01*
X016420Y023661D01*
X016908Y023661D01*
X016918Y023636D01*
X016986Y023569D01*
X017074Y023532D01*
X017526Y023532D01*
X017614Y023569D01*
X017718Y023750D02*
X019540Y023750D01*
X019695Y023909D02*
X017718Y023909D01*
X017718Y024067D02*
X024528Y024067D01*
X024529Y024226D02*
X017698Y024226D01*
X016963Y023592D02*
X016351Y023592D01*
X016638Y024384D02*
X024530Y024384D01*
X024531Y024543D02*
X016638Y024543D01*
X016636Y024701D02*
X024533Y024701D01*
X024534Y024860D02*
X016516Y024860D01*
X016200Y024451D02*
X013560Y021811D01*
X013560Y010734D01*
X013875Y010734D02*
X013875Y021526D01*
X014195Y021373D02*
X019460Y021373D01*
X019460Y021531D02*
X014291Y021531D01*
X014449Y021690D02*
X019515Y021690D01*
X019634Y021848D02*
X014608Y021848D01*
X014766Y022007D02*
X019680Y022007D01*
X019534Y022165D02*
X014925Y022165D01*
X015083Y022324D02*
X019468Y022324D01*
X019460Y022482D02*
X015242Y022482D01*
X015400Y022641D02*
X019494Y022641D01*
X019585Y022799D02*
X015559Y022799D01*
X014305Y023909D02*
X014211Y023909D01*
X014147Y023750D02*
X014052Y023750D01*
X013988Y023592D02*
X013894Y023592D01*
X013830Y023433D02*
X013735Y023433D01*
X013671Y023275D02*
X013577Y023275D01*
X013513Y023116D02*
X013418Y023116D01*
X013354Y022958D02*
X013260Y022958D01*
X012930Y023081D02*
X014300Y024451D01*
X014528Y024226D02*
X014622Y024226D01*
X014619Y024384D02*
X014781Y024384D01*
X014862Y024543D02*
X014608Y024543D01*
X014590Y024701D02*
X014864Y024701D01*
X014984Y024860D02*
X014590Y024860D01*
X014528Y025018D02*
X024535Y025018D01*
X024536Y025177D02*
X014419Y025177D01*
X014419Y025335D02*
X024538Y025335D01*
X024539Y025494D02*
X014339Y025494D01*
X013663Y025494D02*
X013590Y025494D01*
X013509Y025652D02*
X024540Y025652D01*
X024544Y026128D02*
X000800Y026128D01*
X000800Y026286D02*
X024545Y026286D01*
X024546Y026445D02*
X000800Y026445D01*
X000800Y026603D02*
X024548Y026603D01*
X024549Y026762D02*
X000800Y026762D01*
X000800Y026920D02*
X024549Y026920D01*
X019513Y021214D02*
X014195Y021214D01*
X014195Y021056D02*
X019631Y021056D01*
X019683Y020897D02*
X014195Y020897D01*
X014195Y020739D02*
X019535Y020739D01*
X019469Y020580D02*
X014195Y020580D01*
X014195Y020422D02*
X019460Y020422D01*
X019493Y020263D02*
X014195Y020263D01*
X014195Y020105D02*
X019582Y020105D01*
X019785Y019946D02*
X014195Y019946D01*
X014195Y019788D02*
X019573Y019788D01*
X019489Y019629D02*
X014195Y019629D01*
X014195Y019471D02*
X019460Y019471D01*
X019473Y019312D02*
X014195Y019312D01*
X014195Y019154D02*
X019539Y019154D01*
X019692Y018995D02*
X014195Y018995D01*
X014195Y018837D02*
X019622Y018837D01*
X019510Y018678D02*
X014195Y018678D01*
X014195Y018520D02*
X019460Y018520D01*
X019460Y018361D02*
X014195Y018361D01*
X014195Y018203D02*
X019518Y018203D01*
X019643Y018044D02*
X014195Y018044D01*
X014195Y017886D02*
X019671Y017886D01*
X019530Y017727D02*
X014195Y017727D01*
X014195Y017569D02*
X019464Y017569D01*
X019460Y017410D02*
X014195Y017410D01*
X014195Y017252D02*
X019498Y017252D01*
X019594Y017093D02*
X014195Y017093D01*
X014195Y016935D02*
X019757Y016935D01*
X019562Y016776D02*
X014195Y016776D01*
X014195Y016618D02*
X019485Y016618D01*
X019460Y016459D02*
X014195Y016459D01*
X014195Y016301D02*
X019478Y016301D01*
X019545Y016142D02*
X014195Y016142D01*
X014195Y015984D02*
X019716Y015984D01*
X019611Y015825D02*
X014195Y015825D01*
X014195Y015667D02*
X019505Y015667D01*
X019460Y015508D02*
X014195Y015508D01*
X014195Y015350D02*
X019460Y015350D01*
X019523Y015191D02*
X014195Y015191D01*
X014195Y015033D02*
X019654Y015033D01*
X019660Y014874D02*
X014195Y014874D01*
X014195Y014716D02*
X019525Y014716D01*
X019460Y014557D02*
X014195Y014557D01*
X014195Y014399D02*
X019460Y014399D01*
X019503Y014240D02*
X014195Y014240D01*
X014195Y014082D02*
X019605Y014082D01*
X019862Y013923D02*
X014195Y013923D01*
X014195Y013765D02*
X022028Y013765D01*
X022186Y013923D02*
X020738Y013923D01*
X020995Y014082D02*
X022345Y014082D01*
X022503Y014240D02*
X021097Y014240D01*
X021140Y014399D02*
X022662Y014399D01*
X022820Y014557D02*
X021140Y014557D01*
X021075Y014716D02*
X022979Y014716D01*
X023137Y014874D02*
X020940Y014874D01*
X020946Y015033D02*
X023296Y015033D01*
X023454Y015191D02*
X021077Y015191D01*
X021140Y015350D02*
X023541Y015350D01*
X023540Y015508D02*
X021140Y015508D01*
X021095Y015667D02*
X023588Y015667D01*
X023707Y015825D02*
X020989Y015825D01*
X020884Y015984D02*
X026300Y015984D01*
X026300Y016142D02*
X024874Y016142D01*
X024896Y016164D02*
X024936Y016220D01*
X024968Y016282D01*
X024989Y016348D01*
X025000Y016416D01*
X025000Y016451D01*
X025000Y016485D01*
X024989Y016554D01*
X024968Y016620D01*
X024936Y016681D01*
X024896Y016737D01*
X024847Y016786D01*
X024791Y016827D01*
X024729Y016859D01*
X024663Y016880D01*
X024595Y016891D01*
X024300Y016891D01*
X024005Y016891D01*
X023937Y016880D01*
X023871Y016859D01*
X023809Y016827D01*
X023753Y016786D01*
X023704Y016737D01*
X023664Y016681D01*
X023632Y016620D01*
X023611Y016554D01*
X023600Y016485D01*
X023600Y016451D01*
X024300Y016451D01*
X024300Y016891D01*
X024300Y016451D01*
X024300Y016451D01*
X024300Y016451D01*
X025000Y016451D01*
X024300Y016451D01*
X024300Y016451D01*
X023600Y016451D01*
X023600Y016416D01*
X023611Y016348D01*
X023632Y016282D01*
X023664Y016220D01*
X023704Y016164D01*
X023753Y016115D01*
X023809Y016074D01*
X023871Y016043D01*
X023937Y016022D01*
X024005Y016011D01*
X024300Y016011D01*
X024595Y016011D01*
X024663Y016022D01*
X024729Y016043D01*
X024791Y016074D01*
X024847Y016115D01*
X024896Y016164D01*
X024974Y016301D02*
X026300Y016301D01*
X026300Y016459D02*
X025000Y016459D01*
X024968Y016618D02*
X026300Y016618D01*
X026300Y016776D02*
X024857Y016776D01*
X024300Y016776D02*
X024300Y016776D01*
X024300Y016618D02*
X024300Y016618D01*
X024300Y016459D02*
X024300Y016459D01*
X024300Y016451D02*
X024300Y016011D01*
X024300Y016451D01*
X024300Y016451D01*
X024300Y016301D02*
X024300Y016301D01*
X024300Y016142D02*
X024300Y016142D01*
X024893Y015825D02*
X026300Y015825D01*
X026300Y015667D02*
X025012Y015667D01*
X025060Y015508D02*
X026300Y015508D01*
X026300Y015350D02*
X025059Y015350D01*
X024994Y015191D02*
X026300Y015191D01*
X026300Y015033D02*
X024849Y015033D01*
X024844Y014874D02*
X026300Y014874D01*
X026300Y014716D02*
X024991Y014716D01*
X025057Y014557D02*
X026300Y014557D01*
X026300Y014399D02*
X025060Y014399D01*
X025014Y014240D02*
X026300Y014240D01*
X026300Y014082D02*
X024898Y014082D01*
X024726Y013923D02*
X026300Y013923D01*
X026300Y013765D02*
X024953Y013765D01*
X025037Y013606D02*
X026300Y013606D01*
X026300Y013448D02*
X025060Y013448D01*
X025034Y013289D02*
X026300Y013289D01*
X026300Y013131D02*
X024947Y013131D01*
X024711Y012972D02*
X026300Y012972D01*
X026300Y012814D02*
X024904Y012814D01*
X025048Y012655D02*
X026300Y012655D01*
X026300Y012497D02*
X025120Y012497D01*
X025196Y012338D02*
X026300Y012338D01*
X026300Y012180D02*
X025374Y012180D01*
X025388Y012021D02*
X026300Y012021D01*
X026300Y011863D02*
X025388Y011863D01*
X025374Y011704D02*
X026300Y011704D01*
X026300Y011546D02*
X025305Y011546D01*
X025147Y011387D02*
X026300Y011387D01*
X026300Y011229D02*
X025009Y011229D01*
X024887Y011070D02*
X026300Y011070D01*
X026300Y010912D02*
X022852Y010912D01*
X023011Y011070D02*
X023713Y011070D01*
X023591Y011229D02*
X023169Y011229D01*
X023266Y011387D02*
X023540Y011387D01*
X023540Y011546D02*
X023236Y011546D01*
X023086Y011704D02*
X023604Y011704D01*
X023745Y011863D02*
X023165Y011863D01*
X023323Y012021D02*
X023770Y012021D01*
X023941Y011951D02*
X024659Y011951D01*
X024739Y011918D01*
X024739Y011958D01*
X024721Y011976D01*
X024659Y011951D01*
X023941Y011951D01*
X024300Y012451D02*
X023300Y012451D01*
X022240Y011390D01*
X021800Y010951D01*
X021800Y008197D01*
X021923Y008074D01*
X022376Y007742D02*
X026300Y007742D01*
X026300Y007900D02*
X022534Y007900D01*
X022679Y008059D02*
X026300Y008059D01*
X026300Y008217D02*
X022706Y008217D01*
X022601Y008376D02*
X026300Y008376D01*
X026300Y008534D02*
X022442Y008534D01*
X022284Y008693D02*
X026300Y008693D01*
X026300Y008851D02*
X022120Y008851D01*
X022120Y009010D02*
X026300Y009010D01*
X026300Y009168D02*
X023717Y009168D01*
X023690Y009141D02*
X023972Y009423D01*
X023677Y009718D01*
X023787Y009828D01*
X023677Y009937D01*
X024070Y010330D01*
X023885Y010515D01*
X023844Y010538D01*
X023798Y010551D01*
X023751Y010551D01*
X023705Y010538D01*
X023664Y010515D01*
X023382Y010232D01*
X023677Y009937D01*
X023567Y009828D01*
X023272Y010123D01*
X022990Y009841D01*
X022966Y009800D01*
X022954Y009754D01*
X022954Y009707D01*
X022966Y009661D01*
X022990Y009620D01*
X023175Y009435D01*
X023567Y009828D01*
X023677Y009718D01*
X023284Y009325D01*
X023469Y009141D01*
X023510Y009117D01*
X023556Y009105D01*
X023603Y009105D01*
X023649Y009117D01*
X023690Y009141D01*
X023441Y009168D02*
X022120Y009168D01*
X022120Y009327D02*
X023286Y009327D01*
X023225Y009485D02*
X023444Y009485D01*
X023383Y009644D02*
X023603Y009644D01*
X023751Y009644D02*
X023970Y009644D01*
X024082Y009533D02*
X024364Y009815D01*
X024388Y009856D01*
X024400Y009901D01*
X024400Y009949D01*
X024388Y009995D01*
X024364Y010036D01*
X024179Y010220D01*
X023787Y009828D01*
X024082Y009533D01*
X024193Y009644D02*
X026300Y009644D01*
X026300Y009802D02*
X024351Y009802D01*
X024397Y009961D02*
X026300Y009961D01*
X026300Y010119D02*
X024280Y010119D01*
X024078Y010119D02*
X023859Y010119D01*
X023920Y009961D02*
X023700Y009961D01*
X023653Y009961D02*
X023434Y009961D01*
X023495Y010119D02*
X023276Y010119D01*
X023269Y010119D02*
X022120Y010119D01*
X022120Y009961D02*
X023110Y009961D01*
X022968Y009802D02*
X022120Y009802D01*
X022120Y009644D02*
X022976Y009644D01*
X023124Y009485D02*
X022120Y009485D01*
X021480Y009485D02*
X021317Y009485D01*
X021315Y009477D02*
X021327Y009522D01*
X021327Y009570D01*
X021315Y009616D01*
X021291Y009657D01*
X020955Y009993D01*
X020474Y009511D01*
X020920Y009065D01*
X021291Y009436D01*
X021315Y009477D01*
X021298Y009644D02*
X021480Y009644D01*
X021480Y009802D02*
X021145Y009802D01*
X020987Y009961D02*
X021480Y009961D01*
X021480Y010119D02*
X020828Y010119D01*
X020842Y010106D02*
X020506Y010442D01*
X020465Y010465D01*
X020419Y010478D01*
X020372Y010478D01*
X020326Y010465D01*
X020285Y010442D01*
X019914Y010071D01*
X020360Y009624D01*
X020247Y009511D01*
X020360Y009398D01*
X019879Y008917D01*
X020215Y008581D01*
X020256Y008557D01*
X020302Y008545D01*
X020349Y008545D01*
X020395Y008557D01*
X020436Y008581D01*
X020807Y008952D01*
X020360Y009398D01*
X020474Y009511D01*
X020360Y009624D01*
X020842Y010106D01*
X020923Y009961D02*
X020697Y009961D01*
X020765Y009802D02*
X020538Y009802D01*
X020606Y009644D02*
X020380Y009644D01*
X020341Y009644D02*
X020115Y009644D01*
X020182Y009802D02*
X019956Y009802D01*
X020024Y009961D02*
X019763Y009961D01*
X019801Y009958D02*
X019430Y009587D01*
X019406Y009546D01*
X019394Y009500D01*
X019394Y009453D01*
X019406Y009407D01*
X019430Y009366D01*
X019766Y009030D01*
X020247Y009511D01*
X019801Y009958D01*
X019921Y010119D02*
X019962Y010119D01*
X020080Y010278D02*
X020121Y010278D01*
X020238Y010436D02*
X020279Y010436D01*
X020397Y010595D02*
X021480Y010595D01*
X021480Y010436D02*
X020511Y010436D01*
X020670Y010278D02*
X021480Y010278D01*
X022120Y010278D02*
X023427Y010278D01*
X023586Y010436D02*
X022377Y010436D01*
X022535Y010595D02*
X026300Y010595D01*
X026300Y010753D02*
X022694Y010753D01*
X021800Y010951D02*
X020300Y010951D01*
X018430Y009081D01*
X014583Y009081D01*
X014639Y009372D02*
X018300Y009411D01*
X020300Y011451D01*
X021300Y011451D01*
X023300Y013451D01*
X024300Y013451D01*
X023941Y013951D02*
X023757Y013875D01*
X023653Y013771D01*
X023411Y013771D01*
X023712Y014072D01*
X023757Y014027D01*
X023941Y013951D01*
X024659Y013951D01*
X023941Y013951D01*
X023874Y013923D02*
X023564Y013923D01*
X023639Y014451D02*
X024300Y014451D01*
X024119Y014951D02*
X024659Y014951D01*
X024119Y014951D01*
X024119Y014951D01*
X024166Y015451D02*
X024300Y015451D01*
X024166Y015451D02*
X020985Y012270D01*
X019922Y012270D01*
X017796Y010144D01*
X014702Y010144D01*
X014583Y010026D01*
X014583Y009711D02*
X014662Y009711D01*
X018150Y009750D01*
X020158Y011915D01*
X021103Y011915D01*
X023639Y014451D01*
X023653Y013131D02*
X023757Y013027D01*
X023941Y012951D01*
X024659Y012951D01*
X023941Y012951D01*
X023757Y012875D01*
X023653Y012771D01*
X023236Y012771D01*
X023119Y012722D01*
X023029Y012632D01*
X022594Y012197D01*
X022546Y012244D01*
X023433Y013131D01*
X023653Y013131D01*
X023889Y012972D02*
X023274Y012972D01*
X023116Y012814D02*
X023696Y012814D01*
X023052Y012655D02*
X022957Y012655D01*
X023029Y012632D02*
X023029Y012632D01*
X022893Y012497D02*
X022799Y012497D01*
X022735Y012338D02*
X022640Y012338D01*
X021552Y013289D02*
X014195Y013289D01*
X014195Y013131D02*
X021394Y013131D01*
X021235Y012972D02*
X014195Y012972D01*
X014195Y012814D02*
X021077Y012814D01*
X020918Y012655D02*
X014195Y012655D01*
X014195Y012497D02*
X019697Y012497D01*
X019538Y012338D02*
X014195Y012338D01*
X014195Y012180D02*
X019380Y012180D01*
X019221Y012021D02*
X014195Y012021D01*
X014195Y011863D02*
X019063Y011863D01*
X018904Y011704D02*
X014195Y011704D01*
X014195Y011546D02*
X018746Y011546D01*
X018587Y011387D02*
X014195Y011387D01*
X014195Y011229D02*
X018429Y011229D01*
X018270Y011070D02*
X014213Y011070D01*
X014213Y010912D02*
X018112Y010912D01*
X017953Y010753D02*
X014213Y010753D01*
X014213Y010595D02*
X017795Y010595D01*
X019129Y009327D02*
X019469Y009327D01*
X019394Y009485D02*
X019287Y009485D01*
X019446Y009644D02*
X019487Y009644D01*
X019604Y009802D02*
X019645Y009802D01*
X020063Y009327D02*
X020289Y009327D01*
X020432Y009327D02*
X020658Y009327D01*
X020590Y009168D02*
X020816Y009168D01*
X020749Y009010D02*
X021480Y009010D01*
X021480Y009168D02*
X021024Y009168D01*
X021182Y009327D02*
X021480Y009327D01*
X021480Y008851D02*
X020707Y008851D01*
X020548Y008693D02*
X021480Y008693D01*
X021480Y008534D02*
X020192Y008534D01*
X020103Y008693D02*
X019993Y008693D01*
X019945Y008851D02*
X019834Y008851D01*
X019972Y009010D02*
X018812Y009010D01*
X018800Y008951D02*
X019300Y008951D01*
X019628Y009168D02*
X018970Y009168D01*
X018800Y008951D02*
X018300Y008451D01*
X014583Y008451D01*
X014583Y008766D02*
X012513Y008766D01*
X011985Y009293D01*
X011985Y010734D01*
X012224Y011229D02*
X012295Y011229D01*
X012615Y010734D02*
X012615Y023766D01*
X012665Y024226D02*
X012475Y024226D01*
X012800Y024451D02*
X012800Y024951D01*
X014369Y024067D02*
X014464Y024067D01*
X015300Y024451D02*
X013245Y022396D01*
X013245Y010734D01*
X012930Y010734D02*
X012930Y023081D01*
X011040Y023711D02*
X011040Y010734D01*
X010725Y010734D02*
X010725Y021026D01*
X010300Y021451D01*
X010300Y023951D01*
X009882Y023909D02*
X008405Y023909D01*
X008406Y023909D02*
X008207Y023991D01*
X007393Y023991D01*
X007194Y023909D01*
X007042Y023757D01*
X006960Y023558D01*
X006960Y023343D01*
X007042Y023145D01*
X007194Y022993D01*
X007296Y022951D01*
X007194Y022909D01*
X007042Y022757D01*
X006960Y022558D01*
X006960Y022343D01*
X007042Y022145D01*
X007194Y021993D01*
X007296Y021951D01*
X007194Y021909D01*
X007042Y021757D01*
X006960Y021558D01*
X006960Y021343D01*
X007042Y021145D01*
X007194Y020993D01*
X007296Y020951D01*
X007194Y020909D01*
X007042Y020757D01*
X006960Y020558D01*
X006960Y020343D01*
X007042Y020145D01*
X007194Y019993D01*
X007296Y019951D01*
X007194Y019909D01*
X007042Y019757D01*
X006960Y019558D01*
X006960Y019343D01*
X007042Y019145D01*
X007194Y018993D01*
X007296Y018951D01*
X007194Y018909D01*
X007042Y018757D01*
X006960Y018558D01*
X006960Y018343D01*
X007042Y018145D01*
X007194Y017993D01*
X007296Y017951D01*
X007194Y017909D01*
X007042Y017757D01*
X006960Y017558D01*
X006960Y017343D01*
X007042Y017145D01*
X007194Y016993D01*
X007296Y016951D01*
X007194Y016909D01*
X007042Y016757D01*
X006960Y016558D01*
X006960Y016343D01*
X007042Y016145D01*
X007194Y015993D01*
X007296Y015951D01*
X007194Y015909D01*
X007042Y015757D01*
X006960Y015558D01*
X006960Y015343D01*
X007042Y015145D01*
X007194Y014993D01*
X007296Y014951D01*
X007194Y014909D01*
X007042Y014757D01*
X006960Y014558D01*
X006960Y014343D01*
X007042Y014145D01*
X007194Y013993D01*
X007393Y013911D01*
X008207Y013911D01*
X008406Y013993D01*
X008558Y014145D01*
X008640Y014343D01*
X008640Y014558D01*
X008558Y014757D01*
X008406Y014909D01*
X008304Y014951D01*
X008406Y014993D01*
X008558Y015145D01*
X008640Y015343D01*
X008640Y015558D01*
X008558Y015757D01*
X008406Y015909D01*
X008304Y015951D01*
X008406Y015993D01*
X008558Y016145D01*
X008640Y016343D01*
X008640Y016558D01*
X008558Y016757D01*
X008406Y016909D01*
X008304Y016951D01*
X008406Y016993D01*
X008558Y017145D01*
X008640Y017343D01*
X008640Y017558D01*
X008558Y017757D01*
X008406Y017909D01*
X008304Y017951D01*
X008406Y017993D01*
X008558Y018145D01*
X008640Y018343D01*
X008640Y018558D01*
X008558Y018757D01*
X008406Y018909D01*
X008304Y018951D01*
X008406Y018993D01*
X008558Y019145D01*
X008640Y019343D01*
X008640Y019558D01*
X008558Y019757D01*
X008406Y019909D01*
X008304Y019951D01*
X008406Y019993D01*
X008558Y020145D01*
X008640Y020343D01*
X008640Y020558D01*
X008558Y020757D01*
X008406Y020909D01*
X008304Y020951D01*
X008406Y020993D01*
X008558Y021145D01*
X008640Y021343D01*
X008640Y021558D01*
X008558Y021757D01*
X008406Y021909D01*
X008304Y021951D01*
X008406Y021993D01*
X008558Y022145D01*
X008640Y022343D01*
X008640Y022558D01*
X008558Y022757D01*
X008406Y022909D01*
X008304Y022951D01*
X008406Y022993D01*
X008558Y023145D01*
X008640Y023343D01*
X008640Y023558D01*
X008558Y023757D01*
X008406Y023909D01*
X008560Y023750D02*
X009882Y023750D01*
X009963Y023592D02*
X008626Y023592D01*
X008640Y023433D02*
X009980Y023433D01*
X009980Y023275D02*
X008612Y023275D01*
X008529Y023116D02*
X009980Y023116D01*
X009980Y022958D02*
X008321Y022958D01*
X008515Y022799D02*
X009980Y022799D01*
X009980Y022641D02*
X008606Y022641D01*
X008640Y022482D02*
X009980Y022482D01*
X009980Y022324D02*
X008632Y022324D01*
X008566Y022165D02*
X009980Y022165D01*
X009980Y022007D02*
X008420Y022007D01*
X008466Y021848D02*
X009980Y021848D01*
X009980Y021690D02*
X008585Y021690D01*
X008640Y021531D02*
X009980Y021531D01*
X009986Y021373D02*
X008640Y021373D01*
X008587Y021214D02*
X010084Y021214D01*
X010242Y021056D02*
X008469Y021056D01*
X008417Y020897D02*
X010401Y020897D01*
X010405Y020739D02*
X008565Y020739D01*
X008631Y020580D02*
X010405Y020580D01*
X010405Y020422D02*
X008640Y020422D01*
X008607Y020263D02*
X010405Y020263D01*
X010405Y020105D02*
X008518Y020105D01*
X008315Y019946D02*
X010405Y019946D01*
X010405Y019788D02*
X008527Y019788D01*
X008611Y019629D02*
X010405Y019629D01*
X010405Y019471D02*
X008640Y019471D01*
X008627Y019312D02*
X010405Y019312D01*
X010405Y019154D02*
X008561Y019154D01*
X008408Y018995D02*
X010405Y018995D01*
X010405Y018837D02*
X008478Y018837D01*
X008590Y018678D02*
X010405Y018678D01*
X010405Y018520D02*
X008640Y018520D01*
X008640Y018361D02*
X010405Y018361D01*
X010405Y018203D02*
X008582Y018203D01*
X008457Y018044D02*
X010405Y018044D01*
X010405Y017886D02*
X008429Y017886D01*
X008570Y017727D02*
X010405Y017727D01*
X010405Y017569D02*
X008636Y017569D01*
X008640Y017410D02*
X010405Y017410D01*
X010405Y017252D02*
X008602Y017252D01*
X008506Y017093D02*
X010405Y017093D01*
X010405Y016935D02*
X008343Y016935D01*
X008538Y016776D02*
X010405Y016776D01*
X010405Y016618D02*
X008615Y016618D01*
X008640Y016459D02*
X010405Y016459D01*
X010405Y016301D02*
X008622Y016301D01*
X008555Y016142D02*
X010405Y016142D01*
X010405Y015984D02*
X008384Y015984D01*
X008489Y015825D02*
X010405Y015825D01*
X010405Y015667D02*
X008595Y015667D01*
X008640Y015508D02*
X010405Y015508D01*
X010405Y015350D02*
X008640Y015350D01*
X008577Y015191D02*
X010405Y015191D01*
X010405Y015033D02*
X008446Y015033D01*
X008440Y014874D02*
X010405Y014874D01*
X010405Y014716D02*
X008575Y014716D01*
X008640Y014557D02*
X010405Y014557D01*
X010405Y014399D02*
X008640Y014399D01*
X008597Y014240D02*
X010405Y014240D01*
X010405Y014082D02*
X008495Y014082D01*
X008238Y013923D02*
X010405Y013923D01*
X010405Y013765D02*
X009878Y013765D01*
X010071Y013632D02*
X010071Y013632D01*
X010097Y013606D02*
X010405Y013606D01*
X010405Y013448D02*
X010256Y013448D01*
X010337Y013289D02*
X010405Y013289D01*
X010405Y013131D02*
X010337Y013131D01*
X010337Y012972D02*
X010405Y012972D01*
X010405Y012814D02*
X010337Y012814D01*
X010337Y012655D02*
X010405Y012655D01*
X010405Y012497D02*
X010337Y012497D01*
X010337Y012338D02*
X010405Y012338D01*
X010405Y012180D02*
X010337Y012180D01*
X010337Y012021D02*
X010405Y012021D01*
X010405Y011863D02*
X010337Y011863D01*
X010337Y011704D02*
X010405Y011704D01*
X010405Y011546D02*
X010337Y011546D01*
X010337Y011387D02*
X010405Y011387D01*
X010405Y011229D02*
X010337Y011229D01*
X010337Y011070D02*
X010387Y011070D01*
X010387Y010912D02*
X010337Y010912D01*
X010337Y010753D02*
X010387Y010753D01*
X010387Y010595D02*
X010337Y010595D01*
X010337Y010436D02*
X010387Y010436D01*
X010017Y010026D02*
X010017Y013234D01*
X009800Y013451D01*
X004300Y013451D01*
X003840Y013448D02*
X000800Y013448D01*
X000800Y013606D02*
X003191Y013606D01*
X002987Y013765D02*
X000800Y013765D01*
X000800Y013923D02*
X002940Y013923D01*
X002940Y014082D02*
X000800Y014082D01*
X000800Y014240D02*
X002940Y014240D01*
X002940Y014399D02*
X000800Y014399D01*
X000800Y014557D02*
X002940Y014557D01*
X002940Y014716D02*
X000800Y014716D01*
X000800Y014874D02*
X002940Y014874D01*
X002940Y015033D02*
X000800Y015033D01*
X000800Y015191D02*
X002940Y015191D01*
X002940Y015350D02*
X000800Y015350D01*
X000800Y015508D02*
X002679Y015508D01*
X002533Y015667D02*
X000800Y015667D01*
X000800Y015825D02*
X002467Y015825D01*
X002460Y015984D02*
X000800Y015984D01*
X000800Y016142D02*
X002495Y016142D01*
X002586Y016301D02*
X000800Y016301D01*
X000800Y016459D02*
X002775Y016459D01*
X002569Y016618D02*
X000800Y016618D01*
X000800Y016776D02*
X002488Y016776D01*
X002460Y016935D02*
X000800Y016935D01*
X000800Y017093D02*
X002475Y017093D01*
X002540Y017252D02*
X000800Y017252D01*
X000800Y017410D02*
X002698Y017410D01*
X002709Y017569D02*
X000800Y017569D01*
X000800Y017727D02*
X002575Y017727D01*
X002524Y017886D02*
X000800Y017886D01*
X000800Y018044D02*
X002529Y018044D01*
X002589Y018202D02*
X002634Y018263D01*
X002687Y018317D01*
X002748Y018361D01*
X003280Y018361D02*
X003320Y018361D01*
X003320Y018431D02*
X003320Y017971D01*
X004080Y017971D01*
X004080Y017989D01*
X004068Y018063D01*
X004045Y018135D01*
X004011Y018202D01*
X003966Y018263D01*
X003913Y018317D01*
X003852Y018361D01*
X004175Y018361D01*
X004175Y018203D02*
X004010Y018203D01*
X004071Y018044D02*
X004175Y018044D01*
X004175Y017886D02*
X004076Y017886D01*
X004025Y017727D02*
X004175Y017727D01*
X004175Y017691D02*
X004187Y017645D01*
X004211Y017604D01*
X004245Y017571D01*
X004286Y017547D01*
X004331Y017535D01*
X005338Y017535D01*
X005338Y018855D01*
X004175Y018855D01*
X004175Y017691D01*
X004248Y017569D02*
X003891Y017569D01*
X003902Y017410D02*
X006960Y017410D01*
X006964Y017569D02*
X006589Y017569D01*
X006592Y017571D02*
X006625Y017604D01*
X006649Y017645D01*
X006661Y017691D01*
X006661Y018855D01*
X005498Y018855D01*
X005498Y017535D01*
X006505Y017535D01*
X006551Y017547D01*
X006592Y017571D01*
X006661Y017727D02*
X007030Y017727D01*
X007171Y017886D02*
X006661Y017886D01*
X006661Y018044D02*
X007143Y018044D01*
X007018Y018203D02*
X006661Y018203D01*
X006661Y018361D02*
X006960Y018361D01*
X006960Y018520D02*
X006661Y018520D01*
X006661Y018678D02*
X007010Y018678D01*
X007122Y018837D02*
X006661Y018837D01*
X006661Y019015D02*
X006661Y020179D01*
X006649Y020225D01*
X006625Y020266D01*
X006592Y020300D01*
X006551Y020323D01*
X006505Y020336D01*
X005498Y020336D01*
X005498Y019015D01*
X005338Y019015D01*
X005338Y018855D01*
X005498Y018855D01*
X005498Y019015D01*
X006661Y019015D01*
X006661Y019154D02*
X007039Y019154D01*
X006973Y019312D02*
X006661Y019312D01*
X006661Y019471D02*
X006960Y019471D01*
X006989Y019629D02*
X006661Y019629D01*
X006661Y019788D02*
X007073Y019788D01*
X007285Y019946D02*
X006661Y019946D01*
X006661Y020105D02*
X007082Y020105D01*
X006993Y020263D02*
X006627Y020263D01*
X006800Y020317D02*
X005418Y018935D01*
X005338Y018995D02*
X000800Y018995D01*
X000800Y018837D02*
X004175Y018837D01*
X004175Y018678D02*
X000800Y018678D01*
X000800Y018520D02*
X004175Y018520D01*
X003852Y018361D02*
X003784Y018396D01*
X003712Y018419D01*
X003638Y018431D01*
X003320Y018431D01*
X003320Y018203D02*
X003280Y018203D01*
X003280Y018044D02*
X003320Y018044D01*
X004060Y017252D02*
X006998Y017252D01*
X007094Y017093D02*
X004125Y017093D01*
X004140Y016935D02*
X007257Y016935D01*
X007062Y016776D02*
X004112Y016776D01*
X004031Y016618D02*
X006985Y016618D01*
X006960Y016459D02*
X006738Y016459D01*
X006753Y016301D02*
X006978Y016301D01*
X007045Y016142D02*
X006753Y016142D01*
X006753Y015984D02*
X007216Y015984D01*
X007111Y015825D02*
X006753Y015825D01*
X006740Y015667D02*
X007005Y015667D01*
X006960Y015508D02*
X006660Y015508D01*
X006660Y015350D02*
X006960Y015350D01*
X007023Y015191D02*
X006660Y015191D01*
X006660Y015033D02*
X007154Y015033D01*
X007160Y014874D02*
X006660Y014874D01*
X006660Y014716D02*
X007025Y014716D01*
X006960Y014557D02*
X006660Y014557D01*
X006660Y014399D02*
X006960Y014399D01*
X007003Y014240D02*
X006599Y014240D01*
X006440Y014082D02*
X007105Y014082D01*
X007362Y013923D02*
X006282Y013923D01*
X005739Y014399D02*
X004697Y014399D01*
X004687Y014557D02*
X004958Y014557D01*
X004862Y014716D02*
X004601Y014716D01*
X004300Y014716D02*
X004300Y014716D01*
X004300Y014557D02*
X004300Y014557D01*
X003999Y014716D02*
X003660Y014716D01*
X003660Y014874D02*
X004862Y014874D01*
X004862Y015033D02*
X003660Y015033D01*
X003660Y015191D02*
X004862Y015191D01*
X004940Y015350D02*
X003660Y015350D01*
X003921Y015508D02*
X004270Y015508D01*
X004097Y015667D02*
X004067Y015667D01*
X004084Y016301D02*
X004014Y016301D01*
X004098Y016459D02*
X003825Y016459D01*
X004943Y016459D02*
X005894Y016459D01*
X005879Y016301D02*
X005569Y016301D01*
X005656Y016142D02*
X005879Y016142D01*
X005879Y015984D02*
X005660Y015984D01*
X005660Y015825D02*
X005879Y015825D01*
X005892Y015667D02*
X005660Y015667D01*
X005660Y015508D02*
X005940Y015508D01*
X005940Y015350D02*
X005660Y015350D01*
X005738Y015191D02*
X005940Y015191D01*
X005940Y015033D02*
X005738Y015033D01*
X005738Y014874D02*
X005940Y014874D01*
X005940Y014716D02*
X005738Y014716D01*
X005642Y014557D02*
X005897Y014557D01*
X004940Y015508D02*
X004770Y015508D01*
X003913Y014557D02*
X003660Y014557D01*
X003660Y014399D02*
X003903Y014399D01*
X003869Y013289D02*
X000800Y013289D01*
X000800Y013131D02*
X003969Y013131D01*
X004012Y012814D02*
X000800Y012814D01*
X000800Y012972D02*
X008811Y012972D01*
X008811Y012814D02*
X005633Y012814D01*
X005718Y012655D02*
X008811Y012655D01*
X008705Y012497D02*
X005718Y012497D01*
X005718Y012338D02*
X008637Y012338D01*
X008637Y012180D02*
X005700Y012180D01*
X005640Y012021D02*
X008637Y012021D01*
X008609Y011863D02*
X008663Y011863D01*
X008735Y011704D02*
X008736Y011704D01*
X008300Y011451D02*
X008702Y011049D01*
X008702Y009789D01*
X009410Y009081D01*
X010017Y009081D01*
X010017Y009396D02*
X009568Y009396D01*
X009056Y009907D01*
X009056Y012152D01*
X007991Y011863D02*
X005798Y011863D01*
X005957Y011704D02*
X007865Y011704D01*
X007862Y011546D02*
X006075Y011546D01*
X006090Y011387D02*
X007862Y011387D01*
X007862Y011229D02*
X006090Y011229D01*
X006090Y011070D02*
X007945Y011070D01*
X008382Y010912D02*
X006090Y010912D01*
X006090Y010753D02*
X008382Y010753D01*
X008382Y010595D02*
X006090Y010595D01*
X006090Y010436D02*
X008382Y010436D01*
X008382Y010278D02*
X006204Y010278D01*
X006238Y010119D02*
X008382Y010119D01*
X008382Y009961D02*
X006243Y009961D01*
X006401Y009802D02*
X008382Y009802D01*
X008416Y009644D02*
X006560Y009644D01*
X006718Y009485D02*
X008553Y009485D01*
X008712Y009327D02*
X006877Y009327D01*
X007035Y009168D02*
X008870Y009168D01*
X009029Y009010D02*
X007194Y009010D01*
X007352Y008851D02*
X009187Y008851D01*
X009481Y008693D02*
X007511Y008693D01*
X007669Y008534D02*
X009517Y008534D01*
X009300Y008451D02*
X010017Y008451D01*
X007800Y008451D01*
X006300Y010451D01*
X005800Y009951D02*
X007615Y008136D01*
X010017Y008136D01*
X010828Y008136D01*
X011985Y009293D01*
X012245Y007545D02*
X011355Y006656D01*
X011355Y006167D01*
X011355Y003006D01*
X011300Y002951D01*
X009300Y002951D01*
X004800Y007451D01*
X004800Y008451D01*
X005300Y008951D01*
X005300Y009451D01*
X004816Y009935D01*
X004170Y009935D01*
X004654Y010451D02*
X004170Y010935D01*
X004150Y010955D02*
X003390Y010955D01*
X003390Y010973D01*
X003402Y011047D01*
X003425Y011119D01*
X003460Y011187D01*
X003504Y011248D01*
X003557Y011301D01*
X003619Y011346D01*
X003686Y011380D01*
X003758Y011403D01*
X003832Y011415D01*
X004150Y011415D01*
X004150Y010955D01*
X004190Y010955D02*
X004190Y011415D01*
X004508Y011415D01*
X004582Y011403D01*
X004654Y011380D01*
X004722Y011346D01*
X004783Y011301D01*
X004836Y011248D01*
X004881Y011187D01*
X004915Y011119D01*
X004938Y011047D01*
X004950Y010973D01*
X004950Y010955D01*
X004190Y010955D01*
X004190Y011070D02*
X004150Y011070D01*
X004150Y011229D02*
X004190Y011229D01*
X004190Y011387D02*
X004150Y011387D01*
X003709Y011387D02*
X000800Y011387D01*
X000800Y011229D02*
X003490Y011229D01*
X003409Y011070D02*
X000800Y011070D01*
X000800Y010912D02*
X003390Y010912D01*
X003424Y010753D02*
X000800Y010753D01*
X000800Y010595D02*
X003531Y010595D01*
X003669Y010436D02*
X000800Y010436D01*
X000800Y010278D02*
X003449Y010278D01*
X003362Y010119D02*
X000800Y010119D01*
X000800Y009961D02*
X003330Y009961D01*
X003341Y009802D02*
X000800Y009802D01*
X000800Y009644D02*
X003406Y009644D01*
X003556Y009485D02*
X000800Y009485D01*
X000800Y009327D02*
X003498Y009327D01*
X003382Y009168D02*
X000800Y009168D01*
X000800Y009010D02*
X003330Y009010D01*
X003330Y008851D02*
X000800Y008851D01*
X000800Y008693D02*
X003386Y008693D01*
X003507Y008534D02*
X000800Y008534D01*
X000800Y008376D02*
X003980Y008376D01*
X003980Y008217D02*
X000800Y008217D01*
X000800Y008059D02*
X003980Y008059D01*
X003980Y007900D02*
X000800Y007900D01*
X000800Y007742D02*
X003980Y007742D01*
X003980Y007583D02*
X000800Y007583D01*
X000800Y007425D02*
X003980Y007425D01*
X004032Y007266D02*
X000800Y007266D01*
X000800Y007108D02*
X004190Y007108D01*
X004349Y006949D02*
X000800Y006949D01*
X000800Y006791D02*
X004507Y006791D01*
X004666Y006632D02*
X000800Y006632D01*
X000800Y006474D02*
X004824Y006474D01*
X004983Y006315D02*
X000800Y006315D01*
X000800Y006157D02*
X005141Y006157D01*
X005300Y005998D02*
X000800Y005998D01*
X000800Y005840D02*
X005458Y005840D01*
X005617Y005681D02*
X000800Y005681D01*
X000800Y005523D02*
X005775Y005523D01*
X005934Y005364D02*
X000800Y005364D01*
X000800Y005206D02*
X006092Y005206D01*
X006251Y005047D02*
X000800Y005047D01*
X000800Y004889D02*
X006409Y004889D01*
X006568Y004730D02*
X000800Y004730D01*
X000800Y004572D02*
X006726Y004572D01*
X006885Y004413D02*
X000800Y004413D01*
X000800Y004255D02*
X007043Y004255D01*
X007202Y004096D02*
X000800Y004096D01*
X000800Y003938D02*
X007360Y003938D01*
X007519Y003779D02*
X000800Y003779D01*
X000800Y003621D02*
X007677Y003621D01*
X007836Y003462D02*
X000800Y003462D01*
X000800Y003304D02*
X007994Y003304D01*
X008153Y003145D02*
X000800Y003145D01*
X000800Y002987D02*
X008311Y002987D01*
X008470Y002828D02*
X000800Y002828D01*
X000800Y002670D02*
X008628Y002670D01*
X008787Y002511D02*
X000800Y002511D01*
X000800Y002353D02*
X008945Y002353D01*
X009104Y002194D02*
X000800Y002194D01*
X000800Y002036D02*
X013584Y002036D01*
X013425Y002194D02*
X011996Y002194D01*
X012106Y002353D02*
X013040Y002353D01*
X012988Y002511D02*
X012120Y002511D01*
X012120Y002670D02*
X012988Y002670D01*
X012988Y002828D02*
X012120Y002828D01*
X012120Y002987D02*
X013004Y002987D01*
X013120Y003145D02*
X012213Y003145D01*
X012238Y003304D02*
X013120Y003304D01*
X013120Y003462D02*
X012238Y003462D01*
X012238Y003621D02*
X013120Y003621D01*
X013120Y003779D02*
X012204Y003779D01*
X011990Y003938D02*
X013120Y003938D01*
X012637Y004096D02*
X012482Y004096D01*
X012482Y004255D02*
X012637Y004255D01*
X012560Y004451D02*
X012009Y005002D01*
X012009Y006144D01*
X011985Y006167D01*
X011670Y006167D02*
X011670Y003581D01*
X011800Y003451D01*
X011800Y002451D01*
X009300Y002451D01*
X004300Y007451D01*
X004300Y008805D01*
X004170Y008935D01*
X005243Y009961D02*
X005362Y009961D01*
X005362Y010119D02*
X005084Y010119D01*
X004891Y010278D02*
X005396Y010278D01*
X005510Y010436D02*
X004671Y010436D01*
X004809Y010595D02*
X005510Y010595D01*
X005510Y010753D02*
X004916Y010753D01*
X004950Y010912D02*
X005510Y010912D01*
X005510Y011070D02*
X004931Y011070D01*
X004850Y011229D02*
X005510Y011229D01*
X005453Y011387D02*
X004631Y011387D01*
X005136Y011704D02*
X000800Y011704D01*
X000800Y011546D02*
X005295Y011546D01*
X005023Y011863D02*
X000800Y011863D01*
X000800Y012021D02*
X004135Y012021D01*
X003920Y012180D02*
X000800Y012180D01*
X000800Y012338D02*
X003849Y012338D01*
X003840Y012497D02*
X000800Y012497D01*
X000800Y012655D02*
X003887Y012655D01*
X004588Y012814D02*
X004967Y012814D01*
X005010Y012021D02*
X004465Y012021D01*
X006300Y008451D02*
X006930Y007821D01*
X010017Y007821D01*
X010017Y007506D02*
X007355Y007506D01*
X007300Y007451D01*
X006080Y007451D01*
X005394Y008136D01*
X009272Y005742D02*
X010300Y005770D01*
X010328Y005770D01*
X010725Y006167D01*
X011040Y006167D02*
X011040Y005691D01*
X010300Y004951D01*
X009383Y004951D01*
X009292Y005041D01*
X011654Y006183D02*
X011654Y003596D01*
X011800Y003451D01*
X013308Y004711D02*
X012954Y005065D01*
X012686Y005065D01*
X012300Y005451D01*
X012300Y006167D01*
X012599Y006152D02*
X012599Y005537D01*
X012717Y005419D01*
X012954Y005774D02*
X013072Y005656D01*
X013544Y005656D01*
X014253Y004947D01*
X014253Y003766D01*
X014489Y003530D01*
X015221Y003530D01*
X015300Y003451D01*
X015713Y003145D02*
X026300Y003145D01*
X026300Y002987D02*
X014738Y002987D01*
X014738Y003145D02*
X014887Y003145D01*
X014738Y002828D02*
X026300Y002828D01*
X026300Y002670D02*
X014724Y002670D01*
X015034Y002353D02*
X014285Y002353D01*
X014127Y002511D02*
X026300Y002511D01*
X026300Y002353D02*
X015566Y002353D01*
X015711Y002194D02*
X026300Y002194D01*
X026300Y002036D02*
X015718Y002036D01*
X015718Y001877D02*
X026300Y001877D01*
X026300Y001719D02*
X015716Y001719D01*
X015594Y001560D02*
X026300Y001560D01*
X026300Y001402D02*
X000800Y001402D01*
X000800Y001560D02*
X015006Y001560D01*
X013901Y001719D02*
X000800Y001719D01*
X000800Y001877D02*
X013742Y001877D01*
X015738Y003304D02*
X016394Y003304D01*
X016235Y003462D02*
X015738Y003462D01*
X015738Y003621D02*
X016077Y003621D01*
X015918Y003779D02*
X015704Y003779D01*
X015760Y003938D02*
X015634Y003938D01*
X015040Y004451D02*
X015040Y004711D01*
X014300Y005451D01*
X014300Y005742D01*
X013875Y006167D01*
X012954Y006144D02*
X012954Y005774D01*
X012954Y006144D02*
X012930Y006167D01*
X012615Y006167D02*
X012599Y006152D01*
X011990Y005363D02*
X012029Y005270D01*
X012352Y004946D01*
X012083Y004946D01*
X012038Y004933D01*
X011997Y004910D01*
X011990Y004903D01*
X011990Y005363D01*
X011990Y005206D02*
X012092Y005206D01*
X011990Y005047D02*
X012251Y005047D01*
X011670Y006167D02*
X011654Y006183D01*
X011654Y006482D01*
X012363Y007191D01*
X014583Y007191D01*
X014583Y007506D02*
X014544Y007545D01*
X012245Y007545D01*
X014583Y007821D02*
X015430Y007821D01*
X016800Y006451D01*
X016800Y004764D01*
X016956Y004607D01*
X017774Y003790D01*
X018599Y003790D01*
X018862Y003462D02*
X026300Y003462D01*
X026300Y003304D02*
X017623Y003304D01*
X019021Y003621D02*
X026300Y003621D01*
X026300Y003779D02*
X019151Y003779D01*
X019325Y003938D02*
X026300Y003938D01*
X026300Y004096D02*
X019499Y004096D01*
X019674Y004255D02*
X026300Y004255D01*
X026300Y004413D02*
X019848Y004413D01*
X020022Y004572D02*
X026300Y004572D01*
X026300Y004730D02*
X020196Y004730D01*
X020370Y004889D02*
X026300Y004889D01*
X026300Y005047D02*
X020545Y005047D01*
X020719Y005206D02*
X026300Y005206D01*
X026300Y005364D02*
X020893Y005364D01*
X021067Y005523D02*
X026300Y005523D01*
X026300Y005681D02*
X021242Y005681D01*
X021427Y005840D02*
X026300Y005840D01*
X026300Y005998D02*
X021493Y005998D01*
X021559Y006157D02*
X026300Y006157D01*
X026300Y006315D02*
X021624Y006315D01*
X021690Y006474D02*
X026300Y006474D01*
X026300Y006632D02*
X021756Y006632D01*
X021822Y006791D02*
X026300Y006791D01*
X026300Y006949D02*
X021736Y006949D01*
X021800Y006951D02*
X021800Y006951D01*
X020981Y006132D01*
X021119Y006132D01*
X021300Y005951D01*
X020300Y004951D01*
X019761Y004951D01*
X018961Y004151D01*
X020619Y005770D02*
X019644Y006745D01*
X019644Y007294D01*
X018802Y008136D01*
X014583Y008136D01*
X014639Y009372D02*
X014583Y009396D01*
X014572Y010436D02*
X014213Y010436D01*
X014195Y013448D02*
X021711Y013448D01*
X021869Y013606D02*
X014195Y013606D01*
X019904Y009168D02*
X020131Y009168D01*
X020221Y009485D02*
X020273Y009485D01*
X020448Y009485D02*
X020499Y009485D01*
X020386Y008376D02*
X021440Y008376D01*
X021282Y008217D02*
X020545Y008217D01*
X020703Y008059D02*
X021155Y008059D01*
X021152Y007900D02*
X020860Y007900D01*
X020944Y007742D02*
X021275Y007742D01*
X021434Y007583D02*
X021102Y007583D01*
X021261Y007425D02*
X021592Y007425D01*
X021419Y007266D02*
X026300Y007266D01*
X026300Y007108D02*
X021578Y007108D01*
X022059Y007425D02*
X026300Y007425D01*
X026300Y007583D02*
X022217Y007583D01*
X023876Y009327D02*
X026300Y009327D01*
X026300Y009485D02*
X023910Y009485D01*
X023812Y009802D02*
X023761Y009802D01*
X023593Y009802D02*
X023542Y009802D01*
X024017Y010278D02*
X026300Y010278D01*
X026300Y010436D02*
X023963Y010436D01*
X024300Y012451D02*
X024800Y012451D01*
X023726Y016142D02*
X021055Y016142D01*
X021122Y016301D02*
X023626Y016301D01*
X023600Y016459D02*
X021140Y016459D01*
X021115Y016618D02*
X023632Y016618D01*
X023743Y016776D02*
X021038Y016776D01*
X020843Y016935D02*
X026300Y016935D01*
X026300Y017093D02*
X021006Y017093D01*
X021102Y017252D02*
X026300Y017252D01*
X026300Y017410D02*
X021140Y017410D01*
X021136Y017569D02*
X026300Y017569D01*
X026300Y017727D02*
X021070Y017727D01*
X020929Y017886D02*
X026300Y017886D01*
X026300Y018044D02*
X020957Y018044D01*
X021082Y018203D02*
X026300Y018203D01*
X026300Y018361D02*
X021140Y018361D01*
X021140Y018520D02*
X026300Y018520D01*
X026300Y018678D02*
X021090Y018678D01*
X020978Y018837D02*
X026300Y018837D01*
X026300Y018995D02*
X020908Y018995D01*
X026300Y019154D02*
X026300Y000951D01*
X000800Y000951D01*
X000800Y001085D02*
X026300Y001085D01*
X026300Y001243D02*
X000800Y001243D01*
X005338Y017569D02*
X005498Y017569D01*
X005498Y017727D02*
X005338Y017727D01*
X005338Y017886D02*
X005498Y017886D01*
X005498Y018044D02*
X005338Y018044D01*
X005338Y018203D02*
X005498Y018203D01*
X005498Y018361D02*
X005338Y018361D01*
X005338Y018520D02*
X005498Y018520D01*
X005498Y018678D02*
X005338Y018678D01*
X005338Y018837D02*
X005498Y018837D01*
X005498Y018995D02*
X007192Y018995D01*
X006800Y020317D02*
X006800Y022451D01*
X006960Y022482D02*
X000800Y022482D01*
X000800Y022324D02*
X006968Y022324D01*
X007034Y022165D02*
X000800Y022165D01*
X000800Y022007D02*
X007180Y022007D01*
X007134Y021848D02*
X000800Y021848D01*
X000800Y021690D02*
X007015Y021690D01*
X006960Y021531D02*
X000800Y021531D01*
X000800Y021373D02*
X006960Y021373D01*
X007013Y021214D02*
X000800Y021214D01*
X000800Y021056D02*
X007131Y021056D01*
X007183Y020897D02*
X000800Y020897D01*
X000800Y020739D02*
X007035Y020739D01*
X006969Y020580D02*
X000800Y020580D01*
X000800Y020422D02*
X006960Y020422D01*
X005498Y020263D02*
X005338Y020263D01*
X005338Y020336D02*
X004331Y020336D01*
X004286Y020323D01*
X004245Y020300D01*
X004211Y020266D01*
X004187Y020225D01*
X004175Y020179D01*
X004175Y019015D01*
X005338Y019015D01*
X005338Y020336D01*
X005338Y020105D02*
X005498Y020105D01*
X005498Y019946D02*
X005338Y019946D01*
X005338Y019788D02*
X005498Y019788D01*
X005498Y019629D02*
X005338Y019629D01*
X005338Y019471D02*
X005498Y019471D01*
X005498Y019312D02*
X005338Y019312D01*
X005338Y019154D02*
X005498Y019154D01*
X004175Y019154D02*
X000800Y019154D01*
X000800Y019312D02*
X004175Y019312D01*
X004175Y019471D02*
X000800Y019471D01*
X000800Y019629D02*
X004175Y019629D01*
X004175Y019788D02*
X000800Y019788D01*
X000800Y019946D02*
X004175Y019946D01*
X004175Y020105D02*
X000800Y020105D01*
X000800Y020263D02*
X004210Y020263D01*
X006994Y022641D02*
X000800Y022641D01*
X000800Y022799D02*
X007085Y022799D01*
X007279Y022958D02*
X000800Y022958D01*
X000800Y023116D02*
X007071Y023116D01*
X006988Y023275D02*
X000800Y023275D01*
X000800Y023433D02*
X006960Y023433D01*
X006974Y023592D02*
X000800Y023592D01*
X000800Y023750D02*
X007040Y023750D01*
X007195Y023909D02*
X000800Y023909D01*
X000800Y024067D02*
X009882Y024067D01*
X009902Y024226D02*
X000800Y024226D01*
X000800Y024384D02*
X010303Y024384D01*
X010303Y024543D02*
X000800Y024543D01*
X000800Y024701D02*
X010329Y024701D01*
X010407Y024793D02*
X010495Y024830D01*
X010862Y024830D01*
X010875Y024860D01*
X015616Y024860D02*
X015884Y024860D01*
X015763Y024701D02*
X015736Y024701D01*
X015738Y024543D02*
X015761Y024543D01*
X037072Y030608D02*
X037072Y030648D01*
X037111Y030648D01*
D23*
X037032Y030648D01*
X036914Y030766D01*
X036914Y032616D01*
X036993Y032695D01*
X036993Y034585D01*
X037111Y034703D01*
X037111Y034900D01*
X037308Y035096D01*
X037308Y036632D01*
X037387Y036711D01*
X036402Y036671D02*
X036402Y034742D01*
X036401Y034732D01*
X036397Y034723D01*
X036391Y034714D01*
X036383Y034708D01*
X036373Y034704D01*
X036363Y034703D01*
X036363Y032656D01*
X036363Y030569D01*
X036351Y030575D01*
X036340Y030584D01*
X036331Y030594D01*
X036325Y030607D01*
X036321Y030620D01*
X036321Y030634D01*
X036324Y030648D01*
X036324Y028758D01*
X036325Y028748D01*
X036329Y028739D01*
X036335Y028730D01*
X036344Y028724D01*
X036353Y028720D01*
X036363Y028719D01*
X036363Y026750D01*
X036364Y026740D01*
X036368Y026731D01*
X036374Y026722D01*
X036383Y026716D01*
X036392Y026712D01*
X036402Y026711D01*
X036402Y024663D01*
X036402Y022695D01*
X036401Y022685D01*
X036397Y022676D01*
X036391Y022667D01*
X036383Y022661D01*
X036373Y022657D01*
X036363Y022656D01*
X036363Y020687D01*
X036364Y020677D01*
X036368Y020668D01*
X036374Y020659D01*
X036383Y020653D01*
X036392Y020649D01*
X036402Y020648D01*
X036402Y018719D01*
X037387Y018719D02*
X037387Y020648D01*
X037387Y022656D01*
X037387Y024663D01*
X037388Y024673D01*
X037392Y024683D01*
X037398Y024691D01*
X037407Y024697D01*
X037416Y024701D01*
X037426Y024702D01*
X037426Y024703D02*
X037426Y026553D01*
X037425Y026563D01*
X037421Y026573D01*
X037415Y026581D01*
X037407Y026587D01*
X037397Y026591D01*
X037387Y026592D01*
X037387Y026593D02*
X037387Y028679D01*
X037111Y028955D01*
X037111Y030648D01*
X037111Y030608D02*
X037072Y030608D01*
X035379Y030648D02*
X035379Y028640D01*
X035379Y026671D01*
X035378Y026671D02*
X035377Y026661D01*
X035373Y026652D01*
X035367Y026643D01*
X035359Y026637D01*
X035349Y026633D01*
X035339Y026632D01*
X035339Y024742D01*
X035340Y024742D02*
X035341Y024732D01*
X035345Y024723D01*
X035351Y024714D01*
X035360Y024708D01*
X035369Y024704D01*
X035379Y024703D01*
X035379Y022734D01*
X035378Y022734D02*
X035377Y022724D01*
X035373Y022715D01*
X035367Y022706D01*
X035359Y022700D01*
X035349Y022696D01*
X035339Y022695D01*
X035339Y020726D01*
X035340Y020726D02*
X035341Y020716D01*
X035345Y020707D01*
X035351Y020698D01*
X035360Y020692D01*
X035369Y020688D01*
X035379Y020687D01*
X035339Y018797D01*
X035340Y018797D02*
X035346Y018781D01*
X035349Y018764D01*
X035348Y018747D01*
X035344Y018730D01*
X035337Y018714D01*
X035327Y018700D01*
X035315Y018688D01*
X035300Y018679D01*
X034355Y018640D02*
X034394Y020687D01*
X034355Y022695D01*
X034394Y024663D01*
X034394Y026671D01*
X034394Y028679D01*
X034394Y030648D01*
X034394Y032616D01*
X034394Y034624D01*
X034394Y036671D01*
X034394Y038955D01*
X034276Y039112D01*
X027741Y039112D01*
X027190Y038758D01*
X027190Y034703D01*
X027032Y034545D01*
X026440Y034545D01*
X026349Y034636D01*
X028371Y034703D02*
X028371Y032616D01*
X028371Y030648D01*
X028371Y028640D01*
X028371Y026671D01*
X028410Y026632D01*
X028410Y024703D01*
X028450Y024663D01*
X028450Y022695D01*
X028410Y022656D01*
X028410Y020648D01*
X028410Y018797D01*
X028371Y018719D01*
X029434Y018719D02*
X029434Y020608D01*
X029394Y020648D01*
X029394Y022616D01*
X029355Y022656D01*
X029355Y024624D01*
X029394Y024663D01*
X029394Y026593D01*
X029394Y028561D01*
X029473Y028640D01*
X029473Y030648D01*
X029473Y032537D01*
X029394Y032616D01*
X029434Y032656D01*
X029434Y034624D01*
X029394Y034663D01*
X029394Y036632D01*
X028410Y036671D02*
X028371Y036632D01*
X028371Y034703D01*
X030418Y034663D02*
X030379Y032656D01*
X030418Y032537D01*
X030418Y030608D01*
X030379Y028640D01*
X030379Y026632D01*
X030418Y024663D01*
X030379Y022695D01*
X030379Y020648D01*
X030379Y018679D01*
X031363Y018719D02*
X031363Y020726D01*
X031363Y022656D01*
X031363Y022655D02*
X031378Y022664D01*
X031390Y022676D01*
X031400Y022690D01*
X031407Y022706D01*
X031411Y022723D01*
X031412Y022740D01*
X031409Y022757D01*
X031403Y022773D01*
X031402Y022774D02*
X031402Y024703D01*
X031402Y026671D01*
X031402Y026672D02*
X031392Y026673D01*
X031383Y026677D01*
X031374Y026683D01*
X031368Y026692D01*
X031364Y026701D01*
X031363Y026711D01*
X031363Y028640D01*
X031373Y028641D01*
X031383Y028645D01*
X031391Y028651D01*
X031397Y028660D01*
X031401Y028669D01*
X031402Y028679D01*
X031402Y030648D01*
X031392Y030649D01*
X031383Y030653D01*
X031374Y030659D01*
X031368Y030668D01*
X031364Y030677D01*
X031363Y030687D01*
X031363Y032616D01*
X031363Y032617D02*
X031373Y032618D01*
X031383Y032622D01*
X031391Y032628D01*
X031397Y032637D01*
X031401Y032646D01*
X031402Y032656D01*
X031402Y034703D01*
X031402Y036711D01*
X030418Y036671D02*
X030379Y036632D01*
X030418Y034663D01*
X032387Y034703D02*
X032387Y032656D01*
X032465Y032656D01*
X032465Y030648D01*
X032465Y028679D01*
X032505Y028679D01*
X032505Y026632D01*
X032426Y026632D01*
X032426Y024663D01*
X032426Y022695D01*
X032426Y020648D01*
X032426Y018679D01*
X033410Y018679D02*
X033410Y020648D01*
X033410Y022695D01*
X033410Y024703D01*
X033400Y024704D01*
X033391Y024708D01*
X033382Y024714D01*
X033376Y024723D01*
X033372Y024732D01*
X033371Y024742D01*
X033371Y026671D01*
X033371Y026672D02*
X033381Y026673D01*
X033391Y026677D01*
X033399Y026683D01*
X033405Y026692D01*
X033409Y026701D01*
X033410Y026711D01*
X033410Y028719D01*
X033400Y028720D01*
X033391Y028724D01*
X033382Y028730D01*
X033376Y028739D01*
X033372Y028748D01*
X033371Y028758D01*
X033371Y030608D01*
X033371Y030609D02*
X033381Y030610D01*
X033391Y030614D01*
X033399Y030620D01*
X033405Y030629D01*
X033409Y030638D01*
X033410Y030648D01*
X033410Y032695D01*
X033410Y034663D01*
X033410Y034664D02*
X033400Y034665D01*
X033391Y034669D01*
X033382Y034675D01*
X033376Y034684D01*
X033372Y034693D01*
X033371Y034703D01*
X033371Y036593D01*
X032426Y036671D02*
X032387Y036671D01*
X032387Y034703D01*
X032426Y036671D02*
X032387Y038443D01*
X031954Y038719D01*
X030418Y038285D02*
X030418Y036671D01*
X030418Y038285D02*
X029985Y038561D01*
X028056Y038561D01*
X027702Y038167D01*
X027702Y031002D01*
X027308Y030608D01*
X026377Y030608D01*
X026349Y030636D01*
X025221Y038443D02*
X025536Y038758D01*
X026796Y038758D01*
X035379Y036632D02*
X035379Y034663D01*
X035378Y034663D02*
X035377Y034653D01*
X035373Y034644D01*
X035367Y034635D01*
X035359Y034629D01*
X035349Y034625D01*
X035339Y034624D01*
X035339Y032656D01*
X035340Y032656D02*
X035341Y032646D01*
X035345Y032637D01*
X035351Y032628D01*
X035360Y032622D01*
X035369Y032618D01*
X035379Y032617D01*
X035379Y032616D02*
X035379Y030648D01*
X038882Y031660D02*
X039670Y030872D01*
X039670Y027616D01*
X039276Y027222D01*
X039276Y026829D01*
X036402Y036671D02*
X036402Y038915D01*
X036363Y038955D01*
X017300Y023951D02*
X016300Y023951D01*
X013875Y021526D01*
X012615Y023766D02*
X013300Y024451D01*
X013300Y025451D01*
X012300Y025451D01*
X012083Y024518D02*
X011670Y024104D01*
X011670Y023821D01*
X011040Y023711D02*
X010721Y024030D01*
X010721Y024411D01*
X011257Y024494D02*
X011257Y024545D01*
X011257Y024494D02*
X011355Y024396D01*
X014001Y025136D02*
X014300Y024837D01*
X014300Y024451D01*
X009249Y012860D02*
X009249Y012667D01*
X009528Y012388D01*
X009513Y012372D01*
X009513Y009781D01*
X009583Y009711D01*
X010017Y009711D01*
X010828Y008136D02*
X011883Y009191D01*
X012111Y009191D01*
X012583Y008719D01*
X012702Y008719D01*
X010017Y007191D02*
X009402Y007191D01*
X009276Y007065D01*
X008331Y007065D01*
X009300Y006451D02*
X009725Y006876D01*
X010017Y006876D01*
X012300Y005451D02*
X012694Y005057D01*
X012717Y005419D02*
X013048Y005419D01*
X013765Y004703D01*
X013765Y003486D01*
X014300Y002951D01*
X013426Y002703D02*
X013410Y002719D01*
X013410Y004348D01*
X013308Y004451D01*
X013300Y004451D01*
X013308Y004459D01*
X013308Y004711D01*
X005800Y009951D02*
X005800Y011451D01*
X005300Y011951D01*
X005300Y012451D01*
X004300Y012451D01*
X024300Y011451D02*
X024800Y011451D01*
X025064Y011715D01*
X025064Y011843D01*
X025064Y012043D02*
X024800Y012307D01*
X024800Y012451D01*
D24*
X028371Y018719D03*
X029434Y018719D03*
X030379Y018679D03*
X031363Y018719D03*
X032426Y018679D03*
X033410Y018679D03*
X034355Y018640D03*
X035300Y018679D03*
X036402Y018719D03*
X037387Y018719D03*
X037387Y020648D03*
X036402Y020648D03*
X035379Y020687D03*
X034394Y020687D03*
X033410Y020648D03*
X032426Y020648D03*
X031363Y020726D03*
X030379Y020648D03*
X029394Y020648D03*
X028410Y020648D03*
X028410Y022656D03*
X029355Y022656D03*
X030379Y022695D03*
X031363Y022656D03*
X032426Y022695D03*
X033410Y022695D03*
X034355Y022695D03*
X035339Y022695D03*
X036363Y022656D03*
X037387Y022656D03*
X037426Y024703D03*
X036402Y024663D03*
X035379Y024703D03*
X034394Y024663D03*
X033410Y024703D03*
X032426Y024663D03*
X031402Y024703D03*
X030418Y024663D03*
X029394Y024663D03*
X028450Y024663D03*
X028410Y026632D03*
X029394Y026593D03*
X030379Y026632D03*
X031402Y026671D03*
X032505Y026632D03*
X033371Y026671D03*
X034394Y026671D03*
X035339Y026632D03*
X036402Y026711D03*
X037387Y026593D03*
X039276Y026829D03*
X037387Y028679D03*
X036363Y028719D03*
X035379Y028640D03*
X034394Y028679D03*
X033410Y028719D03*
X032465Y028679D03*
X031363Y028640D03*
X030379Y028640D03*
X029473Y028640D03*
X028371Y028640D03*
X028371Y030648D03*
X029473Y030648D03*
X030418Y030608D03*
X031402Y030648D03*
X032465Y030648D03*
X033371Y030608D03*
X034394Y030648D03*
X035379Y030648D03*
X036324Y030648D03*
X036363Y032656D03*
X036993Y032695D03*
X035379Y032616D03*
X034394Y032616D03*
X033410Y032695D03*
X032387Y032656D03*
X031363Y032616D03*
X030379Y032656D03*
X029394Y032616D03*
X028371Y032616D03*
X028371Y034703D03*
X029434Y034624D03*
X030418Y034663D03*
X031402Y034703D03*
X032387Y034703D03*
X033410Y034663D03*
X034394Y034624D03*
X035339Y034624D03*
X036363Y034703D03*
X037111Y034703D03*
X037387Y036711D03*
X036402Y036671D03*
X035379Y036632D03*
X034394Y036671D03*
X033371Y036593D03*
X032426Y036671D03*
X031402Y036711D03*
X030418Y036671D03*
X029394Y036632D03*
X028410Y036671D03*
X026796Y038758D03*
X025221Y038443D03*
X031954Y038719D03*
X036363Y038955D03*
X016200Y024451D03*
X015300Y024451D03*
X005300Y014951D03*
X009249Y012860D03*
X008300Y011451D03*
X005800Y009951D03*
X006300Y008451D03*
X005394Y008136D03*
X009272Y005742D03*
X009292Y005041D03*
X011300Y002951D03*
X011800Y003451D03*
X013426Y002703D03*
X014300Y002951D03*
X015300Y003451D03*
D25*
X015300Y001951D02*
X014178Y001951D01*
X013426Y002703D01*
X012702Y008719D02*
X013174Y009191D01*
X013174Y009545D01*
X006300Y014451D02*
X006300Y016061D01*
X006316Y016061D01*
X005300Y016061D02*
X005300Y014951D01*
X006300Y014451D02*
X005800Y013951D01*
X003300Y013951D01*
X003300Y015951D01*
X004520Y016061D02*
X005300Y016061D01*
D26*
X005300Y012451D03*
X009056Y012152D03*
X013174Y009545D03*
X009300Y006451D03*
X008331Y007065D03*
X015300Y001951D03*
X017300Y023951D03*
X014001Y025136D03*
X012300Y025451D03*
X012083Y024518D03*
X011257Y024545D03*
X010721Y024411D03*
X010300Y023951D03*
D27*
X037111Y030648D03*
M02*
