G75*
%MOIN*%
%OFA0B0*%
%FSLAX24Y24*%
%IPPOS*%
%LPD*%
%AMOC8*
5,1,8,0,0,1.08239X$1,22.5*
%
%ADD10C,0.0000*%
%ADD11C,0.0100*%
%ADD12C,0.0520*%
%ADD13R,0.0472X0.0472*%
%ADD14C,0.0600*%
%ADD15C,0.0440*%
%ADD16R,0.0110X0.0169*%
%ADD17C,0.0160*%
%ADD18R,0.0396X0.0396*%
%ADD19C,0.0240*%
%ADD20R,0.0357X0.0357*%
%ADD21C,0.0396*%
D10*
X000300Y000451D02*
X000300Y039821D01*
X040170Y039821D01*
X040170Y000451D01*
X000300Y000451D01*
D11*
X003800Y007451D02*
X004800Y007451D01*
X007209Y005041D01*
X009292Y005041D01*
X009272Y005742D02*
X008591Y005742D01*
X008300Y005451D01*
X007300Y005451D01*
X004800Y007951D01*
X004800Y008451D01*
X005300Y008951D01*
X005300Y010951D01*
X004800Y011451D01*
X004300Y011451D01*
X003800Y011951D01*
X003800Y014951D01*
X004300Y015451D01*
X004300Y018051D01*
X006700Y020451D01*
X006900Y020451D02*
X007800Y020451D01*
X007800Y021451D02*
X006900Y021451D01*
X006700Y021451D02*
X004200Y018951D01*
X002800Y018951D01*
X002300Y018451D01*
X002300Y014451D01*
X003300Y013451D01*
X003300Y007951D01*
X003800Y007451D01*
X005394Y008136D02*
X005394Y008545D01*
X006300Y009451D01*
X006300Y010451D01*
X004800Y011951D01*
X004800Y015551D01*
X006700Y017451D01*
X006900Y017451D02*
X007800Y017451D01*
X007800Y016451D02*
X006900Y016451D01*
X006700Y016451D02*
X005800Y015551D01*
X005800Y011451D01*
X006560Y010691D01*
X006560Y009191D01*
X006300Y008931D01*
X006300Y008451D01*
X006800Y009951D02*
X007800Y008951D01*
X007800Y006951D01*
X008300Y006451D01*
X009300Y006451D01*
X010221Y006711D02*
X012583Y004348D01*
X012583Y002813D01*
X013292Y002104D01*
X014001Y002104D01*
X014300Y002404D01*
X014300Y002951D01*
X013954Y003451D02*
X015300Y003451D01*
X013954Y003451D02*
X010576Y006829D01*
X010576Y008175D01*
X007800Y010951D01*
X007800Y012321D01*
X008686Y013207D01*
X010056Y013207D01*
X010800Y013951D01*
X010800Y017951D01*
X010300Y018451D01*
X009111Y018451D01*
X008568Y018994D01*
X006678Y018994D01*
X006678Y019429D01*
X006700Y019451D01*
X006900Y019451D02*
X007800Y019451D01*
X007800Y018451D02*
X006900Y018451D01*
X006700Y018451D02*
X006678Y018429D01*
X006678Y018049D01*
X006796Y017931D01*
X010103Y017931D01*
X010457Y017577D01*
X010457Y014388D01*
X009631Y013561D01*
X008450Y013561D01*
X007300Y012411D01*
X007300Y011451D01*
X007505Y011246D01*
X007505Y010608D01*
X010221Y007892D01*
X010221Y006711D01*
X008331Y007065D02*
X008331Y008955D01*
X007150Y010136D01*
X007150Y011317D01*
X006560Y011907D01*
X006560Y014311D01*
X006700Y014451D01*
X006900Y014451D02*
X007800Y014451D01*
X007800Y015451D02*
X006900Y015451D01*
X006700Y015451D02*
X006300Y015051D01*
X006300Y011451D01*
X006800Y010951D01*
X006800Y009951D01*
X008300Y011451D02*
X018269Y011451D01*
X019434Y012616D01*
X020024Y012616D01*
X021442Y014033D01*
X021442Y014409D01*
X021400Y014451D01*
X021200Y014451D02*
X020300Y014451D01*
X020300Y015451D02*
X021200Y015451D01*
X021400Y015451D02*
X021442Y015409D01*
X021442Y014978D01*
X019316Y014978D01*
X016489Y012152D01*
X009056Y012152D01*
X009249Y012860D02*
X010209Y012860D01*
X012300Y014951D01*
X012800Y014951D01*
X013800Y015951D01*
X021300Y015951D01*
X021400Y016051D01*
X021400Y016451D01*
X021200Y016451D02*
X020300Y016451D01*
X020300Y017451D02*
X021200Y017451D01*
X021400Y017451D02*
X021442Y017409D01*
X021442Y016986D01*
X019316Y016986D01*
X013733Y022451D01*
X012300Y022451D01*
X010800Y023951D01*
X010300Y023951D01*
X009867Y023482D02*
X009867Y024781D01*
X010536Y025451D01*
X012300Y025451D01*
X012083Y024518D02*
X013320Y024518D01*
X013883Y023955D01*
X016245Y023955D01*
X016835Y023364D01*
X016835Y022537D01*
X019434Y019939D01*
X021442Y019939D01*
X021442Y020409D01*
X021400Y020451D01*
X021200Y020451D02*
X020300Y020451D01*
X020300Y021451D02*
X021200Y021451D01*
X021400Y021451D02*
X021400Y021051D01*
X021300Y020951D01*
X019300Y020951D01*
X018300Y021951D01*
X018300Y022951D01*
X017300Y023951D01*
X018300Y024451D02*
X016200Y024451D01*
X015800Y024951D02*
X015300Y024451D01*
X015800Y024951D02*
X018800Y024951D01*
X019300Y024451D01*
X019300Y023451D01*
X019800Y022951D01*
X021300Y022951D01*
X021400Y023051D01*
X021400Y023451D01*
X021200Y023451D02*
X020300Y023451D01*
X020300Y022451D02*
X021200Y022451D01*
X021400Y022451D02*
X021400Y022051D01*
X021300Y021951D01*
X019800Y021951D01*
X018800Y022951D01*
X018800Y023951D01*
X018300Y024451D01*
X014828Y023600D02*
X012930Y023600D01*
X012580Y023951D01*
X011800Y023951D01*
X011257Y024494D01*
X011257Y024545D01*
X010839Y024411D02*
X010721Y024411D01*
X010839Y024411D02*
X012300Y022951D01*
X014532Y022951D01*
X019552Y017931D01*
X021324Y017931D01*
X021442Y018049D01*
X021442Y018409D01*
X021400Y018451D01*
X021200Y018451D02*
X020300Y018451D01*
X020300Y019451D02*
X021200Y019451D01*
X021400Y019451D02*
X021442Y019409D01*
X021442Y019112D01*
X021324Y018994D01*
X019434Y018994D01*
X014828Y023600D01*
X014001Y025136D02*
X014001Y025250D01*
X013300Y025951D01*
X010300Y025951D01*
X008800Y024451D01*
X007300Y024451D01*
X006300Y023451D01*
X006300Y022850D01*
X006700Y022451D01*
X006900Y022451D02*
X007800Y022451D01*
X007800Y023451D02*
X006900Y023451D01*
X006700Y023451D02*
X006678Y023429D01*
X006678Y023010D01*
X009394Y023010D01*
X009867Y023482D01*
X005300Y012951D02*
X005300Y012451D01*
X011800Y001951D02*
X012300Y001951D01*
X028371Y018719D02*
X028371Y019236D01*
X028382Y019247D01*
X028382Y020074D02*
X029382Y020074D01*
X030382Y020074D01*
X031382Y020074D01*
X032382Y020074D01*
X033382Y020074D01*
X034382Y020074D01*
X035382Y020074D01*
X036382Y020074D01*
X037382Y020074D01*
X038033Y020074D01*
X038489Y020530D01*
X038489Y021317D01*
X039276Y022104D01*
X039276Y026829D01*
X038804Y027183D02*
X038804Y022341D01*
X038292Y021829D01*
X037627Y021829D01*
X037382Y022074D01*
X036382Y022074D01*
X035382Y022074D01*
X034382Y022074D01*
X033382Y022074D01*
X032382Y022074D01*
X031382Y022074D01*
X030382Y022074D01*
X029382Y022074D01*
X028382Y022074D01*
X028410Y022656D02*
X028410Y023219D01*
X028382Y023247D01*
X028382Y024074D02*
X029382Y024074D01*
X030382Y024074D01*
X031382Y024074D01*
X032382Y024074D01*
X033382Y024074D01*
X034382Y024074D01*
X035382Y024074D01*
X036382Y024074D01*
X037382Y024074D01*
X037703Y024074D01*
X038095Y024467D01*
X038095Y025648D01*
X038489Y026041D01*
X038489Y028268D01*
X038882Y028660D01*
X038095Y028797D02*
X038095Y026435D01*
X037734Y026074D01*
X037382Y026074D01*
X036382Y026074D01*
X035382Y026074D01*
X034382Y026074D01*
X033382Y026074D01*
X032382Y026074D01*
X031382Y026074D01*
X030382Y026074D01*
X029382Y026074D01*
X029414Y026041D01*
X029434Y026041D01*
X029401Y026074D01*
X029382Y026074D01*
X028382Y026074D01*
X028410Y026632D02*
X028410Y027219D01*
X028382Y027247D01*
X028382Y028074D02*
X029382Y028074D01*
X030382Y028074D01*
X031382Y028074D01*
X032382Y028074D01*
X033382Y028074D01*
X034382Y028074D01*
X035382Y028074D01*
X036382Y028074D01*
X037382Y028074D01*
X037647Y028074D01*
X037820Y028246D01*
X037820Y028797D01*
X038095Y029073D01*
X038095Y032026D01*
X038174Y032104D01*
X038326Y032104D01*
X038882Y032660D01*
X038017Y032537D02*
X038017Y033522D01*
X038135Y033640D01*
X038861Y033640D01*
X038882Y033660D01*
X038882Y034660D02*
X038879Y034663D01*
X038056Y034663D01*
X037820Y034427D01*
X037820Y032892D01*
X037382Y032454D01*
X037382Y032074D01*
X036382Y032074D01*
X036255Y031947D01*
X035733Y031947D01*
X035606Y032074D01*
X035382Y032074D01*
X034382Y032074D01*
X033382Y032074D01*
X032382Y032074D01*
X031382Y032074D01*
X030382Y032074D01*
X029382Y032074D01*
X028382Y032074D01*
X028371Y032616D02*
X028371Y033236D01*
X028382Y033247D01*
X028382Y034074D02*
X029382Y034074D01*
X030382Y034074D01*
X031382Y034074D01*
X032382Y034074D01*
X033382Y034074D01*
X034382Y034074D01*
X035382Y034074D01*
X036382Y034074D01*
X037382Y034074D01*
X037308Y034148D01*
X037308Y034309D01*
X038659Y035660D01*
X038882Y035660D01*
X038882Y036660D02*
X037968Y036660D01*
X037382Y036074D01*
X036382Y036074D01*
X035382Y036074D01*
X034382Y036074D01*
X033382Y036074D01*
X032382Y036074D01*
X031382Y036074D01*
X030382Y036074D01*
X030425Y036074D01*
X030382Y036074D02*
X029382Y036074D01*
X028382Y036074D01*
X028410Y036671D02*
X028410Y037219D01*
X028382Y037247D01*
X028382Y038074D02*
X029382Y038074D01*
X030382Y038074D01*
X031382Y038074D01*
X032382Y038074D01*
X032657Y038074D02*
X033382Y038074D01*
X034382Y038074D01*
X035382Y038074D01*
X036382Y038074D01*
X037382Y038074D01*
X038468Y038074D01*
X038882Y037660D01*
X037387Y037242D02*
X037387Y036711D01*
X037387Y037242D02*
X037382Y037247D01*
X037323Y037247D01*
X036914Y037656D01*
X026369Y037656D01*
X026349Y037636D01*
X025576Y037409D02*
X025576Y038364D01*
X026009Y039112D01*
X035694Y039112D01*
X035851Y038955D01*
X036363Y038955D01*
X036382Y037247D02*
X036382Y036692D01*
X036402Y036671D01*
X035379Y036632D02*
X035379Y037244D01*
X035382Y037247D01*
X034382Y037247D02*
X034382Y036684D01*
X034394Y036671D01*
X035300Y035648D02*
X035382Y035566D01*
X035382Y035247D01*
X035371Y035246D01*
X035361Y035241D01*
X035352Y035235D01*
X035346Y035226D01*
X035341Y035216D01*
X035340Y035205D01*
X035339Y035205D02*
X035339Y034624D01*
X035382Y034160D02*
X035382Y034074D01*
X035382Y033247D02*
X035381Y033247D01*
X035379Y033246D01*
X035379Y033244D01*
X035379Y032616D01*
X034394Y032616D02*
X034394Y033234D01*
X034395Y033234D02*
X034394Y033239D01*
X034391Y033243D01*
X034387Y033246D01*
X034382Y033247D01*
X033410Y033219D02*
X033410Y032695D01*
X033411Y033219D02*
X033410Y033228D01*
X033405Y033236D01*
X033399Y033242D01*
X033391Y033247D01*
X033382Y033248D01*
X033382Y033247D02*
X033382Y033353D01*
X033056Y033679D01*
X026393Y033679D01*
X026349Y033636D01*
X026349Y032636D02*
X025339Y033646D01*
X025221Y038443D01*
X025576Y037409D02*
X026349Y036636D01*
X026440Y035648D02*
X035300Y035648D01*
X034394Y035234D02*
X034394Y034624D01*
X034395Y035234D02*
X034394Y035239D01*
X034391Y035243D01*
X034387Y035246D01*
X034382Y035247D01*
X033410Y035219D02*
X033410Y034663D01*
X033411Y035219D02*
X033410Y035228D01*
X033405Y035236D01*
X033399Y035242D01*
X033391Y035247D01*
X033382Y035248D01*
X032382Y035247D02*
X032382Y034703D01*
X032387Y034703D01*
X031402Y034703D02*
X031402Y035226D01*
X031403Y035226D02*
X031401Y035234D01*
X031397Y035241D01*
X031390Y035245D01*
X031382Y035247D01*
X030382Y035247D02*
X030382Y034588D01*
X030418Y034663D01*
X029434Y034624D02*
X029434Y035195D01*
X029382Y035247D01*
X028382Y035247D02*
X028382Y034714D01*
X028371Y034703D01*
X029382Y033247D02*
X029394Y033234D01*
X029394Y032616D01*
X030379Y032656D02*
X030382Y032580D01*
X030382Y033247D01*
X031363Y033228D02*
X031363Y032616D01*
X031363Y033228D02*
X031364Y033235D01*
X031369Y033241D01*
X031375Y033246D01*
X031382Y033247D01*
X032382Y033247D02*
X032382Y032656D01*
X032387Y032656D01*
X032382Y031247D02*
X032382Y030648D01*
X032465Y030648D01*
X032382Y030074D02*
X033382Y030074D01*
X034382Y030074D01*
X035382Y030074D01*
X036382Y030074D01*
X037382Y030074D01*
X037382Y030328D01*
X037820Y030766D01*
X037820Y032341D01*
X038017Y032537D01*
X037382Y033084D02*
X037382Y033247D01*
X037371Y033245D01*
X037362Y033241D01*
X037354Y033233D01*
X037350Y033224D01*
X037348Y033213D01*
X037382Y033084D02*
X036993Y032695D01*
X036363Y032656D02*
X036363Y033228D01*
X036364Y033235D01*
X036369Y033241D01*
X036375Y033246D01*
X036382Y033247D01*
X036363Y034703D02*
X036363Y035228D01*
X036364Y035235D01*
X036369Y035241D01*
X036375Y035246D01*
X036382Y035247D01*
X037111Y034703D02*
X037382Y034973D01*
X037382Y035247D01*
X037385Y035246D01*
X037386Y035245D01*
X037387Y035242D01*
X037382Y031247D02*
X037382Y030840D01*
X037111Y030648D01*
X036324Y030648D02*
X036324Y031189D01*
X036325Y031202D01*
X036330Y031214D01*
X036337Y031225D01*
X036346Y031234D01*
X036357Y031241D01*
X036369Y031246D01*
X036382Y031247D01*
X035382Y031247D02*
X035381Y031247D01*
X035379Y031246D01*
X035379Y031244D01*
X035379Y030648D01*
X034394Y030648D02*
X034394Y031234D01*
X034395Y031234D02*
X034394Y031239D01*
X034391Y031243D01*
X034387Y031246D01*
X034382Y031247D01*
X033382Y031247D02*
X033377Y031246D01*
X033372Y031242D01*
X033371Y031236D01*
X033371Y030608D01*
X032382Y030074D02*
X031382Y030074D01*
X030382Y030074D01*
X029382Y030074D01*
X028382Y030074D01*
X028382Y030160D01*
X028371Y030648D02*
X028382Y030658D01*
X028382Y031247D01*
X029382Y031247D02*
X029473Y031156D01*
X029473Y030648D01*
X030382Y030645D02*
X030382Y031247D01*
X030382Y030645D02*
X030418Y030608D01*
X031402Y030648D02*
X031402Y031226D01*
X031403Y031226D02*
X031401Y031234D01*
X031397Y031241D01*
X031390Y031245D01*
X031382Y031247D01*
X031382Y031534D01*
X031245Y031671D01*
X026385Y031671D01*
X026349Y031636D01*
X026416Y029703D02*
X029237Y029703D01*
X029382Y029558D01*
X029382Y029247D01*
X029382Y028849D01*
X029434Y028797D01*
X029434Y028679D01*
X029473Y028640D01*
X030379Y028640D02*
X030382Y029247D01*
X031363Y029228D02*
X031363Y028640D01*
X031363Y029228D02*
X031364Y029235D01*
X031369Y029241D01*
X031375Y029246D01*
X031382Y029247D01*
X032382Y029247D02*
X032382Y028679D01*
X032465Y028679D01*
X033410Y028719D02*
X033410Y029219D01*
X033411Y029219D02*
X033410Y029228D01*
X033405Y029236D01*
X033399Y029242D01*
X033391Y029247D01*
X033382Y029248D01*
X034382Y029247D02*
X034387Y029246D01*
X034391Y029243D01*
X034394Y029239D01*
X034395Y029234D01*
X034394Y029234D02*
X034394Y028679D01*
X035379Y028640D02*
X035379Y029244D01*
X035379Y029246D01*
X035381Y029247D01*
X035382Y029247D01*
X036363Y029228D02*
X036363Y028719D01*
X036363Y029228D02*
X036364Y029235D01*
X036369Y029241D01*
X036375Y029246D01*
X036382Y029247D01*
X037382Y029247D02*
X037382Y028684D01*
X037383Y028682D01*
X037385Y028680D01*
X037387Y028679D01*
X038095Y028797D02*
X038882Y029584D01*
X038882Y029660D01*
X039631Y030057D02*
X038988Y030660D01*
X038882Y030660D01*
X039631Y030057D02*
X039631Y028010D01*
X038804Y027183D01*
X037382Y027247D02*
X037382Y026597D01*
X037383Y026595D01*
X037385Y026593D01*
X037387Y026592D01*
X036402Y026711D02*
X036402Y027226D01*
X036403Y027226D02*
X036401Y027234D01*
X036397Y027241D01*
X036390Y027245D01*
X036382Y027247D01*
X035382Y027247D02*
X035371Y027246D01*
X035361Y027241D01*
X035352Y027235D01*
X035346Y027226D01*
X035341Y027216D01*
X035340Y027205D01*
X035339Y027205D02*
X035339Y026632D01*
X034394Y026671D02*
X034394Y027234D01*
X034395Y027234D02*
X034394Y027239D01*
X034391Y027243D01*
X034387Y027246D01*
X034382Y027247D01*
X033382Y027247D02*
X033377Y027246D01*
X033372Y027242D01*
X033371Y027236D01*
X033371Y026671D01*
X032505Y026632D02*
X032382Y026632D01*
X032382Y027247D01*
X031402Y027226D02*
X031402Y026671D01*
X031403Y027226D02*
X031401Y027234D01*
X031397Y027241D01*
X031390Y027245D01*
X031382Y027247D01*
X030382Y027247D02*
X030379Y026632D01*
X029394Y026593D02*
X029382Y026605D01*
X029382Y027247D01*
X028371Y028640D02*
X026353Y028640D01*
X026349Y028636D01*
X026349Y029636D02*
X026416Y029703D01*
X028371Y029236D02*
X028371Y028640D01*
X028371Y029236D02*
X028382Y029247D01*
X028382Y025247D02*
X028450Y025179D01*
X028450Y024663D01*
X029382Y024676D02*
X029382Y025247D01*
X029382Y024676D02*
X029394Y024663D01*
X029382Y024074D02*
X029383Y024073D01*
X029434Y024073D01*
X029433Y024074D01*
X029382Y024074D01*
X029382Y023247D02*
X029382Y022682D01*
X029355Y022656D01*
X030379Y022695D02*
X030382Y023247D01*
X031363Y023228D02*
X031363Y022656D01*
X031363Y023228D02*
X031364Y023235D01*
X031369Y023241D01*
X031375Y023246D01*
X031382Y023247D01*
X032382Y023247D02*
X032382Y022695D01*
X032426Y022695D01*
X033410Y022695D02*
X033410Y023219D01*
X033411Y023219D02*
X033410Y023228D01*
X033405Y023236D01*
X033399Y023242D01*
X033391Y023247D01*
X033382Y023248D01*
X034382Y023247D02*
X034387Y023246D01*
X034391Y023243D01*
X034394Y023239D01*
X034395Y023234D01*
X034394Y023234D02*
X034355Y022695D01*
X035339Y022695D02*
X035339Y023205D01*
X035340Y023205D02*
X035341Y023216D01*
X035346Y023226D01*
X035352Y023235D01*
X035361Y023241D01*
X035371Y023246D01*
X035382Y023247D01*
X034552Y024073D02*
X034383Y024073D01*
X034382Y024074D01*
X034551Y024074D01*
X034552Y024073D01*
X034394Y024663D02*
X034394Y025234D01*
X034395Y025234D02*
X034394Y025239D01*
X034391Y025243D01*
X034387Y025246D01*
X034382Y025247D01*
X035379Y025244D02*
X035379Y024703D01*
X035379Y025244D02*
X035379Y025246D01*
X035381Y025247D01*
X035382Y025247D01*
X036363Y025228D02*
X036363Y024781D01*
X036402Y024663D02*
X036402Y025226D01*
X036403Y025226D02*
X036401Y025234D01*
X036397Y025241D01*
X036390Y025245D01*
X036382Y025247D01*
X036375Y025246D01*
X036369Y025241D01*
X036364Y025235D01*
X036363Y025228D01*
X037382Y025247D02*
X037382Y024747D01*
X037383Y024736D01*
X037388Y024725D01*
X037395Y024716D01*
X037404Y024709D01*
X037415Y024704D01*
X037426Y024703D01*
X037382Y023247D02*
X037382Y022660D01*
X037383Y022658D01*
X037385Y022656D01*
X037387Y022655D01*
X036363Y022656D02*
X036363Y023228D01*
X036364Y023235D01*
X036369Y023241D01*
X036375Y023246D01*
X036382Y023247D01*
X036382Y021247D02*
X036390Y021245D01*
X036397Y021241D01*
X036401Y021234D01*
X036403Y021226D01*
X036402Y021226D02*
X036402Y020648D01*
X037382Y020653D02*
X037382Y021247D01*
X037382Y020653D02*
X037383Y020651D01*
X037385Y020649D01*
X037387Y020648D01*
X037382Y019247D02*
X037382Y018723D01*
X037383Y018721D01*
X037385Y018719D01*
X037387Y018718D01*
X036402Y018719D02*
X036402Y019226D01*
X036403Y019226D02*
X036401Y019234D01*
X036397Y019241D01*
X036390Y019245D01*
X036382Y019247D01*
X035382Y019247D02*
X035371Y019246D01*
X035361Y019241D01*
X035352Y019235D01*
X035346Y019226D01*
X035341Y019216D01*
X035340Y019205D01*
X035339Y019205D02*
X035300Y018679D01*
X034355Y018640D02*
X034394Y019234D01*
X034395Y019234D02*
X034394Y019239D01*
X034391Y019243D01*
X034387Y019246D01*
X034382Y019247D01*
X033410Y019219D02*
X033410Y018679D01*
X033411Y019219D02*
X033410Y019228D01*
X033405Y019236D01*
X033399Y019242D01*
X033391Y019247D01*
X033382Y019248D01*
X032426Y019203D02*
X032426Y018679D01*
X032426Y019203D02*
X032425Y019214D01*
X032420Y019225D01*
X032413Y019234D01*
X032404Y019241D01*
X032393Y019246D01*
X032382Y019247D01*
X031382Y019247D02*
X031375Y019246D01*
X031369Y019241D01*
X031364Y019235D01*
X031363Y019228D01*
X031363Y018719D01*
X030379Y018679D02*
X030382Y019247D01*
X029382Y019247D02*
X029382Y018771D01*
X029434Y018719D01*
X029394Y020648D02*
X029382Y020660D01*
X029382Y021247D01*
X028410Y021219D02*
X028410Y020648D01*
X028410Y021219D02*
X028382Y021247D01*
X030382Y021247D02*
X030379Y020648D01*
X031363Y020726D02*
X031363Y021228D01*
X031364Y021235D01*
X031369Y021241D01*
X031375Y021246D01*
X031382Y021247D01*
X032382Y021247D02*
X032393Y021246D01*
X032404Y021241D01*
X032413Y021234D01*
X032420Y021225D01*
X032425Y021214D01*
X032426Y021203D01*
X032426Y020648D01*
X033410Y020648D02*
X033410Y021219D01*
X033411Y021219D02*
X033410Y021228D01*
X033405Y021236D01*
X033399Y021242D01*
X033391Y021247D01*
X033382Y021248D01*
X034382Y021247D02*
X034387Y021246D01*
X034391Y021243D01*
X034394Y021239D01*
X034395Y021234D01*
X034394Y021234D02*
X034394Y020687D01*
X035379Y020687D02*
X035379Y021244D01*
X035379Y021246D01*
X035381Y021247D01*
X035382Y021247D01*
X033410Y024703D02*
X033410Y025219D01*
X033411Y025219D02*
X033410Y025228D01*
X033405Y025236D01*
X033399Y025242D01*
X033391Y025247D01*
X033382Y025248D01*
X032382Y025247D02*
X032382Y024663D01*
X032426Y024663D01*
X031402Y024703D02*
X031402Y025226D01*
X031403Y025226D02*
X031401Y025234D01*
X031397Y025241D01*
X031390Y025245D01*
X031382Y025247D01*
X030382Y025247D02*
X030418Y024663D01*
X030615Y035884D02*
X030613Y035911D01*
X030607Y035938D01*
X030598Y035963D01*
X030585Y035987D01*
X030569Y036008D01*
X030549Y036028D01*
X030528Y036044D01*
X030504Y036057D01*
X030479Y036066D01*
X030452Y036072D01*
X030425Y036074D01*
X030418Y036671D02*
X030382Y036708D01*
X030382Y037247D01*
X031382Y037247D02*
X031402Y037226D01*
X031402Y036711D01*
X032382Y036716D02*
X032382Y037247D01*
X032382Y036716D02*
X032426Y036671D01*
X033371Y036593D02*
X033371Y037236D01*
X033382Y037247D01*
X031954Y038719D02*
X026796Y038758D01*
X024749Y039781D02*
X040143Y039781D01*
X029394Y037234D02*
X029394Y036632D01*
X029394Y037234D02*
X029382Y037247D01*
X026440Y035648D02*
X026349Y035636D01*
D12*
X024560Y016451D02*
X024040Y016451D01*
X024040Y015451D02*
X024560Y015451D01*
X024560Y014451D02*
X024040Y014451D01*
X024040Y013451D02*
X024560Y013451D01*
X024560Y012451D02*
X024040Y012451D01*
X024040Y011451D02*
X024560Y011451D01*
D13*
X028382Y019247D03*
X028382Y020074D03*
X029382Y020074D03*
X029382Y019247D03*
X030382Y019247D03*
X030382Y020074D03*
X031382Y020074D03*
X031382Y019247D03*
X032382Y019247D03*
X032382Y020074D03*
X033382Y020074D03*
X033382Y019247D03*
X034382Y019247D03*
X034382Y020074D03*
X035382Y020074D03*
X035382Y019247D03*
X036382Y019247D03*
X036382Y020074D03*
X037382Y020074D03*
X037382Y019247D03*
X037382Y021247D03*
X037382Y022074D03*
X036382Y022074D03*
X036382Y021247D03*
X035382Y021247D03*
X035382Y022074D03*
X034382Y022074D03*
X034382Y021247D03*
X033382Y021247D03*
X033382Y022074D03*
X032382Y022074D03*
X032382Y021247D03*
X031382Y021247D03*
X031382Y022074D03*
X030382Y022074D03*
X030382Y021247D03*
X029382Y021247D03*
X029382Y022074D03*
X028382Y022074D03*
X028382Y021247D03*
X028382Y023247D03*
X028382Y024074D03*
X029382Y024074D03*
X029382Y023247D03*
X030382Y023247D03*
X030382Y024074D03*
X031382Y024074D03*
X031382Y023247D03*
X032382Y023247D03*
X032382Y024074D03*
X033382Y024074D03*
X033382Y023247D03*
X034382Y023247D03*
X034382Y024074D03*
X035382Y024074D03*
X035382Y023247D03*
X036382Y023247D03*
X036382Y024074D03*
X037382Y024074D03*
X037382Y023247D03*
X037382Y025247D03*
X037382Y026074D03*
X036382Y026074D03*
X036382Y025247D03*
X035382Y025247D03*
X035382Y026074D03*
X034382Y026074D03*
X034382Y025247D03*
X033382Y025247D03*
X033382Y026074D03*
X032382Y026074D03*
X032382Y025247D03*
X031382Y025247D03*
X031382Y026074D03*
X030382Y026074D03*
X030382Y025247D03*
X029382Y025247D03*
X029382Y026074D03*
X028382Y026074D03*
X028382Y025247D03*
X028382Y027247D03*
X028382Y028074D03*
X029382Y028074D03*
X029382Y027247D03*
X030382Y027247D03*
X030382Y028074D03*
X031382Y028074D03*
X031382Y027247D03*
X032382Y027247D03*
X032382Y028074D03*
X033382Y028074D03*
X033382Y027247D03*
X034382Y027247D03*
X034382Y028074D03*
X035382Y028074D03*
X035382Y027247D03*
X036382Y027247D03*
X036382Y028074D03*
X037382Y028074D03*
X037382Y027247D03*
X037382Y029247D03*
X037382Y030074D03*
X036382Y030074D03*
X036382Y029247D03*
X035382Y029247D03*
X035382Y030074D03*
X034382Y030074D03*
X034382Y029247D03*
X033382Y029247D03*
X033382Y030074D03*
X032382Y030074D03*
X032382Y029247D03*
X031382Y029247D03*
X031382Y030074D03*
X030382Y030074D03*
X030382Y029247D03*
X029382Y029247D03*
X029382Y030074D03*
X028382Y030074D03*
X028382Y029247D03*
X028382Y031247D03*
X028382Y032074D03*
X029382Y032074D03*
X029382Y031247D03*
X030382Y031247D03*
X030382Y032074D03*
X031382Y032074D03*
X031382Y031247D03*
X032382Y031247D03*
X032382Y032074D03*
X033382Y032074D03*
X033382Y031247D03*
X034382Y031247D03*
X034382Y032074D03*
X035382Y032074D03*
X035382Y031247D03*
X036382Y031247D03*
X036382Y032074D03*
X037382Y032074D03*
X037382Y031247D03*
X037382Y033247D03*
X037382Y034074D03*
X036382Y034074D03*
X036382Y033247D03*
X035382Y033247D03*
X035382Y034074D03*
X034382Y034074D03*
X034382Y033247D03*
X033382Y033247D03*
X033382Y034074D03*
X032382Y034074D03*
X032382Y033247D03*
X031382Y033247D03*
X031382Y034074D03*
X030382Y034074D03*
X030382Y033247D03*
X029382Y033247D03*
X029382Y034074D03*
X028382Y034074D03*
X028382Y033247D03*
X028382Y035247D03*
X028382Y036074D03*
X029382Y036074D03*
X029382Y035247D03*
X030382Y035247D03*
X030382Y036074D03*
X031382Y036074D03*
X031382Y035247D03*
X032382Y035247D03*
X032382Y036074D03*
X033382Y036074D03*
X033382Y035247D03*
X034382Y035247D03*
X034382Y036074D03*
X035382Y036074D03*
X035382Y035247D03*
X036382Y035247D03*
X036382Y036074D03*
X037382Y036074D03*
X037382Y035247D03*
X037382Y037247D03*
X037382Y038074D03*
X036382Y038074D03*
X036382Y037247D03*
X035382Y037247D03*
X035382Y038074D03*
X034382Y038074D03*
X034382Y037247D03*
X033382Y037247D03*
X033382Y038074D03*
X032382Y038074D03*
X032382Y037247D03*
X031382Y037247D03*
X031382Y038074D03*
X030382Y038074D03*
X030382Y037247D03*
X029382Y037247D03*
X029382Y038074D03*
X028382Y038074D03*
X028382Y037247D03*
D14*
X026649Y037636D02*
X026049Y037636D01*
X026049Y036636D02*
X026649Y036636D01*
X026649Y035636D02*
X026049Y035636D01*
X026049Y034636D02*
X026649Y034636D01*
X026649Y033636D02*
X026049Y033636D01*
X026049Y032636D02*
X026649Y032636D01*
X026649Y031636D02*
X026049Y031636D01*
X026049Y030636D02*
X026649Y030636D01*
X026649Y029636D02*
X026049Y029636D01*
X026049Y028636D02*
X026649Y028636D01*
X020600Y023451D02*
X020000Y023451D01*
X020000Y022451D02*
X020600Y022451D01*
X020600Y021451D02*
X020000Y021451D01*
X020000Y020451D02*
X020600Y020451D01*
X020600Y019451D02*
X020000Y019451D01*
X020000Y018451D02*
X020600Y018451D01*
X020600Y017451D02*
X020000Y017451D01*
X020000Y016451D02*
X020600Y016451D01*
X020600Y015451D02*
X020000Y015451D01*
X020000Y014451D02*
X020600Y014451D01*
X008100Y014451D02*
X007500Y014451D01*
X007500Y015451D02*
X008100Y015451D01*
X008100Y016451D02*
X007500Y016451D01*
X007500Y017451D02*
X008100Y017451D01*
X008100Y018451D02*
X007500Y018451D01*
X007500Y019451D02*
X008100Y019451D01*
X008100Y020451D02*
X007500Y020451D01*
X007500Y021451D02*
X008100Y021451D01*
X008100Y022451D02*
X007500Y022451D01*
X007500Y023451D02*
X008100Y023451D01*
X003600Y017951D02*
X003000Y017951D01*
X003000Y016951D02*
X003600Y016951D01*
X003600Y015951D02*
X003000Y015951D01*
X003870Y010935D02*
X004470Y010935D01*
X004470Y009935D02*
X003870Y009935D01*
X003870Y008935D02*
X004470Y008935D01*
X038582Y028660D02*
X039182Y028660D01*
X039182Y029660D02*
X038582Y029660D01*
X038582Y030660D02*
X039182Y030660D01*
X039182Y031660D02*
X038582Y031660D01*
X038582Y032660D02*
X039182Y032660D01*
X039182Y033660D02*
X038582Y033660D01*
X038582Y034660D02*
X039182Y034660D01*
X039182Y035660D02*
X038582Y035660D01*
X038582Y036660D02*
X039182Y036660D01*
X039182Y037660D02*
X038582Y037660D01*
D15*
X004300Y014451D03*
X004300Y013451D03*
X004300Y012451D03*
D16*
X006700Y014451D03*
X006900Y014451D03*
X006900Y015451D03*
X006700Y015451D03*
X006700Y016451D03*
X006900Y016451D03*
X006900Y017451D03*
X006700Y017451D03*
X006700Y018451D03*
X006900Y018451D03*
X006900Y019451D03*
X006700Y019451D03*
X006700Y020451D03*
X006900Y020451D03*
X006900Y021451D03*
X006700Y021451D03*
X006700Y022451D03*
X006900Y022451D03*
X006900Y023451D03*
X006700Y023451D03*
X021200Y023451D03*
X021400Y023451D03*
X021400Y022451D03*
X021200Y022451D03*
X021200Y021451D03*
X021400Y021451D03*
X021400Y020451D03*
X021200Y020451D03*
X021200Y019451D03*
X021400Y019451D03*
X021400Y018451D03*
X021200Y018451D03*
X021200Y017451D03*
X021400Y017451D03*
X021400Y016451D03*
X021200Y016451D03*
X021200Y015451D03*
X021400Y015451D03*
X021400Y014451D03*
X021200Y014451D03*
D17*
X021600Y014730D02*
X021606Y014732D01*
X021688Y014814D01*
X021732Y014921D01*
X021732Y015467D01*
X021696Y015555D01*
X021696Y015583D01*
X021659Y015671D01*
X021591Y015739D01*
X021526Y015766D01*
X021546Y015787D01*
X021646Y015887D01*
X021690Y015993D01*
X021690Y016306D01*
X021696Y016318D01*
X021696Y016583D01*
X021659Y016671D01*
X021595Y016736D01*
X021606Y016740D01*
X021688Y016822D01*
X021732Y016929D01*
X021732Y017467D01*
X021696Y017555D01*
X021696Y017583D01*
X021659Y017671D01*
X021591Y017739D01*
X021556Y017754D01*
X021569Y017767D01*
X021688Y017885D01*
X021732Y017992D01*
X021732Y018467D01*
X021696Y018555D01*
X021696Y018583D01*
X021659Y018671D01*
X021591Y018739D01*
X021512Y018772D01*
X021569Y018830D01*
X021688Y018948D01*
X021732Y019055D01*
X021732Y019467D01*
X021696Y019555D01*
X021696Y019583D01*
X021659Y019671D01*
X021622Y019709D01*
X021688Y019775D01*
X021732Y019881D01*
X021732Y020467D01*
X021696Y020555D01*
X021696Y020583D01*
X021659Y020671D01*
X021591Y020739D01*
X021526Y020766D01*
X021546Y020787D01*
X021646Y020887D01*
X021690Y020993D01*
X021690Y021306D01*
X021696Y021318D01*
X021696Y021583D01*
X021659Y021671D01*
X021591Y021739D01*
X021526Y021766D01*
X021546Y021787D01*
X021646Y021887D01*
X021690Y021993D01*
X021690Y022306D01*
X021696Y022318D01*
X021696Y022583D01*
X021659Y022671D01*
X021591Y022739D01*
X021526Y022766D01*
X021546Y022787D01*
X021646Y022887D01*
X021690Y022993D01*
X021690Y023306D01*
X021696Y023318D01*
X021696Y023583D01*
X021659Y023671D01*
X021591Y023739D01*
X021503Y023775D01*
X021097Y023775D01*
X021056Y023759D01*
X020906Y023909D01*
X020707Y023991D01*
X019893Y023991D01*
X019694Y023909D01*
X019590Y023804D01*
X019590Y024508D01*
X019546Y024615D01*
X019046Y025115D01*
X018964Y025197D01*
X018858Y025241D01*
X015742Y025241D01*
X015636Y025197D01*
X015328Y024889D01*
X015054Y024889D01*
X014966Y024852D01*
X014898Y024785D01*
X014862Y024697D01*
X014862Y024245D01*
X014003Y024245D01*
X013566Y024682D01*
X013484Y024764D01*
X013377Y024808D01*
X012475Y024808D01*
X012465Y024832D01*
X012398Y024900D01*
X012310Y024936D01*
X011857Y024936D01*
X011769Y024900D01*
X011702Y024832D01*
X011675Y024768D01*
X011675Y024771D01*
X011639Y024860D01*
X011571Y024927D01*
X011483Y024964D01*
X011031Y024964D01*
X010942Y024927D01*
X010875Y024860D01*
X010355Y024860D01*
X010407Y024793D02*
X010339Y024726D01*
X010303Y024638D01*
X010303Y024369D01*
X010157Y024369D01*
X010157Y024661D01*
X010656Y025161D01*
X011908Y025161D01*
X011918Y025136D01*
X011986Y025069D01*
X012074Y025032D01*
X012526Y025032D01*
X012614Y025069D01*
X012682Y025136D01*
X012718Y025225D01*
X012718Y025661D01*
X013180Y025661D01*
X013582Y025258D01*
X013582Y024910D01*
X013619Y024821D01*
X013686Y024754D01*
X013775Y024717D01*
X014227Y024717D01*
X014315Y024754D01*
X014383Y024821D01*
X014419Y024910D01*
X014419Y025362D01*
X014383Y025450D01*
X014315Y025518D01*
X014227Y025554D01*
X014107Y025554D01*
X013464Y026197D01*
X013358Y026241D01*
X010242Y026241D01*
X010136Y026197D01*
X010054Y026115D01*
X008680Y024741D01*
X007242Y024741D01*
X007136Y024697D01*
X007054Y024615D01*
X006054Y023615D01*
X006010Y023508D01*
X006010Y022793D01*
X006054Y022686D01*
X006136Y022605D01*
X006404Y022336D01*
X006404Y022318D01*
X006441Y022230D01*
X006509Y022163D01*
X006597Y022126D01*
X007003Y022126D01*
X007044Y022143D01*
X007194Y021993D01*
X007296Y021951D01*
X007194Y021909D01*
X007044Y021759D01*
X007003Y021775D01*
X006597Y021775D01*
X006509Y021739D01*
X006441Y021671D01*
X006404Y021583D01*
X006404Y021566D01*
X004079Y019241D01*
X002742Y019241D01*
X002636Y019197D01*
X002136Y018697D01*
X002136Y018697D01*
X002054Y018615D01*
X002010Y018508D01*
X002010Y014393D01*
X002054Y014287D01*
X003010Y013331D01*
X003010Y007893D01*
X003054Y007787D01*
X003554Y007287D01*
X003636Y007205D01*
X003742Y007161D01*
X004680Y007161D01*
X006964Y004877D01*
X007045Y004795D01*
X007152Y004751D01*
X008872Y004751D01*
X008891Y004707D01*
X008958Y004640D01*
X009046Y004603D01*
X009538Y004603D01*
X009626Y004640D01*
X009694Y004707D01*
X009730Y004795D01*
X009730Y005287D01*
X009694Y005375D01*
X009668Y005402D01*
X009674Y005408D01*
X009711Y005496D01*
X009711Y005988D01*
X009674Y006076D01*
X009648Y006102D01*
X009682Y006136D01*
X009718Y006225D01*
X009718Y006677D01*
X009682Y006765D01*
X009614Y006833D01*
X009526Y006869D01*
X009074Y006869D01*
X008986Y006833D01*
X008918Y006765D01*
X008908Y006741D01*
X008704Y006741D01*
X008713Y006751D01*
X008750Y006839D01*
X008750Y007291D01*
X008713Y007379D01*
X008646Y007447D01*
X008621Y007457D01*
X008621Y009012D01*
X008577Y009119D01*
X008496Y009201D01*
X007440Y010256D01*
X007440Y010262D01*
X009931Y007772D01*
X009931Y006653D01*
X009975Y006546D01*
X012293Y004228D01*
X012293Y002755D01*
X012338Y002649D01*
X013046Y001940D01*
X013128Y001858D01*
X013234Y001814D01*
X014058Y001814D01*
X014165Y001858D01*
X014464Y002158D01*
X014546Y002239D01*
X014590Y002346D01*
X014590Y002531D01*
X014634Y002549D01*
X014702Y002617D01*
X014738Y002705D01*
X014738Y003161D01*
X014880Y003161D01*
X014898Y003117D01*
X014966Y003049D01*
X015054Y003013D01*
X015546Y003013D01*
X015634Y003049D01*
X015702Y003117D01*
X015738Y003205D01*
X015738Y003697D01*
X015702Y003785D01*
X015634Y003852D01*
X015546Y003889D01*
X015054Y003889D01*
X014966Y003852D01*
X014898Y003785D01*
X014880Y003741D01*
X014074Y003741D01*
X010994Y006821D01*
X013854Y006821D01*
X013930Y006897D01*
X013930Y007226D01*
X016140Y006342D01*
X016140Y005500D01*
X015440Y004462D01*
X015404Y004427D01*
X015404Y004409D01*
X015394Y004395D01*
X015404Y004345D01*
X015404Y004294D01*
X015416Y004282D01*
X015419Y004265D01*
X015462Y004236D01*
X016410Y003288D01*
X016411Y003279D01*
X016456Y003242D01*
X016498Y003200D01*
X016507Y003200D01*
X016514Y003195D01*
X016572Y003200D01*
X016630Y003200D01*
X016636Y003207D01*
X018686Y003409D01*
X018741Y003406D01*
X018750Y003415D01*
X018764Y003416D01*
X018798Y003458D01*
X021387Y005814D01*
X021422Y005828D01*
X021434Y005856D01*
X021457Y005877D01*
X021459Y005915D01*
X021790Y006714D01*
X021814Y006739D01*
X021814Y006773D01*
X021828Y006805D01*
X021814Y006837D01*
X021814Y006871D01*
X021790Y006896D01*
X021777Y006928D01*
X021745Y006941D01*
X019810Y008875D01*
X019810Y008881D01*
X019764Y008922D01*
X019721Y008965D01*
X019715Y008965D01*
X019711Y008969D01*
X019649Y008965D01*
X019588Y008965D01*
X019584Y008961D01*
X013930Y008619D01*
X013930Y010005D01*
X013854Y010081D01*
X010746Y010081D01*
X010670Y010005D01*
X010670Y008491D01*
X008148Y011013D01*
X008546Y011013D01*
X008634Y011049D01*
X008702Y011117D01*
X008720Y011161D01*
X018326Y011161D01*
X018433Y011205D01*
X019554Y012326D01*
X020082Y012326D01*
X020189Y012370D01*
X020270Y012452D01*
X021688Y013869D01*
X021732Y013976D01*
X021732Y014467D01*
X021696Y014555D01*
X021696Y014583D01*
X021659Y014671D01*
X021600Y014730D01*
X021615Y014716D02*
X023609Y014716D01*
X023616Y014734D02*
X023540Y014550D01*
X023540Y014351D01*
X023616Y014168D01*
X023757Y014027D01*
X023941Y013951D01*
X024659Y013951D01*
X024843Y014027D01*
X024984Y014168D01*
X025060Y014351D01*
X025060Y014550D01*
X024984Y014734D01*
X024843Y014875D01*
X024659Y014951D01*
X024843Y015027D01*
X024984Y015168D01*
X025060Y015351D01*
X025060Y015550D01*
X024984Y015734D01*
X024843Y015875D01*
X024659Y015951D01*
X024843Y016027D01*
X024984Y016168D01*
X025060Y016351D01*
X025060Y016550D01*
X024984Y016734D01*
X024843Y016875D01*
X024659Y016951D01*
X023941Y016951D01*
X023757Y016875D01*
X023616Y016734D01*
X023540Y016550D01*
X023540Y016351D01*
X023616Y016168D01*
X023757Y016027D01*
X023941Y015951D01*
X024659Y015951D01*
X023941Y015951D01*
X023757Y015875D01*
X023616Y015734D01*
X023540Y015550D01*
X023540Y015351D01*
X023616Y015168D01*
X023757Y015027D01*
X023941Y014951D01*
X024659Y014951D01*
X023941Y014951D01*
X023757Y014875D01*
X023616Y014734D01*
X023543Y014557D02*
X021696Y014557D01*
X021732Y014399D02*
X023540Y014399D01*
X023586Y014240D02*
X021732Y014240D01*
X021732Y014082D02*
X023702Y014082D01*
X023757Y013875D02*
X023616Y013734D01*
X023540Y013550D01*
X023540Y013351D01*
X023616Y013168D01*
X023757Y013027D01*
X023941Y012951D01*
X024659Y012951D01*
X024843Y013027D01*
X024984Y013168D01*
X025060Y013351D01*
X025060Y013550D01*
X024984Y013734D01*
X024843Y013875D01*
X024659Y013951D01*
X023941Y013951D01*
X023757Y013875D01*
X023874Y013923D02*
X021710Y013923D01*
X021583Y013765D02*
X023647Y013765D01*
X023563Y013606D02*
X021425Y013606D01*
X021266Y013448D02*
X023540Y013448D01*
X023566Y013289D02*
X021108Y013289D01*
X020949Y013131D02*
X023653Y013131D01*
X023757Y012875D02*
X023616Y012734D01*
X023540Y012550D01*
X023540Y012351D01*
X023616Y012168D01*
X023757Y012027D01*
X023941Y011951D01*
X024659Y011951D01*
X024843Y012027D01*
X024984Y012168D01*
X025060Y012351D01*
X025060Y012550D01*
X024984Y012734D01*
X024843Y012875D01*
X024659Y012951D01*
X023941Y012951D01*
X023757Y012875D01*
X023696Y012814D02*
X020632Y012814D01*
X020474Y012655D02*
X023584Y012655D01*
X023540Y012497D02*
X020315Y012497D01*
X020111Y012338D02*
X023545Y012338D01*
X023611Y012180D02*
X019408Y012180D01*
X019249Y012021D02*
X023770Y012021D01*
X023871Y011859D02*
X023809Y011827D01*
X023753Y011786D01*
X023704Y011737D01*
X023664Y011681D01*
X023632Y011620D01*
X023611Y011554D01*
X023600Y011485D01*
X023600Y011451D01*
X024300Y011451D01*
X024300Y011891D01*
X024005Y011891D01*
X023937Y011880D01*
X023871Y011859D01*
X023884Y011863D02*
X019091Y011863D01*
X018932Y011704D02*
X023680Y011704D01*
X023610Y011546D02*
X018774Y011546D01*
X018615Y011387D02*
X023605Y011387D01*
X023600Y011416D02*
X023611Y011348D01*
X023632Y011282D01*
X023664Y011220D01*
X023704Y011164D01*
X023753Y011115D01*
X023809Y011074D01*
X023871Y011043D01*
X023937Y011022D01*
X024005Y011011D01*
X024300Y011011D01*
X024595Y011011D01*
X024663Y011022D01*
X024729Y011043D01*
X024791Y011074D01*
X024847Y011115D01*
X024896Y011164D01*
X024936Y011220D01*
X024968Y011282D01*
X024989Y011348D01*
X025000Y011416D01*
X025000Y011451D01*
X025000Y011485D01*
X024989Y011554D01*
X024968Y011620D01*
X024936Y011681D01*
X024896Y011737D01*
X024847Y011786D01*
X024791Y011827D01*
X024729Y011859D01*
X024663Y011880D01*
X024595Y011891D01*
X024300Y011891D01*
X024300Y011451D01*
X024300Y011451D01*
X024300Y011451D01*
X025000Y011451D01*
X024300Y011451D01*
X024300Y011451D01*
X023600Y011451D01*
X023600Y011416D01*
X023659Y011229D02*
X018457Y011229D01*
X017769Y008851D02*
X013930Y008851D01*
X013930Y008693D02*
X015150Y008693D01*
X013930Y009010D02*
X026800Y009010D01*
X026800Y009168D02*
X013930Y009168D01*
X013930Y009327D02*
X026800Y009327D01*
X026800Y009485D02*
X013930Y009485D01*
X013930Y009644D02*
X026800Y009644D01*
X026800Y009802D02*
X013930Y009802D01*
X013930Y009961D02*
X026800Y009961D01*
X026800Y010119D02*
X009042Y010119D01*
X009200Y009961D02*
X010670Y009961D01*
X010670Y009802D02*
X009359Y009802D01*
X009517Y009644D02*
X010670Y009644D01*
X010670Y009485D02*
X009676Y009485D01*
X009834Y009327D02*
X010670Y009327D01*
X010670Y009168D02*
X009993Y009168D01*
X010151Y009010D02*
X010670Y009010D01*
X010670Y008851D02*
X010310Y008851D01*
X010468Y008693D02*
X010670Y008693D01*
X010670Y008534D02*
X010627Y008534D01*
X009803Y007900D02*
X008621Y007900D01*
X008621Y007742D02*
X009931Y007742D01*
X009931Y007583D02*
X008621Y007583D01*
X008668Y007425D02*
X009931Y007425D01*
X009931Y007266D02*
X008750Y007266D01*
X008750Y007108D02*
X009931Y007108D01*
X009931Y006949D02*
X008750Y006949D01*
X008730Y006791D02*
X008944Y006791D01*
X009656Y006791D02*
X009931Y006791D01*
X009940Y006632D02*
X009718Y006632D01*
X009718Y006474D02*
X010048Y006474D01*
X010206Y006315D02*
X009718Y006315D01*
X009690Y006157D02*
X010365Y006157D01*
X010523Y005998D02*
X009706Y005998D01*
X009711Y005840D02*
X010682Y005840D01*
X010840Y005681D02*
X009711Y005681D01*
X009711Y005523D02*
X010999Y005523D01*
X011157Y005364D02*
X009698Y005364D01*
X009730Y005206D02*
X011316Y005206D01*
X011474Y005047D02*
X009730Y005047D01*
X009730Y004889D02*
X011633Y004889D01*
X011791Y004730D02*
X009703Y004730D01*
X008881Y004730D02*
X001300Y004730D01*
X001300Y004572D02*
X011950Y004572D01*
X012108Y004413D02*
X001300Y004413D01*
X001300Y004255D02*
X012267Y004255D01*
X012293Y004096D02*
X001300Y004096D01*
X001300Y003938D02*
X012293Y003938D01*
X012293Y003779D02*
X012204Y003779D01*
X012202Y003785D02*
X012134Y003852D01*
X012046Y003889D01*
X011554Y003889D01*
X011466Y003852D01*
X011398Y003785D01*
X011362Y003697D01*
X011362Y003389D01*
X011054Y003389D01*
X010966Y003352D01*
X010898Y003285D01*
X010862Y003197D01*
X010862Y002705D01*
X010898Y002617D01*
X010966Y002549D01*
X011054Y002513D01*
X011546Y002513D01*
X011634Y002549D01*
X011702Y002617D01*
X011738Y002705D01*
X011738Y003013D01*
X012046Y003013D01*
X012134Y003049D01*
X012202Y003117D01*
X012238Y003205D01*
X012238Y003697D01*
X012202Y003785D01*
X012238Y003621D02*
X012293Y003621D01*
X012293Y003462D02*
X012238Y003462D01*
X012238Y003304D02*
X012293Y003304D01*
X012293Y003145D02*
X012213Y003145D01*
X012293Y002987D02*
X011738Y002987D01*
X011738Y002828D02*
X012293Y002828D01*
X012329Y002670D02*
X011724Y002670D01*
X012475Y002511D02*
X001300Y002511D01*
X001300Y002353D02*
X012634Y002353D01*
X012792Y002194D02*
X001300Y002194D01*
X001300Y002036D02*
X012951Y002036D01*
X013109Y001877D02*
X001300Y001877D01*
X001300Y001719D02*
X026800Y001719D01*
X026800Y001877D02*
X014184Y001877D01*
X014342Y002036D02*
X026800Y002036D01*
X026800Y002194D02*
X014501Y002194D01*
X014590Y002353D02*
X026800Y002353D01*
X026800Y002511D02*
X014590Y002511D01*
X014724Y002670D02*
X026800Y002670D01*
X026800Y002828D02*
X014738Y002828D01*
X014738Y002987D02*
X026800Y002987D01*
X026800Y003145D02*
X015713Y003145D01*
X015738Y003304D02*
X016394Y003304D01*
X016235Y003462D02*
X015738Y003462D01*
X015738Y003621D02*
X016077Y003621D01*
X015918Y003779D02*
X015704Y003779D01*
X015760Y003938D02*
X013877Y003938D01*
X014035Y003779D02*
X014896Y003779D01*
X014887Y003145D02*
X014738Y003145D01*
X013862Y003145D02*
X012873Y003145D01*
X012873Y002987D02*
X013862Y002987D01*
X013862Y002828D02*
X012978Y002828D01*
X012873Y002933D02*
X012873Y004121D01*
X013708Y003287D01*
X013789Y003205D01*
X013862Y003175D01*
X013862Y002705D01*
X013898Y002617D01*
X013966Y002549D01*
X014010Y002531D01*
X014010Y002524D01*
X013881Y002394D01*
X013412Y002394D01*
X012873Y002933D01*
X012873Y003304D02*
X013690Y003304D01*
X013532Y003462D02*
X012873Y003462D01*
X012873Y003621D02*
X013373Y003621D01*
X013215Y003779D02*
X012873Y003779D01*
X012873Y003938D02*
X013056Y003938D01*
X012898Y004096D02*
X012873Y004096D01*
X013243Y004572D02*
X015514Y004572D01*
X015621Y004730D02*
X013084Y004730D01*
X012926Y004889D02*
X015728Y004889D01*
X015835Y005047D02*
X012767Y005047D01*
X012609Y005206D02*
X015942Y005206D01*
X016049Y005364D02*
X012450Y005364D01*
X012292Y005523D02*
X016140Y005523D01*
X016140Y005681D02*
X012133Y005681D01*
X011975Y005840D02*
X016140Y005840D01*
X016140Y005998D02*
X011816Y005998D01*
X011658Y006157D02*
X016140Y006157D01*
X016140Y006315D02*
X011499Y006315D01*
X011341Y006474D02*
X015812Y006474D01*
X015415Y006632D02*
X011182Y006632D01*
X011024Y006791D02*
X015019Y006791D01*
X014623Y006949D02*
X013930Y006949D01*
X013930Y007108D02*
X014227Y007108D01*
X013401Y004413D02*
X015404Y004413D01*
X015434Y004255D02*
X013560Y004255D01*
X013718Y004096D02*
X015601Y004096D01*
X013876Y002670D02*
X013137Y002670D01*
X013295Y002511D02*
X013998Y002511D01*
X011362Y003462D02*
X001300Y003462D01*
X001300Y003304D02*
X010917Y003304D01*
X010862Y003145D02*
X001300Y003145D01*
X001300Y002987D02*
X010862Y002987D01*
X010862Y002828D02*
X001300Y002828D01*
X001300Y002670D02*
X010876Y002670D01*
X011362Y003621D02*
X001300Y003621D01*
X001300Y003779D02*
X011396Y003779D01*
X006952Y004889D02*
X001300Y004889D01*
X001300Y005047D02*
X006793Y005047D01*
X006635Y005206D02*
X001300Y005206D01*
X001300Y005364D02*
X006476Y005364D01*
X006318Y005523D02*
X001300Y005523D01*
X001300Y005681D02*
X006159Y005681D01*
X006001Y005840D02*
X001300Y005840D01*
X001300Y005998D02*
X005842Y005998D01*
X005684Y006157D02*
X001300Y006157D01*
X001300Y006315D02*
X005525Y006315D01*
X005367Y006474D02*
X001300Y006474D01*
X001300Y006632D02*
X005208Y006632D01*
X005050Y006791D02*
X001300Y006791D01*
X001300Y006949D02*
X004891Y006949D01*
X004733Y007108D02*
X001300Y007108D01*
X001300Y007266D02*
X003574Y007266D01*
X003416Y007425D02*
X001300Y007425D01*
X001300Y007583D02*
X003257Y007583D01*
X003099Y007742D02*
X001300Y007742D01*
X001300Y007900D02*
X003010Y007900D01*
X003010Y008059D02*
X001300Y008059D01*
X001300Y008217D02*
X003010Y008217D01*
X003010Y008376D02*
X001300Y008376D01*
X001300Y008534D02*
X003010Y008534D01*
X003010Y008693D02*
X001300Y008693D01*
X001300Y008851D02*
X003010Y008851D01*
X003010Y009010D02*
X001300Y009010D01*
X001300Y009168D02*
X003010Y009168D01*
X003010Y009327D02*
X001300Y009327D01*
X001300Y009485D02*
X003010Y009485D01*
X003010Y009644D02*
X001300Y009644D01*
X001300Y009802D02*
X003010Y009802D01*
X003010Y009961D02*
X001300Y009961D01*
X001300Y010119D02*
X003010Y010119D01*
X003010Y010278D02*
X001300Y010278D01*
X001300Y010436D02*
X003010Y010436D01*
X003010Y010595D02*
X001300Y010595D01*
X001300Y010753D02*
X003010Y010753D01*
X003010Y010912D02*
X001300Y010912D01*
X001300Y011070D02*
X003010Y011070D01*
X003010Y011229D02*
X001300Y011229D01*
X001300Y011387D02*
X003010Y011387D01*
X003010Y011546D02*
X001300Y011546D01*
X001300Y011704D02*
X003010Y011704D01*
X003010Y011863D02*
X001300Y011863D01*
X001300Y012021D02*
X003010Y012021D01*
X003010Y012180D02*
X001300Y012180D01*
X001300Y012338D02*
X003010Y012338D01*
X003010Y012497D02*
X001300Y012497D01*
X001300Y012655D02*
X003010Y012655D01*
X003010Y012814D02*
X001300Y012814D01*
X001300Y012972D02*
X003010Y012972D01*
X003010Y013131D02*
X001300Y013131D01*
X001300Y013289D02*
X003010Y013289D01*
X002893Y013448D02*
X001300Y013448D01*
X001300Y013606D02*
X002734Y013606D01*
X002576Y013765D02*
X001300Y013765D01*
X001300Y013923D02*
X002417Y013923D01*
X002259Y014082D02*
X001300Y014082D01*
X001300Y014240D02*
X002100Y014240D01*
X002010Y014399D02*
X001300Y014399D01*
X001300Y014557D02*
X002010Y014557D01*
X002010Y014716D02*
X001300Y014716D01*
X001300Y014874D02*
X002010Y014874D01*
X002010Y015033D02*
X001300Y015033D01*
X001300Y015191D02*
X002010Y015191D01*
X002010Y015350D02*
X001300Y015350D01*
X001300Y015508D02*
X002010Y015508D01*
X002010Y015667D02*
X001300Y015667D01*
X001300Y015825D02*
X002010Y015825D01*
X002010Y015984D02*
X001300Y015984D01*
X001300Y016142D02*
X002010Y016142D01*
X002010Y016301D02*
X001300Y016301D01*
X001300Y016459D02*
X002010Y016459D01*
X002010Y016618D02*
X001300Y016618D01*
X001300Y016776D02*
X002010Y016776D01*
X002010Y016935D02*
X001300Y016935D01*
X001300Y017093D02*
X002010Y017093D01*
X002010Y017252D02*
X001300Y017252D01*
X001300Y017410D02*
X002010Y017410D01*
X002010Y017569D02*
X001300Y017569D01*
X001300Y017727D02*
X002010Y017727D01*
X002010Y017886D02*
X001300Y017886D01*
X001300Y018044D02*
X002010Y018044D01*
X002010Y018203D02*
X001300Y018203D01*
X001300Y018361D02*
X002010Y018361D01*
X002015Y018520D02*
X001300Y018520D01*
X001300Y018678D02*
X002117Y018678D01*
X002276Y018837D02*
X001300Y018837D01*
X001300Y018995D02*
X002434Y018995D01*
X002593Y019154D02*
X001300Y019154D01*
X001300Y019312D02*
X004151Y019312D01*
X004310Y019471D02*
X001300Y019471D01*
X001300Y019629D02*
X004468Y019629D01*
X004627Y019788D02*
X001300Y019788D01*
X001300Y019946D02*
X004785Y019946D01*
X004944Y020105D02*
X001300Y020105D01*
X001300Y020263D02*
X005102Y020263D01*
X005261Y020422D02*
X001300Y020422D01*
X001300Y020580D02*
X005419Y020580D01*
X005578Y020739D02*
X001300Y020739D01*
X001300Y020897D02*
X005736Y020897D01*
X005895Y021056D02*
X001300Y021056D01*
X001300Y021214D02*
X006053Y021214D01*
X006212Y021373D02*
X001300Y021373D01*
X001300Y021531D02*
X006370Y021531D01*
X006459Y021690D02*
X001300Y021690D01*
X001300Y021848D02*
X007134Y021848D01*
X007180Y022007D02*
X001300Y022007D01*
X001300Y022165D02*
X006506Y022165D01*
X006404Y022324D02*
X001300Y022324D01*
X001300Y022482D02*
X006258Y022482D01*
X006099Y022641D02*
X001300Y022641D01*
X001300Y022799D02*
X006010Y022799D01*
X006010Y022958D02*
X001300Y022958D01*
X001300Y023116D02*
X006010Y023116D01*
X006010Y023275D02*
X001300Y023275D01*
X001300Y023433D02*
X006010Y023433D01*
X006045Y023592D02*
X001300Y023592D01*
X001300Y023750D02*
X006189Y023750D01*
X006348Y023909D02*
X001300Y023909D01*
X001300Y024067D02*
X006506Y024067D01*
X006665Y024226D02*
X001300Y024226D01*
X001300Y024384D02*
X006823Y024384D01*
X006982Y024543D02*
X001300Y024543D01*
X001300Y024701D02*
X007147Y024701D01*
X008799Y024860D02*
X001300Y024860D01*
X001300Y025018D02*
X008957Y025018D01*
X009116Y025177D02*
X001300Y025177D01*
X001300Y025335D02*
X009274Y025335D01*
X009433Y025494D02*
X001300Y025494D01*
X001300Y025652D02*
X009591Y025652D01*
X009750Y025811D02*
X001300Y025811D01*
X001300Y025969D02*
X009908Y025969D01*
X010067Y026128D02*
X001300Y026128D01*
X001300Y026286D02*
X024549Y026286D01*
X024549Y026128D02*
X013533Y026128D01*
X013692Y025969D02*
X024549Y025969D01*
X024549Y025811D02*
X013850Y025811D01*
X014009Y025652D02*
X024549Y025652D01*
X024549Y025494D02*
X014339Y025494D01*
X014419Y025335D02*
X024549Y025335D01*
X024549Y025177D02*
X018984Y025177D01*
X019143Y025018D02*
X024549Y025018D01*
X024549Y024860D02*
X019301Y024860D01*
X019460Y024701D02*
X024549Y024701D01*
X024549Y024543D02*
X019576Y024543D01*
X019590Y024384D02*
X024549Y024384D01*
X024549Y024226D02*
X019590Y024226D01*
X019590Y024067D02*
X024549Y024067D01*
X024549Y023909D02*
X020905Y023909D01*
X021564Y023750D02*
X024549Y023750D01*
X024549Y023592D02*
X021692Y023592D01*
X021696Y023433D02*
X024549Y023433D01*
X024549Y023275D02*
X021690Y023275D01*
X021690Y023116D02*
X024549Y023116D01*
X024549Y022958D02*
X021676Y022958D01*
X021559Y022799D02*
X024549Y022799D01*
X024549Y022641D02*
X021672Y022641D01*
X021696Y022482D02*
X024549Y022482D01*
X024549Y022324D02*
X021696Y022324D01*
X021690Y022165D02*
X024549Y022165D01*
X024549Y022007D02*
X021690Y022007D01*
X021608Y021848D02*
X024549Y021848D01*
X024549Y021725D02*
X024540Y021674D01*
X024549Y021660D01*
X024549Y021644D01*
X024586Y021608D01*
X026369Y019050D01*
X026669Y017326D01*
X026663Y017313D01*
X026680Y017262D01*
X026689Y017208D01*
X026700Y017201D01*
X026705Y017188D01*
X026753Y017163D01*
X026798Y017132D01*
X026800Y017133D01*
X026800Y000931D01*
X001300Y000931D01*
X001300Y026951D01*
X024510Y026951D01*
X024510Y026606D01*
X024501Y026553D01*
X024510Y026541D01*
X024510Y026526D01*
X024548Y026489D01*
X024549Y026486D01*
X024549Y021725D01*
X024543Y021690D02*
X021641Y021690D01*
X021696Y021531D02*
X024639Y021531D01*
X024750Y021373D02*
X021696Y021373D01*
X021690Y021214D02*
X024860Y021214D01*
X024971Y021056D02*
X021690Y021056D01*
X021651Y020897D02*
X025081Y020897D01*
X025192Y020739D02*
X021592Y020739D01*
X021696Y020580D02*
X025302Y020580D01*
X025413Y020422D02*
X021732Y020422D01*
X021732Y020263D02*
X025523Y020263D01*
X025634Y020105D02*
X021732Y020105D01*
X021732Y019946D02*
X025744Y019946D01*
X025855Y019788D02*
X021693Y019788D01*
X021676Y019629D02*
X025965Y019629D01*
X026076Y019471D02*
X021730Y019471D01*
X021732Y019312D02*
X026186Y019312D01*
X026296Y019154D02*
X021732Y019154D01*
X021707Y018995D02*
X026378Y018995D01*
X026406Y018837D02*
X021576Y018837D01*
X021569Y018830D02*
X021569Y018830D01*
X021652Y018678D02*
X026434Y018678D01*
X026461Y018520D02*
X021710Y018520D01*
X021732Y018361D02*
X026489Y018361D01*
X026516Y018203D02*
X021732Y018203D01*
X021732Y018044D02*
X026544Y018044D01*
X026571Y017886D02*
X021688Y017886D01*
X021603Y017727D02*
X026599Y017727D01*
X026626Y017569D02*
X021696Y017569D01*
X021732Y017410D02*
X026654Y017410D01*
X026682Y017252D02*
X021732Y017252D01*
X021732Y017093D02*
X026800Y017093D01*
X026800Y016935D02*
X024698Y016935D01*
X024942Y016776D02*
X026800Y016776D01*
X026800Y016618D02*
X025032Y016618D01*
X025060Y016459D02*
X026800Y016459D01*
X026800Y016301D02*
X025039Y016301D01*
X024959Y016142D02*
X026800Y016142D01*
X026800Y015984D02*
X024739Y015984D01*
X024893Y015825D02*
X026800Y015825D01*
X026800Y015667D02*
X025012Y015667D01*
X025060Y015508D02*
X026800Y015508D01*
X026800Y015350D02*
X025059Y015350D01*
X024994Y015191D02*
X026800Y015191D01*
X026800Y015033D02*
X024849Y015033D01*
X024844Y014874D02*
X026800Y014874D01*
X026800Y014716D02*
X024991Y014716D01*
X025057Y014557D02*
X026800Y014557D01*
X026800Y014399D02*
X025060Y014399D01*
X025014Y014240D02*
X026800Y014240D01*
X026800Y014082D02*
X024898Y014082D01*
X024726Y013923D02*
X026800Y013923D01*
X026800Y013765D02*
X024953Y013765D01*
X025037Y013606D02*
X026800Y013606D01*
X026800Y013448D02*
X025060Y013448D01*
X025034Y013289D02*
X026800Y013289D01*
X026800Y013131D02*
X024947Y013131D01*
X024711Y012972D02*
X026800Y012972D01*
X026800Y012814D02*
X024904Y012814D01*
X025016Y012655D02*
X026800Y012655D01*
X026800Y012497D02*
X025060Y012497D01*
X025055Y012338D02*
X026800Y012338D01*
X026800Y012180D02*
X024989Y012180D01*
X024830Y012021D02*
X026800Y012021D01*
X026800Y011863D02*
X024716Y011863D01*
X024920Y011704D02*
X026800Y011704D01*
X026800Y011546D02*
X024990Y011546D01*
X024995Y011387D02*
X026800Y011387D01*
X026800Y011229D02*
X024941Y011229D01*
X024782Y011070D02*
X026800Y011070D01*
X026800Y010912D02*
X008249Y010912D01*
X008408Y010753D02*
X026800Y010753D01*
X026800Y010595D02*
X008566Y010595D01*
X008725Y010436D02*
X026800Y010436D01*
X026800Y010278D02*
X008883Y010278D01*
X008655Y011070D02*
X023818Y011070D01*
X024300Y011070D02*
X024300Y011070D01*
X024300Y011011D02*
X024300Y011451D01*
X024300Y011451D01*
X024300Y011011D01*
X024300Y011229D02*
X024300Y011229D01*
X024300Y011387D02*
X024300Y011387D01*
X024300Y011546D02*
X024300Y011546D01*
X024300Y011704D02*
X024300Y011704D01*
X024300Y011863D02*
X024300Y011863D01*
X023889Y012972D02*
X020791Y012972D01*
X021713Y014874D02*
X023756Y014874D01*
X023751Y015033D02*
X021732Y015033D01*
X021732Y015191D02*
X023606Y015191D01*
X023541Y015350D02*
X021732Y015350D01*
X021715Y015508D02*
X023540Y015508D01*
X023588Y015667D02*
X021661Y015667D01*
X021585Y015825D02*
X023707Y015825D01*
X023861Y015984D02*
X021686Y015984D01*
X021690Y016142D02*
X023641Y016142D01*
X023561Y016301D02*
X021690Y016301D01*
X021696Y016459D02*
X023540Y016459D01*
X023568Y016618D02*
X021681Y016618D01*
X021642Y016776D02*
X023658Y016776D01*
X023902Y016935D02*
X021732Y016935D01*
X021546Y022787D02*
X021546Y022787D01*
X019695Y023909D02*
X019590Y023909D01*
X015616Y025177D02*
X014419Y025177D01*
X014419Y025018D02*
X015457Y025018D01*
X014984Y024860D02*
X014399Y024860D01*
X014864Y024701D02*
X013546Y024701D01*
X013603Y024860D02*
X012438Y024860D01*
X012699Y025177D02*
X013582Y025177D01*
X013582Y025018D02*
X010514Y025018D01*
X010495Y024830D02*
X010407Y024793D01*
X010495Y024830D02*
X010862Y024830D01*
X010875Y024860D01*
X010329Y024701D02*
X010197Y024701D01*
X010157Y024543D02*
X010303Y024543D01*
X010303Y024384D02*
X010157Y024384D01*
X011638Y024860D02*
X011729Y024860D01*
X012718Y025335D02*
X013505Y025335D01*
X013347Y025494D02*
X012718Y025494D01*
X012718Y025652D02*
X013188Y025652D01*
X013705Y024543D02*
X014862Y024543D01*
X014862Y024384D02*
X013863Y024384D01*
X007296Y016951D02*
X007194Y016909D01*
X007044Y016759D01*
X007003Y016775D01*
X006597Y016775D01*
X006509Y016739D01*
X006441Y016671D01*
X006404Y016583D01*
X006404Y016566D01*
X005636Y015797D01*
X005554Y015715D01*
X005510Y015609D01*
X005510Y011651D01*
X005090Y012071D01*
X005090Y015431D01*
X006785Y017126D01*
X007003Y017126D01*
X007044Y017143D01*
X007194Y016993D01*
X007296Y016951D01*
X007257Y016935D02*
X006594Y016935D01*
X006752Y017093D02*
X007094Y017093D01*
X007062Y016776D02*
X006435Y016776D01*
X006419Y016618D02*
X006277Y016618D01*
X006298Y016459D02*
X006118Y016459D01*
X006140Y016301D02*
X005960Y016301D01*
X005981Y016142D02*
X005801Y016142D01*
X005823Y015984D02*
X005643Y015984D01*
X005664Y015825D02*
X005484Y015825D01*
X005534Y015667D02*
X005326Y015667D01*
X005167Y015508D02*
X005510Y015508D01*
X005510Y015350D02*
X005090Y015350D01*
X005090Y015191D02*
X005510Y015191D01*
X005510Y015033D02*
X005090Y015033D01*
X005090Y014874D02*
X005510Y014874D01*
X005510Y014716D02*
X005090Y014716D01*
X005090Y014557D02*
X005510Y014557D01*
X005510Y014399D02*
X005090Y014399D01*
X005090Y014240D02*
X005510Y014240D01*
X005510Y014082D02*
X005090Y014082D01*
X005090Y013923D02*
X005510Y013923D01*
X005510Y013765D02*
X005090Y013765D01*
X005090Y013606D02*
X005510Y013606D01*
X005510Y013448D02*
X005090Y013448D01*
X005090Y013289D02*
X005510Y013289D01*
X005510Y013131D02*
X005090Y013131D01*
X005090Y012972D02*
X005510Y012972D01*
X005510Y012814D02*
X005090Y012814D01*
X005090Y012655D02*
X005510Y012655D01*
X005510Y012497D02*
X005090Y012497D01*
X005090Y012338D02*
X005510Y012338D01*
X005510Y012180D02*
X005090Y012180D01*
X005140Y012021D02*
X005510Y012021D01*
X005510Y011863D02*
X005298Y011863D01*
X005457Y011704D02*
X005510Y011704D01*
X004600Y011741D02*
X004420Y011741D01*
X004090Y012071D01*
X004090Y012110D01*
X004111Y012096D01*
X004183Y012066D01*
X004261Y012051D01*
X004300Y012051D01*
X004339Y012051D01*
X004417Y012066D01*
X004489Y012096D01*
X004510Y012110D01*
X004510Y011893D01*
X004554Y011787D01*
X004600Y011741D01*
X004523Y011863D02*
X004298Y011863D01*
X004300Y012051D02*
X004300Y012451D01*
X004300Y012851D01*
X004261Y012851D01*
X004183Y012835D01*
X004111Y012805D01*
X004090Y012792D01*
X004090Y013040D01*
X004208Y012991D01*
X004391Y012991D01*
X004510Y013040D01*
X004510Y012792D01*
X004489Y012805D01*
X004417Y012835D01*
X004339Y012851D01*
X004300Y012851D01*
X004300Y012451D01*
X004300Y012451D01*
X004300Y012451D01*
X004300Y012051D01*
X004300Y012180D02*
X004300Y012180D01*
X004300Y012338D02*
X004300Y012338D01*
X004300Y012497D02*
X004300Y012497D01*
X004300Y012655D02*
X004300Y012655D01*
X004300Y012814D02*
X004300Y012814D01*
X004131Y012814D02*
X004090Y012814D01*
X004090Y012972D02*
X004510Y012972D01*
X004510Y012814D02*
X004469Y012814D01*
X004510Y012021D02*
X004140Y012021D01*
X005590Y010751D02*
X006010Y010331D01*
X006010Y009571D01*
X005590Y009151D01*
X005590Y010751D01*
X005590Y010595D02*
X005746Y010595D01*
X005590Y010436D02*
X005904Y010436D01*
X006010Y010278D02*
X005590Y010278D01*
X005590Y010119D02*
X006010Y010119D01*
X006010Y009961D02*
X005590Y009961D01*
X005590Y009802D02*
X006010Y009802D01*
X006010Y009644D02*
X005590Y009644D01*
X005590Y009485D02*
X005924Y009485D01*
X005766Y009327D02*
X005590Y009327D01*
X005590Y009168D02*
X005607Y009168D01*
X004186Y009935D02*
X004170Y009935D01*
X004154Y009951D01*
X007577Y010119D02*
X007584Y010119D01*
X007736Y009961D02*
X007742Y009961D01*
X007894Y009802D02*
X007901Y009802D01*
X008053Y009644D02*
X008059Y009644D01*
X008211Y009485D02*
X008218Y009485D01*
X008370Y009327D02*
X008376Y009327D01*
X008528Y009168D02*
X008535Y009168D01*
X008621Y009010D02*
X008693Y009010D01*
X008621Y008851D02*
X008852Y008851D01*
X009010Y008693D02*
X008621Y008693D01*
X008621Y008534D02*
X009169Y008534D01*
X009327Y008376D02*
X008621Y008376D01*
X008621Y008217D02*
X009486Y008217D01*
X009644Y008059D02*
X008621Y008059D01*
X001300Y001560D02*
X026800Y001560D01*
X026800Y001402D02*
X001300Y001402D01*
X001300Y001243D02*
X026800Y001243D01*
X026800Y001085D02*
X001300Y001085D01*
X017623Y003304D02*
X026800Y003304D01*
X026800Y003462D02*
X018802Y003462D01*
X018977Y003621D02*
X026800Y003621D01*
X026800Y003779D02*
X019151Y003779D01*
X019325Y003938D02*
X026800Y003938D01*
X026800Y004096D02*
X019499Y004096D01*
X019674Y004255D02*
X026800Y004255D01*
X026800Y004413D02*
X019848Y004413D01*
X020022Y004572D02*
X026800Y004572D01*
X026800Y004730D02*
X020196Y004730D01*
X020370Y004889D02*
X026800Y004889D01*
X026800Y005047D02*
X020545Y005047D01*
X020719Y005206D02*
X026800Y005206D01*
X026800Y005364D02*
X020893Y005364D01*
X021067Y005523D02*
X026800Y005523D01*
X026800Y005681D02*
X021242Y005681D01*
X021427Y005840D02*
X026800Y005840D01*
X026800Y005998D02*
X021493Y005998D01*
X021559Y006157D02*
X026800Y006157D01*
X026800Y006315D02*
X021624Y006315D01*
X021690Y006474D02*
X026800Y006474D01*
X026800Y006632D02*
X021756Y006632D01*
X021822Y006791D02*
X026800Y006791D01*
X026800Y006949D02*
X021736Y006949D01*
X021578Y007108D02*
X026800Y007108D01*
X026800Y007266D02*
X021419Y007266D01*
X021261Y007425D02*
X026800Y007425D01*
X026800Y007583D02*
X021102Y007583D01*
X020944Y007742D02*
X026800Y007742D01*
X026800Y007900D02*
X020785Y007900D01*
X020627Y008059D02*
X026800Y008059D01*
X026800Y008217D02*
X020468Y008217D01*
X020310Y008376D02*
X026800Y008376D01*
X026800Y008534D02*
X020151Y008534D01*
X019993Y008693D02*
X026800Y008693D01*
X026800Y008851D02*
X019834Y008851D01*
X024549Y026445D02*
X001300Y026445D01*
X001300Y026603D02*
X024510Y026603D01*
X024510Y026762D02*
X001300Y026762D01*
X001300Y026920D02*
X024510Y026920D01*
X032382Y038049D02*
X032382Y038074D01*
X032657Y038074D01*
X032657Y038049D01*
D18*
X031954Y038719D03*
X031402Y036711D03*
X030418Y036671D03*
X029394Y036632D03*
X028410Y036671D03*
X028371Y034703D03*
X029434Y034624D03*
X030418Y034663D03*
X031402Y034703D03*
X032387Y034703D03*
X033410Y034663D03*
X034394Y034624D03*
X035339Y034624D03*
X036363Y034703D03*
X037111Y034703D03*
X036993Y032695D03*
X036363Y032656D03*
X035379Y032616D03*
X034394Y032616D03*
X033410Y032695D03*
X032387Y032656D03*
X031363Y032616D03*
X030379Y032656D03*
X029394Y032616D03*
X028371Y032616D03*
X028371Y030648D03*
X029473Y030648D03*
X030418Y030608D03*
X031402Y030648D03*
X032465Y030648D03*
X033371Y030608D03*
X034394Y030648D03*
X035379Y030648D03*
X036324Y030648D03*
X036363Y028719D03*
X037387Y028679D03*
X035379Y028640D03*
X034394Y028679D03*
X033410Y028719D03*
X032465Y028679D03*
X031363Y028640D03*
X030379Y028640D03*
X029473Y028640D03*
X028371Y028640D03*
X028410Y026632D03*
X029394Y026593D03*
X030379Y026632D03*
X031402Y026671D03*
X032505Y026632D03*
X033371Y026671D03*
X034394Y026671D03*
X035339Y026632D03*
X036402Y026711D03*
X037387Y026593D03*
X037426Y024703D03*
X036402Y024663D03*
X035379Y024703D03*
X034394Y024663D03*
X033410Y024703D03*
X032426Y024663D03*
X031402Y024703D03*
X030418Y024663D03*
X029394Y024663D03*
X028450Y024663D03*
X028410Y022656D03*
X029355Y022656D03*
X030379Y022695D03*
X031363Y022656D03*
X032426Y022695D03*
X033410Y022695D03*
X034355Y022695D03*
X035339Y022695D03*
X036363Y022656D03*
X037387Y022656D03*
X037387Y020648D03*
X036402Y020648D03*
X035379Y020687D03*
X034394Y020687D03*
X033410Y020648D03*
X032426Y020648D03*
X031363Y020726D03*
X030379Y020648D03*
X029394Y020648D03*
X028410Y020648D03*
X028371Y018719D03*
X029434Y018719D03*
X030379Y018679D03*
X031363Y018719D03*
X032426Y018679D03*
X033410Y018679D03*
X034355Y018640D03*
X035300Y018679D03*
X036402Y018719D03*
X037387Y018719D03*
X039276Y026829D03*
X037387Y036711D03*
X036402Y036671D03*
X035379Y036632D03*
X034394Y036671D03*
X033371Y036593D03*
X032426Y036671D03*
X036363Y038955D03*
X026796Y038758D03*
X025221Y038443D03*
X016200Y024451D03*
X015300Y024451D03*
X005300Y014951D03*
X009249Y012860D03*
X008300Y011451D03*
X005800Y009951D03*
X006300Y008451D03*
X005394Y008136D03*
X009272Y005742D03*
X009292Y005041D03*
X011300Y002951D03*
X011800Y003451D03*
X013426Y002703D03*
X014300Y002951D03*
X015300Y003451D03*
D19*
X015300Y001951D02*
X015800Y001951D01*
X013174Y009545D02*
X013174Y010372D01*
X005300Y014451D02*
X005300Y014951D01*
D20*
X005300Y012451D03*
X009056Y012152D03*
X013174Y009545D03*
X009300Y006451D03*
X008331Y007065D03*
X015300Y001951D03*
X017300Y023951D03*
X014001Y025136D03*
X012300Y025451D03*
X012083Y024518D03*
X011257Y024545D03*
X010721Y024411D03*
X010300Y023951D03*
D21*
X037111Y030648D03*
M02*
