%
M48
M72
T01C0.0197
T02C0.0236
T03C0.0240
T04C0.0320
T05C0.0400
%
T01
X8331Y7065
X9300Y6451
X13174Y9545
X9056Y12152
X5300Y12451
X15300Y1951
X17300Y23951
X14001Y25136
X12300Y25451
X12083Y24518
X11257Y24545
X10721Y24411
X10300Y23951
T02
X5394Y8136
X6300Y8451
X5800Y9951
X8300Y11451
X9249Y12860
X5300Y14951
X9272Y5742
X9292Y5041
X11300Y2951
X11800Y3451
X13426Y2703
X14300Y2951
X15300Y3451
X28371Y18719
X29434Y18719
X30379Y18679
X31363Y18719
X32426Y18679
X33410Y18679
X34355Y18640
X35300Y18679
X36402Y18719
X37387Y18719
X37387Y20648
X36402Y20648
X35379Y20687
X34394Y20687
X33410Y20648
X32426Y20648
X31363Y20726
X30379Y20648
X29394Y20648
X28410Y20648
X28410Y22656
X29355Y22656
X30379Y22695
X31363Y22656
X32426Y22695
X33410Y22695
X34355Y22695
X35339Y22695
X36363Y22656
X37387Y22656
X37426Y24703
X36402Y24663
X35379Y24703
X34394Y24663
X33410Y24703
X32426Y24663
X31402Y24703
X30418Y24663
X29394Y24663
X28450Y24663
X28410Y26632
X29394Y26593
X30379Y26632
X31402Y26671
X32505Y26632
X33371Y26671
X34394Y26671
X35339Y26632
X36402Y26711
X37387Y26593
X39276Y26829
X37387Y28679
X36363Y28719
X35379Y28640
X34394Y28679
X33410Y28719
X32465Y28679
X31363Y28640
X30379Y28640
X29473Y28640
X28371Y28640
X28371Y30648
X29473Y30648
X30418Y30608
X31402Y30648
X32465Y30648
X33371Y30608
X34394Y30648
X35379Y30648
X36324Y30648
X37111Y30648
X36993Y32695
X36363Y32656
X35379Y32616
X34394Y32616
X33410Y32695
X32387Y32656
X31363Y32616
X30379Y32656
X29394Y32616
X28371Y32616
X28371Y34703
X29434Y34624
X30418Y34663
X31402Y34703
X32387Y34703
X33410Y34663
X34394Y34624
X35339Y34624
X36363Y34703
X37111Y34703
X37387Y36711
X36402Y36671
X35379Y36632
X34394Y36671
X33371Y36593
X32426Y36671
X31402Y36711
X30418Y36671
X29394Y36632
X28410Y36671
X26796Y38758
X25221Y38443
X31954Y38719
X36363Y38955
X16200Y24451
X15300Y24451
T03
X4300Y14451
X4300Y13451
X4300Y12451
T04
X24300Y12451
X24300Y13451
X24300Y14451
X24300Y15451
X24300Y16451
X24300Y11451
T05
X20300Y14451
X20300Y15451
X20300Y16451
X20300Y17451
X20300Y18451
X20300Y19451
X20300Y20451
X20300Y21451
X20300Y22451
X20300Y23451
X26349Y28636
X26349Y29636
X26349Y30636
X26349Y31636
X26349Y32636
X26349Y33636
X26349Y34636
X26349Y35636
X26349Y36636
X26349Y37636
X38882Y37660
X38882Y36660
X38882Y35660
X38882Y34660
X38882Y33660
X38882Y32660
X38882Y31660
X38882Y30660
X38882Y29660
X38882Y28660
X7800Y23451
X7800Y22451
X7800Y21451
X7800Y20451
X7800Y19451
X7800Y18451
X7800Y17451
X7800Y16451
X7800Y15451
X7800Y14451
X4170Y10935
X4170Y9935
X4170Y8935
X3300Y15951
X3300Y16951
X3300Y17951
M30
