G75*
%MOIN*%
%OFA0B0*%
%FSLAX24Y24*%
%IPPOS*%
%LPD*%
%AMOC8*
5,1,8,0,0,1.08239X$1,22.5*
%
%ADD10C,0.0160*%
%ADD11R,0.5167X0.0025*%
%ADD12R,0.0025X0.0025*%
%ADD13R,0.0123X0.0025*%
%ADD14R,0.0025X0.0025*%
%ADD15R,0.0049X0.0025*%
%ADD16R,0.0098X0.0025*%
%ADD17R,0.0246X0.0025*%
%ADD18R,0.0418X0.0025*%
%ADD19R,0.0689X0.0025*%
%ADD20R,0.0443X0.0025*%
%ADD21R,0.0394X0.0025*%
%ADD22R,0.0221X0.0025*%
%ADD23R,0.0074X0.0025*%
%ADD24R,0.0418X0.0025*%
%ADD25R,0.0148X0.0025*%
%ADD26R,0.0221X0.0025*%
%ADD27R,0.0197X0.0025*%
%ADD28R,0.0714X0.0025*%
%ADD29R,0.0935X0.0025*%
%ADD30R,0.0714X0.0025*%
%ADD31R,0.0910X0.0025*%
%ADD32R,0.0738X0.0025*%
%ADD33R,0.0886X0.0025*%
%ADD34R,0.0468X0.0025*%
%ADD35R,0.0541X0.0025*%
%ADD36R,0.0615X0.0025*%
%ADD37R,0.0467X0.0025*%
%ADD38R,0.0591X0.0025*%
%ADD39R,0.0763X0.0025*%
%ADD40R,0.1058X0.0025*%
%ADD41R,0.0787X0.0025*%
%ADD42R,0.1083X0.0025*%
%ADD43R,0.0837X0.0025*%
%ADD44R,0.1058X0.0025*%
%ADD45R,0.0861X0.0025*%
%ADD46R,0.0271X0.0025*%
%ADD47R,0.0344X0.0025*%
%ADD48R,0.0492X0.0025*%
%ADD49R,0.0320X0.0025*%
%ADD50R,0.0320X0.0025*%
%ADD51R,0.0295X0.0025*%
%ADD52R,0.0664X0.0025*%
%ADD53R,0.0369X0.0025*%
%ADD54R,0.0640X0.0025*%
%ADD55R,0.0960X0.0025*%
%ADD56R,0.0984X0.0025*%
%ADD57R,0.0517X0.0025*%
%ADD58R,0.0960X0.0025*%
%ADD59R,0.0517X0.0025*%
%ADD60R,0.0566X0.0025*%
%ADD61R,0.0812X0.0025*%
%ADD62R,0.0664X0.0025*%
%ADD63R,0.0172X0.0025*%
%ADD64C,0.0000*%
%ADD65C,0.0100*%
%ADD66C,0.0030*%
%ADD67C,0.0060*%
%ADD68C,0.0050*%
%ADD69R,0.0079X0.0079*%
%ADD70C,0.0059*%
%ADD71R,0.0157X0.0827*%
%ADD72R,0.0118X0.0118*%
%ADD73R,0.0020X0.0020*%
%ADD74R,0.1043X0.0020*%
%ADD75R,0.0157X0.0020*%
%ADD76R,0.0906X0.0020*%
%ADD77R,0.0315X0.0020*%
%ADD78R,0.0453X0.0020*%
%ADD79R,0.1063X0.0020*%
%ADD80R,0.1201X0.0020*%
%ADD81R,0.0610X0.0020*%
%ADD82R,0.0472X0.0020*%
%ADD83R,0.0177X0.0020*%
%ADD84R,0.0768X0.0020*%
%ADD85R,0.0039X0.0020*%
%ADD86R,0.0630X0.0020*%
%ADD87R,0.0591X0.0020*%
%ADD88R,0.1516X0.0020*%
%ADD89R,0.0925X0.0020*%
%ADD90R,0.0748X0.0020*%
%ADD91R,0.0335X0.0020*%
%ADD92R,0.0295X0.0020*%
%ADD93R,0.0197X0.0020*%
%ADD94R,0.1358X0.0020*%
%ADD95R,0.0492X0.0020*%
%ADD96R,0.0354X0.0020*%
%ADD97R,0.1654X0.0020*%
%ADD98R,0.1634X0.0020*%
%ADD99R,0.1791X0.0020*%
%ADD100R,0.1811X0.0020*%
%ADD101R,0.1496X0.0020*%
%ADD102R,0.1339X0.0020*%
%ADD103R,0.1949X0.0020*%
D10*
X001005Y013951D02*
X001009Y014265D01*
X001020Y014579D01*
X001040Y014892D01*
X001067Y015205D01*
X001101Y015517D01*
X001143Y015828D01*
X001193Y016138D01*
X001251Y016447D01*
X001316Y016754D01*
X001388Y017060D01*
X001468Y017364D01*
X001556Y017665D01*
X001651Y017965D01*
X001753Y018262D01*
X001862Y018556D01*
X001979Y018847D01*
X002103Y019136D01*
X002233Y019422D01*
X002371Y019704D01*
X002516Y019983D01*
X002667Y020258D01*
X002825Y020529D01*
X002990Y020796D01*
X003161Y021060D01*
X003339Y021318D01*
X003523Y021573D01*
X003713Y021823D01*
X003909Y022068D01*
X004112Y022308D01*
X004320Y022544D01*
X004533Y022774D01*
X004753Y022998D01*
X004977Y023218D01*
X005207Y023431D01*
X005443Y023639D01*
X005683Y023842D01*
X005928Y024038D01*
X006178Y024228D01*
X006433Y024412D01*
X006691Y024590D01*
X006955Y024761D01*
X007222Y024926D01*
X007493Y025084D01*
X007768Y025235D01*
X008047Y025380D01*
X008329Y025518D01*
X008615Y025648D01*
X008904Y025772D01*
X009195Y025889D01*
X009489Y025998D01*
X009786Y026100D01*
X010086Y026195D01*
X010387Y026283D01*
X010691Y026363D01*
X010997Y026435D01*
X011304Y026500D01*
X011613Y026558D01*
X011923Y026608D01*
X012234Y026650D01*
X012546Y026684D01*
X012859Y026711D01*
X013172Y026731D01*
X013486Y026742D01*
X013800Y026746D01*
X014114Y026742D01*
X014428Y026731D01*
X014741Y026711D01*
X015054Y026684D01*
X015366Y026650D01*
X015677Y026608D01*
X015987Y026558D01*
X016296Y026500D01*
X016603Y026435D01*
X016909Y026363D01*
X017213Y026283D01*
X017514Y026195D01*
X017814Y026100D01*
X018111Y025998D01*
X018405Y025889D01*
X018696Y025772D01*
X018985Y025648D01*
X019271Y025518D01*
X019553Y025380D01*
X019832Y025235D01*
X020107Y025084D01*
X020378Y024926D01*
X020645Y024761D01*
X020909Y024590D01*
X021167Y024412D01*
X021422Y024228D01*
X021672Y024038D01*
X021917Y023842D01*
X022157Y023639D01*
X022393Y023431D01*
X022623Y023218D01*
X022847Y022998D01*
X023067Y022774D01*
X023280Y022544D01*
X023488Y022308D01*
X023691Y022068D01*
X023887Y021823D01*
X024077Y021573D01*
X024261Y021318D01*
X024439Y021060D01*
X024610Y020796D01*
X024775Y020529D01*
X024933Y020258D01*
X025084Y019983D01*
X025229Y019704D01*
X025367Y019422D01*
X025497Y019136D01*
X025621Y018847D01*
X025738Y018556D01*
X025847Y018262D01*
X025949Y017965D01*
X026044Y017665D01*
X026132Y017364D01*
X026212Y017060D01*
X026284Y016754D01*
X026349Y016447D01*
X026407Y016138D01*
X026457Y015828D01*
X026499Y015517D01*
X026533Y015205D01*
X026560Y014892D01*
X026580Y014579D01*
X026591Y014265D01*
X026595Y013951D01*
X026591Y013637D01*
X026580Y013323D01*
X026560Y013010D01*
X026533Y012697D01*
X026499Y012385D01*
X026457Y012074D01*
X026407Y011764D01*
X026349Y011455D01*
X026284Y011148D01*
X026212Y010842D01*
X026132Y010538D01*
X026044Y010237D01*
X025949Y009937D01*
X025847Y009640D01*
X025738Y009346D01*
X025621Y009055D01*
X025497Y008766D01*
X025367Y008480D01*
X025229Y008198D01*
X025084Y007919D01*
X024933Y007644D01*
X024775Y007373D01*
X024610Y007106D01*
X024439Y006842D01*
X024261Y006584D01*
X024077Y006329D01*
X023887Y006079D01*
X023691Y005834D01*
X023488Y005594D01*
X023280Y005358D01*
X023067Y005128D01*
X022847Y004904D01*
X022623Y004684D01*
X022393Y004471D01*
X022157Y004263D01*
X021917Y004060D01*
X021672Y003864D01*
X021422Y003674D01*
X021167Y003490D01*
X020909Y003312D01*
X020645Y003141D01*
X020378Y002976D01*
X020107Y002818D01*
X019832Y002667D01*
X019553Y002522D01*
X019271Y002384D01*
X018985Y002254D01*
X018696Y002130D01*
X018405Y002013D01*
X018111Y001904D01*
X017814Y001802D01*
X017514Y001707D01*
X017213Y001619D01*
X016909Y001539D01*
X016603Y001467D01*
X016296Y001402D01*
X015987Y001344D01*
X015677Y001294D01*
X015366Y001252D01*
X015054Y001218D01*
X014741Y001191D01*
X014428Y001171D01*
X014114Y001160D01*
X013800Y001156D01*
X013486Y001160D01*
X013172Y001171D01*
X012859Y001191D01*
X012546Y001218D01*
X012234Y001252D01*
X011923Y001294D01*
X011613Y001344D01*
X011304Y001402D01*
X010997Y001467D01*
X010691Y001539D01*
X010387Y001619D01*
X010086Y001707D01*
X009786Y001802D01*
X009489Y001904D01*
X009195Y002013D01*
X008904Y002130D01*
X008615Y002254D01*
X008329Y002384D01*
X008047Y002522D01*
X007768Y002667D01*
X007493Y002818D01*
X007222Y002976D01*
X006955Y003141D01*
X006691Y003312D01*
X006433Y003490D01*
X006178Y003674D01*
X005928Y003864D01*
X005683Y004060D01*
X005443Y004263D01*
X005207Y004471D01*
X004977Y004684D01*
X004753Y004904D01*
X004533Y005128D01*
X004320Y005358D01*
X004112Y005594D01*
X003909Y005834D01*
X003713Y006079D01*
X003523Y006329D01*
X003339Y006584D01*
X003161Y006842D01*
X002990Y007106D01*
X002825Y007373D01*
X002667Y007644D01*
X002516Y007919D01*
X002371Y008198D01*
X002233Y008480D01*
X002103Y008766D01*
X001979Y009055D01*
X001862Y009346D01*
X001753Y009640D01*
X001651Y009937D01*
X001556Y010237D01*
X001468Y010538D01*
X001388Y010842D01*
X001316Y011148D01*
X001251Y011455D01*
X001193Y011764D01*
X001143Y012074D01*
X001101Y012385D01*
X001067Y012697D01*
X001040Y013010D01*
X001020Y013323D01*
X001009Y013637D01*
X001005Y013951D01*
X025226Y039599D02*
X025300Y039599D01*
X025300Y039673D01*
X025226Y039599D02*
X025226Y039796D01*
X025423Y039796D01*
X025423Y039698D01*
X040162Y039698D01*
X040162Y027542D01*
D11*
X007891Y005790D03*
X007891Y005766D03*
X007891Y005741D03*
X007891Y005717D03*
D12*
X007214Y006258D03*
X005000Y006110D03*
X005000Y006086D03*
X005000Y006061D03*
X005000Y005938D03*
X004557Y006036D03*
X004458Y005987D03*
X004508Y005889D03*
X004409Y006110D03*
X004409Y006135D03*
D13*
X004729Y006135D03*
X004729Y006012D03*
X004729Y005889D03*
X004926Y006135D03*
D14*
X004877Y006110D03*
X004877Y006086D03*
X004877Y006061D03*
X004877Y006036D03*
X004877Y005987D03*
X004877Y005963D03*
X004877Y005938D03*
X004877Y005913D03*
X004877Y005889D03*
X004975Y005987D03*
X005024Y005913D03*
X005024Y005889D03*
X004680Y005913D03*
X004680Y005938D03*
X004680Y005963D03*
X004680Y005987D03*
X004680Y006036D03*
X004680Y006061D03*
X004680Y006086D03*
X004680Y006110D03*
X004581Y006110D03*
X004581Y006086D03*
X004532Y005963D03*
X004483Y005938D03*
X004434Y006061D03*
D15*
X004495Y005913D03*
X005676Y006012D03*
X008949Y006233D03*
X009860Y006012D03*
D16*
X004914Y006012D03*
D17*
X005430Y006012D03*
X005455Y006061D03*
X005578Y006258D03*
X005578Y006282D03*
X005603Y006307D03*
X005603Y006332D03*
X005627Y006356D03*
X005652Y006381D03*
X005652Y006406D03*
X005676Y006430D03*
X007079Y006233D03*
X009614Y006012D03*
X009638Y006061D03*
X009761Y006258D03*
X009761Y006282D03*
X009786Y006307D03*
X009786Y006332D03*
X009810Y006356D03*
X009835Y006381D03*
X009835Y006406D03*
X009860Y006430D03*
D18*
X010266Y006086D03*
X010266Y006061D03*
X010266Y006036D03*
X010266Y006012D03*
X009232Y006159D03*
X007510Y006135D03*
X006082Y006086D03*
X006082Y006061D03*
X006082Y006036D03*
X006082Y006012D03*
D19*
X005996Y006627D03*
X006759Y006061D03*
X006759Y006036D03*
X006735Y006012D03*
X007670Y006282D03*
X010179Y006627D03*
D20*
X010278Y006430D03*
X010278Y006406D03*
X010278Y006381D03*
X010278Y006356D03*
X010278Y006332D03*
X010278Y006307D03*
X010278Y006282D03*
X010352Y007193D03*
X009441Y006824D03*
X009417Y006750D03*
X009417Y006725D03*
X009392Y006676D03*
X009392Y006652D03*
X009367Y006627D03*
X009367Y006602D03*
X009367Y006578D03*
X009343Y006529D03*
X009343Y006504D03*
X009318Y006479D03*
X008654Y006307D03*
X008629Y006258D03*
X008629Y006233D03*
X008605Y006184D03*
X008605Y006159D03*
X008605Y006135D03*
X008580Y006110D03*
X008580Y006086D03*
X008580Y006061D03*
X008555Y006012D03*
X007547Y006233D03*
X007522Y006209D03*
X007522Y006184D03*
X007522Y006159D03*
X007497Y006110D03*
X007497Y006086D03*
X007473Y006036D03*
X007473Y006012D03*
X006710Y006307D03*
X006710Y006332D03*
X006735Y006406D03*
X006759Y006479D03*
X006685Y006258D03*
X006095Y006282D03*
X006095Y006307D03*
X006095Y006332D03*
X006095Y006356D03*
X006095Y006381D03*
X006095Y006406D03*
X006095Y006430D03*
X006169Y007193D03*
D21*
X009220Y006135D03*
X009220Y006110D03*
X009220Y006086D03*
X009195Y006061D03*
X009195Y006036D03*
X009195Y006012D03*
X009244Y006184D03*
D22*
X009626Y006036D03*
X005443Y006036D03*
D23*
X005689Y006036D03*
X009872Y006036D03*
D24*
X009355Y006553D03*
X009257Y006233D03*
X009257Y006209D03*
X008568Y006036D03*
X007485Y006061D03*
D25*
X005701Y006061D03*
X009884Y006061D03*
D26*
X009650Y006086D03*
X005467Y006086D03*
D27*
X005726Y006086D03*
X009909Y006086D03*
D28*
X010167Y006578D03*
X010167Y006602D03*
X006771Y006110D03*
X006771Y006086D03*
X005984Y006578D03*
X005984Y006602D03*
D29*
X005849Y006135D03*
X005824Y006110D03*
X007965Y006873D03*
X007965Y006898D03*
X007965Y006922D03*
X007965Y006947D03*
X010007Y006110D03*
X010032Y006135D03*
D30*
X006796Y006135D03*
X006796Y006159D03*
D31*
X005861Y006159D03*
X005861Y006184D03*
X007977Y006971D03*
X007977Y006996D03*
X010044Y006184D03*
X010044Y006159D03*
D32*
X010155Y006529D03*
X010155Y006553D03*
X007916Y007144D03*
X007694Y006307D03*
X006833Y006209D03*
X006808Y006184D03*
X005972Y006529D03*
X005972Y006553D03*
D33*
X005873Y006233D03*
X005873Y006209D03*
X007817Y006455D03*
X007965Y007021D03*
X007965Y007045D03*
X010056Y006233D03*
X010056Y006209D03*
D34*
X010290Y006455D03*
X010339Y007144D03*
X010339Y007168D03*
X009503Y007021D03*
X009454Y006873D03*
X009454Y006848D03*
X009404Y006701D03*
X008765Y006676D03*
X008715Y006529D03*
X008715Y006504D03*
X008617Y006209D03*
X007682Y006676D03*
X007633Y006553D03*
X007633Y006529D03*
X007633Y006504D03*
X006845Y006750D03*
X006796Y006602D03*
X006796Y006578D03*
X006747Y006455D03*
X006747Y006430D03*
X006698Y006282D03*
X006698Y006233D03*
X006107Y006455D03*
X006156Y007144D03*
X006156Y007168D03*
D35*
X006119Y007021D03*
X006119Y006996D03*
X006095Y006971D03*
X006095Y006947D03*
X006046Y006258D03*
X006956Y007119D03*
X006956Y007144D03*
X006981Y007193D03*
X008875Y007021D03*
X008900Y007094D03*
X008900Y007119D03*
X008900Y007144D03*
X008925Y007168D03*
X008925Y007193D03*
X009195Y006258D03*
X010229Y006258D03*
X010278Y006947D03*
X010278Y006971D03*
X010302Y006996D03*
X010302Y007021D03*
D36*
X010241Y006824D03*
X010241Y006799D03*
X007633Y006258D03*
X006058Y006799D03*
X006058Y006824D03*
D37*
X006771Y006529D03*
X006771Y006504D03*
X006722Y006381D03*
X006722Y006356D03*
X006821Y006676D03*
X007608Y006479D03*
X007657Y006602D03*
X007657Y006627D03*
X008642Y006282D03*
X008740Y006578D03*
X008740Y006602D03*
X009429Y006775D03*
X009429Y006799D03*
X009478Y006922D03*
X009478Y006947D03*
D38*
X009195Y006307D03*
X009195Y006282D03*
X010253Y006848D03*
X010253Y006873D03*
X007866Y007193D03*
X006070Y006873D03*
X006070Y006848D03*
D39*
X005959Y006504D03*
X005959Y006479D03*
X007731Y006332D03*
X010143Y006479D03*
X010143Y006504D03*
D40*
X008961Y006332D03*
D41*
X007743Y006356D03*
X007940Y007119D03*
D42*
X008998Y006455D03*
X008998Y006430D03*
X008974Y006381D03*
X008974Y006356D03*
D43*
X007793Y006406D03*
X007768Y006381D03*
X007965Y007070D03*
D44*
X008986Y006406D03*
D45*
X007805Y006430D03*
D46*
X009872Y006455D03*
X005689Y006455D03*
D47*
X008112Y006479D03*
D48*
X007670Y006652D03*
X007645Y006578D03*
X006882Y006848D03*
X006882Y006873D03*
X006858Y006824D03*
X006858Y006799D03*
X006858Y006775D03*
X006833Y006725D03*
X006833Y006701D03*
X006808Y006652D03*
X006808Y006627D03*
X006784Y006553D03*
X006907Y006947D03*
X006144Y007094D03*
X006144Y007119D03*
X008703Y006479D03*
X008728Y006553D03*
X008752Y006627D03*
X008752Y006652D03*
X008777Y006701D03*
X008777Y006725D03*
X008801Y006775D03*
X008801Y006799D03*
X008826Y006873D03*
X008851Y006947D03*
X009466Y006898D03*
X009490Y006971D03*
X009490Y006996D03*
X009515Y007045D03*
X009515Y007070D03*
X009515Y007094D03*
X009540Y007119D03*
X009540Y007144D03*
X009564Y007193D03*
X010327Y007119D03*
X010327Y007094D03*
D49*
X008199Y006578D03*
X008149Y006504D03*
D50*
X008174Y006529D03*
X008223Y006627D03*
X008223Y006652D03*
D51*
X008211Y006602D03*
X008186Y006553D03*
D52*
X010192Y006652D03*
X010192Y006676D03*
X006009Y006676D03*
X006009Y006652D03*
D53*
X008223Y006676D03*
D54*
X010204Y006701D03*
X010204Y006725D03*
X010229Y006750D03*
X010229Y006775D03*
X006046Y006775D03*
X006046Y006750D03*
X006021Y006725D03*
X006021Y006701D03*
D55*
X007928Y006701D03*
X007928Y006725D03*
D56*
X007940Y006750D03*
D57*
X008789Y006750D03*
X008838Y006898D03*
X008838Y006922D03*
X008888Y007045D03*
X008888Y007070D03*
X010315Y007070D03*
X010315Y007045D03*
X006968Y007168D03*
X006919Y007021D03*
X006919Y006996D03*
X006919Y006971D03*
X006132Y007045D03*
X006132Y007070D03*
D58*
X007953Y006848D03*
X007953Y006824D03*
X007953Y006799D03*
X007953Y006775D03*
D59*
X008814Y006824D03*
X008814Y006848D03*
X008863Y006971D03*
X008863Y006996D03*
X009552Y007168D03*
X006944Y007094D03*
X006944Y007070D03*
X006944Y007045D03*
X006894Y006922D03*
X006894Y006898D03*
D60*
X006082Y006898D03*
X006082Y006922D03*
X010266Y006922D03*
X010266Y006898D03*
D61*
X007953Y007094D03*
D62*
X007903Y007168D03*
D63*
X007903Y007218D03*
D64*
X000325Y000328D02*
X000300Y000328D01*
X000300Y000377D01*
X000325Y000377D01*
X000333Y000369D01*
X000333Y000336D01*
X000325Y000328D01*
X000345Y000328D02*
X000345Y000336D01*
X000354Y000336D01*
X000354Y000328D01*
X000345Y000328D01*
X000368Y000328D02*
X000401Y000377D01*
X000413Y000377D02*
X000421Y000377D01*
X000421Y000328D01*
X000413Y000328D02*
X000430Y000328D01*
X000443Y000328D02*
X000460Y000328D01*
X000452Y000328D02*
X000452Y000361D01*
X000443Y000361D01*
X000452Y000377D02*
X000452Y000385D01*
X000474Y000377D02*
X000482Y000377D01*
X000482Y000328D01*
X000474Y000328D02*
X000490Y000328D01*
X000504Y000328D02*
X000520Y000328D01*
X000512Y000328D02*
X000512Y000361D01*
X000504Y000361D01*
X000512Y000377D02*
X000512Y000385D01*
X000567Y000377D02*
X000534Y000328D01*
X000579Y000328D02*
X000579Y000377D01*
X000604Y000377D01*
X000612Y000369D01*
X000612Y000352D01*
X000604Y000344D01*
X000579Y000344D01*
X000625Y000328D02*
X000641Y000328D01*
X000633Y000328D02*
X000633Y000361D01*
X000625Y000361D01*
X000633Y000377D02*
X000633Y000385D01*
X000663Y000361D02*
X000655Y000352D01*
X000655Y000336D01*
X000663Y000328D01*
X000688Y000328D01*
X000708Y000336D02*
X000717Y000328D01*
X000708Y000336D02*
X000708Y000369D01*
X000700Y000361D02*
X000717Y000361D01*
X000730Y000361D02*
X000730Y000336D01*
X000739Y000328D01*
X000763Y000328D01*
X000763Y000361D01*
X000776Y000361D02*
X000776Y000328D01*
X000776Y000344D02*
X000792Y000361D01*
X000800Y000361D01*
X000814Y000352D02*
X000822Y000361D01*
X000838Y000361D01*
X000846Y000352D01*
X000846Y000344D01*
X000814Y000344D01*
X000814Y000336D02*
X000814Y000352D01*
X000814Y000336D02*
X000822Y000328D01*
X000838Y000328D01*
X000859Y000328D02*
X000883Y000328D01*
X000892Y000336D01*
X000883Y000344D01*
X000867Y000344D01*
X000859Y000352D01*
X000867Y000361D01*
X000892Y000361D01*
X000904Y000328D02*
X000937Y000377D01*
X000949Y000361D02*
X000966Y000328D01*
X000982Y000361D01*
X000995Y000352D02*
X001003Y000361D01*
X001019Y000361D01*
X001028Y000352D01*
X001028Y000344D01*
X000995Y000344D01*
X000995Y000336D02*
X000995Y000352D01*
X000995Y000336D02*
X001003Y000328D01*
X001019Y000328D01*
X001040Y000328D02*
X001040Y000361D01*
X001057Y000361D02*
X001065Y000361D01*
X001057Y000361D02*
X001040Y000344D01*
X001078Y000336D02*
X001086Y000344D01*
X001111Y000344D01*
X001111Y000352D02*
X001111Y000328D01*
X001086Y000328D01*
X001078Y000336D01*
X001086Y000361D02*
X001103Y000361D01*
X001111Y000352D01*
X001123Y000328D02*
X001140Y000328D01*
X001131Y000328D02*
X001131Y000377D01*
X001123Y000377D01*
X001153Y000361D02*
X001178Y000361D01*
X001186Y000352D01*
X001186Y000336D01*
X001178Y000328D01*
X001153Y000328D01*
X001153Y000311D02*
X001153Y000361D01*
X001199Y000352D02*
X001207Y000361D01*
X001223Y000361D01*
X001232Y000352D01*
X001232Y000328D01*
X001244Y000336D02*
X001252Y000344D01*
X001277Y000344D01*
X001277Y000352D02*
X001277Y000328D01*
X001252Y000328D01*
X001244Y000336D01*
X001252Y000361D02*
X001269Y000361D01*
X001277Y000352D01*
X001289Y000336D02*
X001298Y000336D01*
X001298Y000328D01*
X001289Y000328D01*
X001289Y000336D01*
X001312Y000328D02*
X001337Y000328D01*
X001345Y000336D01*
X001345Y000352D01*
X001337Y000361D01*
X001312Y000361D01*
X001312Y000377D02*
X001312Y000328D01*
X001357Y000328D02*
X001357Y000361D01*
X001366Y000361D01*
X001374Y000352D01*
X001382Y000361D01*
X001390Y000352D01*
X001390Y000328D01*
X001403Y000328D02*
X001427Y000328D01*
X001435Y000336D01*
X001435Y000352D01*
X001427Y000361D01*
X001403Y000361D01*
X001403Y000311D01*
X001374Y000328D02*
X001374Y000352D01*
X001199Y000377D02*
X001199Y000328D01*
X000688Y000361D02*
X000663Y000361D01*
X000354Y000361D02*
X000354Y000352D01*
X000345Y000352D01*
X000345Y000361D01*
X000354Y000361D01*
D65*
X003001Y011561D02*
X003001Y015341D01*
X004792Y015341D01*
X004792Y014711D01*
X004694Y014711D01*
X004694Y012191D01*
X004792Y012191D01*
X004792Y011561D01*
X003001Y011561D01*
X024749Y021711D02*
X026481Y019191D01*
X026875Y017341D01*
X038568Y017341D01*
X038568Y019585D01*
X040143Y021159D01*
X040143Y039781D01*
X024749Y039781D02*
X024749Y021711D01*
D66*
X010915Y021759D02*
X010867Y021711D01*
X010770Y021711D01*
X010721Y021759D01*
X010721Y021856D01*
X010770Y021904D01*
X010818Y021904D01*
X010818Y021711D01*
X010915Y021759D02*
X010915Y021856D01*
X010867Y022005D02*
X010915Y022054D01*
X010915Y022199D01*
X010867Y022348D02*
X010915Y022397D01*
X010867Y022348D02*
X010673Y022348D01*
X010721Y022300D02*
X010721Y022397D01*
X010721Y022496D02*
X010721Y022545D01*
X010915Y022545D01*
X010915Y022593D02*
X010915Y022496D01*
X010867Y022693D02*
X010915Y022741D01*
X010915Y022838D01*
X010867Y022886D01*
X010770Y022886D01*
X010721Y022838D01*
X010721Y022741D01*
X010770Y022693D01*
X010867Y022693D01*
X010625Y022545D02*
X010576Y022545D01*
X010721Y022199D02*
X010721Y022054D01*
X010770Y022005D01*
X010867Y022005D01*
X010915Y021610D02*
X010770Y021610D01*
X010721Y021561D01*
X010721Y021416D01*
X010915Y021416D01*
X010915Y021315D02*
X010770Y021315D01*
X010721Y021266D01*
X010721Y021121D01*
X010915Y021121D01*
X010867Y021020D02*
X010915Y020972D01*
X010915Y020875D01*
X010867Y020827D01*
X010770Y020827D01*
X010721Y020875D01*
X010721Y020972D01*
X010770Y021020D01*
X010867Y021020D01*
X010915Y020726D02*
X010915Y020580D01*
X010867Y020532D01*
X010770Y020532D01*
X010721Y020580D01*
X010721Y020726D01*
X010721Y020137D02*
X010721Y020089D01*
X010818Y019992D01*
X010915Y019992D02*
X010721Y019992D01*
X010770Y019891D02*
X010818Y019891D01*
X010818Y019697D01*
X010770Y019697D02*
X010721Y019746D01*
X010721Y019842D01*
X010770Y019891D01*
X010915Y019842D02*
X010915Y019746D01*
X010867Y019697D01*
X010770Y019697D01*
X010721Y019596D02*
X010915Y019499D01*
X010721Y019403D01*
X010721Y019302D02*
X010721Y019254D01*
X010818Y019157D01*
X010915Y019157D02*
X010721Y019157D01*
X010770Y019056D02*
X010818Y019056D01*
X010818Y018862D01*
X010770Y018862D02*
X010721Y018911D01*
X010721Y019007D01*
X010770Y019056D01*
X010915Y019007D02*
X010915Y018911D01*
X010867Y018862D01*
X010770Y018862D01*
X010721Y018761D02*
X010721Y018616D01*
X010770Y018568D01*
X010818Y018616D01*
X010818Y018713D01*
X010867Y018761D01*
X010915Y018713D01*
X010915Y018568D01*
X010625Y018172D02*
X010625Y017978D01*
X010625Y018075D02*
X010915Y018075D01*
X010915Y017877D02*
X010818Y017780D01*
X010818Y017829D02*
X010818Y017684D01*
X010915Y017684D02*
X010625Y017684D01*
X010625Y017829D01*
X010673Y017877D01*
X010770Y017877D01*
X010818Y017829D01*
X010867Y017534D02*
X010625Y017534D01*
X010625Y017486D02*
X010625Y017583D01*
X010867Y017534D02*
X010915Y017486D01*
X010915Y017437D01*
X010867Y017389D01*
X010915Y017289D02*
X010818Y017193D01*
X010721Y017193D01*
X010625Y017289D01*
X010625Y017092D02*
X010625Y016898D01*
X010625Y016995D02*
X010915Y016995D01*
X010867Y016797D02*
X010915Y016748D01*
X010915Y016652D01*
X010867Y016603D01*
X010770Y016652D02*
X010770Y016748D01*
X010818Y016797D01*
X010867Y016797D01*
X010770Y016652D02*
X010721Y016603D01*
X010673Y016603D01*
X010625Y016652D01*
X010625Y016748D01*
X010673Y016797D01*
X010625Y016504D02*
X010625Y016407D01*
X010625Y016455D02*
X010915Y016455D01*
X010915Y016407D02*
X010915Y016504D01*
X010915Y016306D02*
X010915Y016112D01*
X010625Y016112D01*
X010963Y016011D02*
X010963Y015818D01*
X010915Y015620D02*
X010625Y015620D01*
X010625Y015716D02*
X010625Y015523D01*
X010673Y015422D02*
X010770Y015422D01*
X010818Y015373D01*
X010818Y015228D01*
X010915Y015228D02*
X010625Y015228D01*
X010625Y015373D01*
X010673Y015422D01*
X010818Y015325D02*
X010915Y015422D01*
X010915Y015127D02*
X010721Y015127D01*
X010625Y015030D01*
X010721Y014934D01*
X010915Y014934D01*
X010770Y014934D02*
X010770Y015127D01*
X010770Y014833D02*
X010818Y014784D01*
X010818Y014639D01*
X010915Y014639D02*
X010625Y014639D01*
X010625Y014784D01*
X010673Y014833D01*
X010770Y014833D01*
X010721Y022987D02*
X010721Y023133D01*
X010770Y023181D01*
X010915Y023181D01*
X010915Y022987D02*
X010721Y022987D01*
X010721Y023577D02*
X010915Y023577D01*
X010818Y023577D02*
X010721Y023674D01*
X010721Y023722D01*
X010770Y023822D02*
X010721Y023871D01*
X010721Y023967D01*
X010770Y024016D01*
X010818Y024016D01*
X010818Y023822D01*
X010770Y023822D02*
X010867Y023822D01*
X010915Y023871D01*
X010915Y023967D01*
X010867Y024117D02*
X010915Y024165D01*
X010915Y024310D01*
X011012Y024310D02*
X010721Y024310D01*
X010721Y024165D01*
X010770Y024117D01*
X010867Y024117D01*
X010867Y024412D02*
X010915Y024460D01*
X010915Y024605D01*
X010721Y024605D01*
X010721Y024706D02*
X010721Y024755D01*
X010915Y024755D01*
X010915Y024803D02*
X010915Y024706D01*
X010915Y024903D02*
X010721Y024903D01*
X010721Y024999D02*
X010721Y025048D01*
X010721Y024999D02*
X010818Y024903D01*
X010625Y024755D02*
X010576Y024755D01*
X010721Y024412D02*
X010867Y024412D01*
X010867Y025148D02*
X010770Y025148D01*
X010721Y025197D01*
X010721Y025293D01*
X010770Y025342D01*
X010818Y025342D01*
X010818Y025148D01*
X010867Y025148D02*
X010915Y025197D01*
X010915Y025293D01*
X010867Y025443D02*
X010915Y025491D01*
X010915Y025636D01*
X010625Y025636D01*
X010721Y025636D02*
X010721Y025491D01*
X010770Y025443D01*
X010867Y025443D01*
X010915Y025738D02*
X010818Y025834D01*
X010721Y025834D01*
X010625Y025738D01*
D67*
X008300Y023701D02*
X008300Y023201D01*
X008050Y022951D01*
X008300Y022701D01*
X008300Y022201D01*
X008050Y021951D01*
X008300Y021701D01*
X008300Y021201D01*
X008050Y020951D01*
X008300Y020701D01*
X008300Y020201D01*
X008050Y019951D01*
X008300Y019701D01*
X008300Y019201D01*
X008050Y018951D01*
X008300Y018701D01*
X008300Y018201D01*
X008050Y017951D01*
X008300Y017701D01*
X008300Y017201D01*
X008050Y016951D01*
X008300Y016701D01*
X008300Y016201D01*
X008050Y015951D01*
X008300Y015701D01*
X008300Y015201D01*
X008050Y014951D01*
X008300Y014701D01*
X008300Y014201D01*
X008050Y013951D01*
X007550Y013951D01*
X007300Y014201D01*
X007300Y014701D01*
X007550Y014951D01*
X007300Y015201D01*
X007300Y015701D01*
X007550Y015951D01*
X007300Y016201D01*
X007300Y016701D01*
X007550Y016951D01*
X007300Y017201D01*
X007300Y017701D01*
X007550Y017951D01*
X007300Y018201D01*
X007300Y018701D01*
X007550Y018951D01*
X007300Y019201D01*
X007300Y019701D01*
X007550Y019951D01*
X007300Y020201D01*
X007300Y020701D01*
X007550Y020951D01*
X007300Y021201D01*
X007300Y021701D01*
X007550Y021951D01*
X007300Y022201D01*
X007300Y022701D01*
X007550Y022951D01*
X007300Y023201D01*
X007300Y023701D01*
X007550Y023951D01*
X008050Y023951D01*
X008300Y023701D01*
X003550Y018451D02*
X003050Y018451D01*
X002800Y018201D01*
X002800Y017701D01*
X003050Y017451D01*
X002800Y017201D01*
X002800Y016701D01*
X003050Y016451D01*
X002800Y016201D01*
X002800Y015701D01*
X003050Y015451D01*
X003550Y015451D01*
X003800Y015701D01*
X003800Y016201D01*
X003550Y016451D01*
X003800Y016701D01*
X003800Y017201D01*
X003550Y017451D01*
X003800Y017701D01*
X003800Y018201D01*
X003550Y018451D01*
X003139Y014750D02*
X003141Y014791D01*
X003147Y014832D01*
X003157Y014872D01*
X003170Y014911D01*
X003187Y014948D01*
X003208Y014984D01*
X003232Y015018D01*
X003259Y015049D01*
X003288Y015077D01*
X003321Y015103D01*
X003355Y015125D01*
X003392Y015144D01*
X003430Y015159D01*
X003470Y015171D01*
X003510Y015179D01*
X003551Y015183D01*
X003593Y015183D01*
X003634Y015179D01*
X003674Y015171D01*
X003714Y015159D01*
X003752Y015144D01*
X003788Y015125D01*
X003823Y015103D01*
X003856Y015077D01*
X003885Y015049D01*
X003912Y015018D01*
X003936Y014984D01*
X003957Y014948D01*
X003974Y014911D01*
X003987Y014872D01*
X003997Y014832D01*
X004003Y014791D01*
X004005Y014750D01*
X004003Y014709D01*
X003997Y014668D01*
X003987Y014628D01*
X003974Y014589D01*
X003957Y014552D01*
X003936Y014516D01*
X003912Y014482D01*
X003885Y014451D01*
X003856Y014423D01*
X003823Y014397D01*
X003789Y014375D01*
X003752Y014356D01*
X003714Y014341D01*
X003674Y014329D01*
X003634Y014321D01*
X003593Y014317D01*
X003551Y014317D01*
X003510Y014321D01*
X003470Y014329D01*
X003430Y014341D01*
X003392Y014356D01*
X003356Y014375D01*
X003321Y014397D01*
X003288Y014423D01*
X003259Y014451D01*
X003232Y014482D01*
X003208Y014516D01*
X003187Y014552D01*
X003170Y014589D01*
X003157Y014628D01*
X003147Y014668D01*
X003141Y014709D01*
X003139Y014750D01*
X003920Y011435D02*
X003670Y011185D01*
X003670Y010685D01*
X003920Y010435D01*
X003670Y010185D01*
X003670Y009685D01*
X003920Y009435D01*
X003670Y009185D01*
X003670Y008685D01*
X003920Y008435D01*
X004420Y008435D01*
X004670Y008685D01*
X004670Y009185D01*
X004420Y009435D01*
X004670Y009685D01*
X004670Y010185D01*
X004420Y010435D01*
X004670Y010685D01*
X004670Y011185D01*
X004420Y011435D01*
X003920Y011435D01*
X019800Y014201D02*
X020050Y013951D01*
X020550Y013951D01*
X020800Y014201D01*
X020800Y014701D01*
X020550Y014951D01*
X020800Y015201D01*
X020800Y015701D01*
X020550Y015951D01*
X020800Y016201D01*
X020800Y016701D01*
X020550Y016951D01*
X020800Y017201D01*
X020800Y017701D01*
X020550Y017951D01*
X020800Y018201D01*
X020800Y018701D01*
X020550Y018951D01*
X020800Y019201D01*
X020800Y019701D01*
X020550Y019951D01*
X020800Y020201D01*
X020800Y020701D01*
X020550Y020951D01*
X020800Y021201D01*
X020800Y021701D01*
X020550Y021951D01*
X020800Y022201D01*
X020800Y022701D01*
X020550Y022951D01*
X020800Y023201D01*
X020800Y023701D01*
X020550Y023951D01*
X020050Y023951D01*
X019800Y023701D01*
X019800Y023201D01*
X020050Y022951D01*
X019800Y022701D01*
X019800Y022201D01*
X020050Y021951D01*
X019800Y021701D01*
X019800Y021201D01*
X020050Y020951D01*
X019800Y020701D01*
X019800Y020201D01*
X020050Y019951D01*
X019800Y019701D01*
X019800Y019201D01*
X020050Y018951D01*
X019800Y018701D01*
X019800Y018201D01*
X020050Y017951D01*
X019800Y017701D01*
X019800Y017201D01*
X020050Y016951D01*
X019800Y016701D01*
X019800Y016201D01*
X020050Y015951D01*
X019800Y015701D01*
X019800Y015201D01*
X020050Y014951D01*
X019800Y014701D01*
X019800Y014201D01*
X023800Y014051D02*
X023900Y013951D01*
X023800Y013851D01*
X023800Y013051D01*
X023900Y012951D01*
X023800Y012851D01*
X023800Y012051D01*
X023900Y011951D01*
X023800Y011851D01*
X023800Y010951D01*
X024800Y010951D01*
X024800Y011851D01*
X024700Y011951D01*
X024800Y012051D01*
X024800Y012851D01*
X024700Y012951D01*
X024800Y013051D01*
X024800Y013851D01*
X024700Y013951D01*
X024800Y014051D01*
X024800Y014851D01*
X024700Y014951D01*
X024800Y015051D01*
X024800Y015851D01*
X024700Y015951D01*
X024800Y016051D01*
X024800Y016951D01*
X023800Y016951D01*
X023800Y016051D01*
X023900Y015951D01*
X023800Y015851D01*
X023800Y015051D01*
X023900Y014951D01*
X023800Y014851D01*
X023800Y014051D01*
X026099Y028136D02*
X025849Y028386D01*
X025849Y028886D01*
X026099Y029136D01*
X025849Y029386D01*
X025849Y029886D01*
X026099Y030136D01*
X025849Y030386D01*
X025849Y030886D01*
X026099Y031136D01*
X025849Y031386D01*
X025849Y031886D01*
X026099Y032136D01*
X025849Y032386D01*
X025849Y032886D01*
X026099Y033136D01*
X025849Y033386D01*
X025849Y033886D01*
X026099Y034136D01*
X025849Y034386D01*
X025849Y034886D01*
X026099Y035136D01*
X025849Y035386D01*
X025849Y035886D01*
X026099Y036136D01*
X025849Y036386D01*
X025849Y036886D01*
X026099Y037136D01*
X025849Y037386D01*
X025849Y037886D01*
X026099Y038136D01*
X026599Y038136D01*
X026849Y037886D01*
X026849Y037386D01*
X026599Y037136D01*
X026849Y036886D01*
X026849Y036386D01*
X026599Y036136D01*
X026849Y035886D01*
X026849Y035386D01*
X026599Y035136D01*
X026849Y034886D01*
X026849Y034386D01*
X026599Y034136D01*
X026849Y033886D01*
X026849Y033386D01*
X026599Y033136D01*
X026849Y032886D01*
X026849Y032386D01*
X026599Y032136D01*
X026849Y031886D01*
X026849Y031386D01*
X026599Y031136D01*
X026849Y030886D01*
X026849Y030386D01*
X026599Y030136D01*
X026849Y029886D01*
X026849Y029386D01*
X026599Y029136D01*
X026849Y028886D01*
X026849Y028386D01*
X026599Y028136D01*
X026099Y028136D01*
X038382Y028410D02*
X038632Y028160D01*
X039132Y028160D01*
X039382Y028410D01*
X039382Y028910D01*
X039132Y029160D01*
X039382Y029410D01*
X039382Y029910D01*
X039132Y030160D01*
X039382Y030410D01*
X039382Y030910D01*
X039132Y031160D01*
X039382Y031410D01*
X039382Y031910D01*
X039132Y032160D01*
X039382Y032410D01*
X039382Y032910D01*
X039132Y033160D01*
X039382Y033410D01*
X039382Y033910D01*
X039132Y034160D01*
X039382Y034410D01*
X039382Y034910D01*
X039132Y035160D01*
X039382Y035410D01*
X039382Y035910D01*
X039132Y036160D01*
X039382Y036410D01*
X039382Y036910D01*
X039132Y037160D01*
X039382Y037410D01*
X039382Y037910D01*
X039132Y038160D01*
X038632Y038160D01*
X038382Y037910D01*
X038382Y037410D01*
X038632Y037160D01*
X038382Y036910D01*
X038382Y036410D01*
X038632Y036160D01*
X038382Y035910D01*
X038382Y035410D01*
X038632Y035160D01*
X038382Y034910D01*
X038382Y034410D01*
X038632Y034160D01*
X038382Y033910D01*
X038382Y033410D01*
X038632Y033160D01*
X038382Y032910D01*
X038382Y032410D01*
X038632Y032160D01*
X038382Y031910D01*
X038382Y031410D01*
X038632Y031160D01*
X038382Y030910D01*
X038382Y030410D01*
X038632Y030160D01*
X038382Y029910D01*
X038382Y029410D01*
X038632Y029160D01*
X038382Y028910D01*
X038382Y028410D01*
D68*
X039556Y028550D02*
X039556Y028700D01*
X039631Y028775D01*
X039932Y028475D01*
X040007Y028550D01*
X040007Y028700D01*
X039932Y028775D01*
X039631Y028775D01*
X039556Y028550D02*
X039631Y028475D01*
X039932Y028475D01*
X040007Y028315D02*
X040007Y028015D01*
X040007Y028165D02*
X039556Y028165D01*
X039706Y028015D01*
X038207Y037425D02*
X038207Y037725D01*
X038207Y037575D02*
X037756Y037575D01*
X037906Y037425D01*
X027474Y028761D02*
X027474Y028461D01*
X027474Y028611D02*
X027024Y028611D01*
X027174Y028461D01*
X019625Y023911D02*
X019625Y023761D01*
X019550Y023686D01*
X019250Y023986D01*
X019550Y023986D01*
X019625Y023911D01*
X019550Y023686D02*
X019250Y023686D01*
X019175Y023761D01*
X019175Y023911D01*
X019250Y023986D01*
X019625Y023526D02*
X019625Y023226D01*
X019625Y023376D02*
X019175Y023376D01*
X019325Y023226D01*
X025375Y016516D02*
X025375Y016215D01*
X025375Y016366D02*
X024925Y016366D01*
X025075Y016215D01*
X021425Y014576D02*
X021425Y014276D01*
X021425Y014426D02*
X020975Y014426D01*
X021125Y014276D01*
X024925Y011516D02*
X025000Y011366D01*
X025150Y011215D01*
X025150Y011441D01*
X025225Y011516D01*
X025300Y011516D01*
X025375Y011441D01*
X025375Y011290D01*
X025300Y011215D01*
X025150Y011215D01*
X008925Y014276D02*
X008925Y014576D01*
X008925Y014426D02*
X008475Y014426D01*
X008625Y014276D01*
X004395Y011800D02*
X004395Y011500D01*
X004395Y011650D02*
X003945Y011650D01*
X004095Y011500D01*
X003525Y014976D02*
X003525Y015276D01*
X003525Y015126D02*
X003075Y015126D01*
X003225Y014976D01*
X006825Y023226D02*
X006675Y023376D01*
X007125Y023376D01*
X007125Y023226D02*
X007125Y023526D01*
X007050Y023686D02*
X006750Y023686D01*
X006675Y023761D01*
X006675Y023911D01*
X006750Y023986D01*
X007050Y023686D01*
X007125Y023761D01*
X007125Y023911D01*
X007050Y023986D01*
X006750Y023986D01*
X025224Y037561D02*
X025674Y037561D01*
X025674Y037411D02*
X025674Y037711D01*
X025599Y037871D02*
X025299Y038171D01*
X025599Y038171D01*
X025674Y038096D01*
X025674Y037946D01*
X025599Y037871D01*
X025299Y037871D01*
X025224Y037946D01*
X025224Y038096D01*
X025299Y038171D01*
X025224Y037561D02*
X025374Y037411D01*
D69*
X028382Y037700D03*
X029382Y037700D03*
X030382Y037700D03*
X031382Y037700D03*
X032382Y037700D03*
X033382Y037700D03*
X034382Y037700D03*
X035382Y037700D03*
X036382Y037700D03*
X037382Y037700D03*
X037382Y035700D03*
X036382Y035700D03*
X035382Y035700D03*
X034382Y035700D03*
X033382Y035700D03*
X032382Y035700D03*
X031382Y035700D03*
X030382Y035700D03*
X029382Y035700D03*
X028382Y035700D03*
X028382Y033700D03*
X029382Y033700D03*
X030382Y033700D03*
X031382Y033700D03*
X032382Y033700D03*
X033382Y033700D03*
X034382Y033700D03*
X035382Y033700D03*
X036382Y033700D03*
X037382Y033700D03*
X037382Y031700D03*
X036382Y031700D03*
X035382Y031700D03*
X034382Y031700D03*
X033382Y031700D03*
X032382Y031700D03*
X031382Y031700D03*
X030382Y031700D03*
X029382Y031700D03*
X028382Y031700D03*
X028382Y029700D03*
X029382Y029700D03*
X030382Y029700D03*
X031382Y029700D03*
X032382Y029700D03*
X033382Y029700D03*
X034382Y029700D03*
X035382Y029700D03*
X036382Y029700D03*
X037382Y029700D03*
X037382Y027700D03*
X036382Y027700D03*
X035382Y027700D03*
X034382Y027700D03*
X033382Y027700D03*
X032382Y027700D03*
X031382Y027700D03*
X030382Y027700D03*
X029382Y027700D03*
X028382Y027700D03*
X028382Y025700D03*
X029382Y025700D03*
X030382Y025700D03*
X031382Y025700D03*
X032382Y025700D03*
X033382Y025700D03*
X034382Y025700D03*
X035382Y025700D03*
X036382Y025700D03*
X037382Y025700D03*
X037382Y023700D03*
X036382Y023700D03*
X035382Y023700D03*
X034382Y023700D03*
X033382Y023700D03*
X032382Y023700D03*
X031382Y023700D03*
X030382Y023700D03*
X029382Y023700D03*
X028382Y023700D03*
X028382Y021700D03*
X029382Y021700D03*
X030382Y021700D03*
X031382Y021700D03*
X032382Y021700D03*
X033382Y021700D03*
X034382Y021700D03*
X035382Y021700D03*
X036382Y021700D03*
X037382Y021700D03*
X037382Y019700D03*
X036382Y019700D03*
X035382Y019700D03*
X034382Y019700D03*
X033382Y019700D03*
X032382Y019700D03*
X031382Y019700D03*
X030382Y019700D03*
X029382Y019700D03*
X028382Y019700D03*
D70*
X010765Y003814D02*
X010664Y003916D01*
X010515Y003795D01*
X010455Y003826D01*
X010391Y003846D01*
X010372Y004037D01*
X010228Y004037D01*
X010209Y003846D01*
X010145Y003826D01*
X010085Y003795D01*
X009936Y003916D01*
X009835Y003814D01*
X009956Y003666D01*
X009925Y003606D01*
X009904Y003542D01*
X009714Y003523D01*
X009714Y003379D01*
X009904Y003359D01*
X009925Y003295D01*
X009956Y003236D01*
X009835Y003087D01*
X009936Y002985D01*
X010085Y003106D01*
X010145Y003076D01*
X010229Y003280D01*
X010192Y003301D01*
X010160Y003331D01*
X010136Y003367D01*
X010121Y003408D01*
X010115Y003451D01*
X010121Y003495D01*
X010136Y003536D01*
X010161Y003572D01*
X010194Y003602D01*
X010233Y003623D01*
X010276Y003634D01*
X010320Y003634D01*
X010363Y003624D01*
X010402Y003604D01*
X010436Y003575D01*
X010462Y003540D01*
X010478Y003499D01*
X010484Y003455D01*
X010480Y003411D01*
X010465Y003369D01*
X010441Y003332D01*
X010409Y003302D01*
X010371Y003280D01*
X010455Y003076D01*
X010515Y003106D01*
X010664Y002985D01*
X010765Y003087D01*
X010644Y003236D01*
X010675Y003295D01*
X010696Y003359D01*
X010886Y003379D01*
X010886Y003523D01*
X010696Y003542D01*
X010675Y003606D01*
X010644Y003666D01*
X010765Y003814D01*
X010745Y003789D02*
X009855Y003789D01*
X009867Y003847D02*
X010022Y003847D01*
X009951Y003904D02*
X009924Y003904D01*
X009902Y003731D02*
X010698Y003731D01*
X010651Y003674D02*
X009949Y003674D01*
X009930Y003616D02*
X010221Y003616D01*
X010152Y003559D02*
X009910Y003559D01*
X009714Y003501D02*
X010123Y003501D01*
X010116Y003444D02*
X009714Y003444D01*
X009714Y003386D02*
X010128Y003386D01*
X010162Y003329D02*
X009914Y003329D01*
X009937Y003271D02*
X010226Y003271D01*
X010202Y003213D02*
X009938Y003213D01*
X009891Y003156D02*
X010178Y003156D01*
X010154Y003098D02*
X010101Y003098D01*
X010075Y003098D02*
X009844Y003098D01*
X009881Y003041D02*
X010004Y003041D01*
X010398Y003213D02*
X010662Y003213D01*
X010663Y003271D02*
X010374Y003271D01*
X010438Y003329D02*
X010686Y003329D01*
X010709Y003156D02*
X010422Y003156D01*
X010446Y003098D02*
X010499Y003098D01*
X010525Y003098D02*
X010756Y003098D01*
X010719Y003041D02*
X010596Y003041D01*
X010471Y003386D02*
X010886Y003386D01*
X010886Y003444D02*
X010483Y003444D01*
X010477Y003501D02*
X010886Y003501D01*
X010690Y003559D02*
X010448Y003559D01*
X010379Y003616D02*
X010670Y003616D01*
X010733Y003847D02*
X010578Y003847D01*
X010649Y003904D02*
X010676Y003904D01*
X010391Y003847D02*
X010209Y003847D01*
X010215Y003904D02*
X010385Y003904D01*
X010380Y003962D02*
X010220Y003962D01*
X010226Y004019D02*
X010374Y004019D01*
D71*
X003572Y014750D03*
D72*
X006800Y014451D03*
X006800Y015451D03*
X006800Y016451D03*
X006800Y017451D03*
X006800Y018451D03*
X006800Y019451D03*
X006800Y020451D03*
X006800Y021451D03*
X006800Y022451D03*
X006800Y023451D03*
X021300Y023451D03*
X021300Y022451D03*
X021300Y021451D03*
X021300Y020451D03*
X021300Y019451D03*
X021300Y018451D03*
X021300Y017451D03*
X021300Y016451D03*
X021300Y015451D03*
X021300Y014451D03*
D73*
X017013Y016730D03*
X016875Y015982D03*
X015753Y016297D03*
X015694Y016297D03*
X015536Y016297D03*
X015398Y016730D03*
X014335Y016730D03*
X014355Y016297D03*
X014414Y016297D03*
X013745Y015982D03*
X013450Y015982D03*
X013587Y016297D03*
X013135Y016730D03*
X013450Y017026D03*
X013450Y017341D03*
X014040Y018069D03*
X014414Y018384D03*
X014788Y018069D03*
X014946Y017774D03*
X015083Y017774D03*
X015910Y018384D03*
X015831Y019112D03*
X015674Y019112D03*
X015989Y019112D03*
X015674Y019722D03*
X014926Y019722D03*
X014867Y019427D03*
X014119Y019722D03*
X013076Y020766D03*
X013076Y021514D03*
X013371Y021514D03*
X013450Y021514D03*
X012780Y021514D03*
X012406Y021514D03*
X012111Y021514D03*
X011954Y021514D03*
X011658Y021514D03*
X011658Y020156D03*
X011580Y018384D03*
X012406Y017341D03*
X012702Y018069D03*
X012702Y018384D03*
X012406Y015982D03*
X012111Y015982D03*
X011954Y015982D03*
X011658Y015982D03*
X015241Y020766D03*
X015379Y020766D03*
X015694Y021199D03*
X015831Y021199D03*
X016127Y021514D03*
X016422Y021514D03*
X016580Y021514D03*
X016875Y021514D03*
X014946Y021199D03*
X014709Y021514D03*
X016717Y018384D03*
D74*
X016206Y017301D03*
X016206Y017281D03*
X016206Y017242D03*
X016206Y017222D03*
X016206Y017203D03*
X016501Y020470D03*
X016501Y020490D03*
X016501Y020510D03*
X016501Y020530D03*
X016501Y020549D03*
X016501Y020569D03*
X016501Y020589D03*
X016501Y021376D03*
X016501Y021396D03*
X016501Y021415D03*
X016501Y021435D03*
X016501Y021455D03*
X016501Y021474D03*
X016501Y021494D03*
X012032Y021494D03*
X012032Y021474D03*
X012032Y021455D03*
X012032Y021435D03*
X012032Y021415D03*
X012032Y021396D03*
X012032Y021376D03*
X012032Y020589D03*
X012032Y020569D03*
X012032Y020549D03*
X012032Y020530D03*
X012032Y020510D03*
X012032Y020490D03*
X012032Y020470D03*
X012328Y017183D03*
X012032Y017026D03*
X012032Y017006D03*
X012032Y016986D03*
X012032Y016967D03*
X012032Y016947D03*
X012032Y016927D03*
X012032Y016907D03*
X012032Y016120D03*
X012032Y016100D03*
X012032Y016081D03*
X012032Y016061D03*
X012032Y016041D03*
X012032Y016022D03*
X012032Y016002D03*
D75*
X011589Y016159D03*
X011589Y016179D03*
X011589Y016199D03*
X011589Y016238D03*
X011589Y016258D03*
X011589Y016278D03*
X011589Y016297D03*
X011589Y016317D03*
X011589Y016337D03*
X011589Y016356D03*
X011589Y016376D03*
X011589Y016396D03*
X011589Y016415D03*
X011589Y016455D03*
X011589Y016474D03*
X011589Y016494D03*
X011589Y016533D03*
X011589Y016553D03*
X011589Y016573D03*
X011589Y016612D03*
X011589Y016632D03*
X011589Y016652D03*
X011589Y016671D03*
X011589Y016691D03*
X011589Y016711D03*
X011589Y016730D03*
X011589Y016750D03*
X011589Y016770D03*
X011589Y016789D03*
X011589Y016829D03*
X011589Y016848D03*
X011589Y016868D03*
X011589Y017341D03*
X011589Y017360D03*
X011589Y017380D03*
X011589Y017400D03*
X011589Y017419D03*
X011589Y017439D03*
X011589Y017459D03*
X011885Y017459D03*
X011885Y017439D03*
X011885Y017419D03*
X011885Y017400D03*
X011885Y017380D03*
X011885Y017360D03*
X012180Y017360D03*
X012180Y017380D03*
X012180Y017400D03*
X012180Y017419D03*
X012180Y017439D03*
X012180Y017459D03*
X011885Y017656D03*
X011885Y017675D03*
X011885Y017695D03*
X011885Y017715D03*
X011885Y017734D03*
X011885Y017754D03*
X011727Y017813D03*
X011727Y017833D03*
X011727Y017852D03*
X011727Y017872D03*
X011727Y017892D03*
X012180Y017951D03*
X012180Y017970D03*
X012180Y017990D03*
X012180Y018010D03*
X012180Y018030D03*
X012180Y018049D03*
X012180Y018069D03*
X012475Y018404D03*
X012475Y018423D03*
X012475Y018443D03*
X012475Y018463D03*
X012475Y018482D03*
X012475Y018502D03*
X012475Y018522D03*
X012180Y018541D03*
X012180Y018561D03*
X012180Y018581D03*
X012180Y018600D03*
X012180Y018620D03*
X012180Y018640D03*
X012180Y018659D03*
X012180Y018974D03*
X012180Y018994D03*
X012180Y019014D03*
X012180Y019033D03*
X012180Y019053D03*
X012180Y019073D03*
X012180Y019093D03*
X012180Y019289D03*
X012180Y019309D03*
X012180Y019329D03*
X012180Y019348D03*
X012180Y019368D03*
X012180Y019388D03*
X012180Y019407D03*
X012475Y019407D03*
X012475Y019388D03*
X012475Y019368D03*
X012475Y019348D03*
X012475Y019329D03*
X012475Y019309D03*
X012475Y019289D03*
X012633Y019250D03*
X012633Y019230D03*
X012633Y019211D03*
X012633Y019171D03*
X012633Y019152D03*
X012770Y019112D03*
X012770Y019093D03*
X012770Y019073D03*
X012770Y019053D03*
X012770Y019033D03*
X012770Y019014D03*
X012770Y018994D03*
X012633Y018955D03*
X012633Y018935D03*
X012633Y018915D03*
X012633Y018876D03*
X012633Y018856D03*
X012633Y018837D03*
X012475Y018994D03*
X012475Y019014D03*
X012475Y019033D03*
X012475Y019053D03*
X012475Y019073D03*
X012475Y019093D03*
X012770Y019289D03*
X012770Y019309D03*
X012770Y019329D03*
X012770Y019348D03*
X012770Y019368D03*
X012770Y019388D03*
X012633Y019447D03*
X012633Y019467D03*
X012633Y019486D03*
X012633Y019506D03*
X012633Y019526D03*
X012633Y019545D03*
X012633Y019742D03*
X012633Y019762D03*
X012633Y019781D03*
X012633Y019801D03*
X012633Y019821D03*
X012633Y019841D03*
X012475Y020175D03*
X012475Y020195D03*
X012475Y020215D03*
X012475Y020234D03*
X012475Y020254D03*
X012475Y020274D03*
X012475Y020293D03*
X012475Y020313D03*
X012770Y020313D03*
X012770Y020293D03*
X012770Y020274D03*
X012770Y020254D03*
X012770Y020234D03*
X012770Y020215D03*
X012770Y020195D03*
X012770Y020470D03*
X012770Y020490D03*
X012770Y020510D03*
X012770Y020530D03*
X012770Y020549D03*
X012770Y020569D03*
X012770Y020589D03*
X012770Y020608D03*
X012770Y020766D03*
X012770Y020785D03*
X012770Y020805D03*
X012770Y020825D03*
X012770Y020844D03*
X012770Y020864D03*
X012770Y020884D03*
X012475Y020884D03*
X012475Y020904D03*
X012475Y020923D03*
X012475Y020943D03*
X012475Y020963D03*
X012475Y020982D03*
X012475Y021002D03*
X012475Y021022D03*
X012475Y021041D03*
X012475Y021061D03*
X012475Y021081D03*
X012475Y021100D03*
X012475Y021120D03*
X012475Y021140D03*
X012475Y021159D03*
X012475Y021179D03*
X012475Y021199D03*
X012475Y021219D03*
X012475Y021238D03*
X012475Y021258D03*
X012475Y021278D03*
X012475Y021297D03*
X012475Y021317D03*
X012475Y021337D03*
X012770Y021376D03*
X012770Y021396D03*
X012770Y021415D03*
X012770Y021435D03*
X012770Y021455D03*
X012770Y021474D03*
X012770Y021494D03*
X012475Y020864D03*
X012475Y020844D03*
X012475Y020825D03*
X012475Y020805D03*
X012475Y020785D03*
X012475Y020766D03*
X012475Y020746D03*
X012475Y020726D03*
X012475Y020707D03*
X012475Y020687D03*
X012475Y020667D03*
X012475Y020648D03*
X012475Y020628D03*
X011885Y019998D03*
X011885Y019978D03*
X011885Y019959D03*
X011885Y019939D03*
X011885Y019919D03*
X011885Y019900D03*
X011885Y019880D03*
X011885Y019407D03*
X011885Y019388D03*
X011885Y019368D03*
X011885Y019348D03*
X011885Y019329D03*
X011885Y019309D03*
X011885Y019289D03*
X011885Y019112D03*
X011885Y019093D03*
X011885Y019073D03*
X011885Y019053D03*
X011885Y019033D03*
X011885Y019014D03*
X011885Y018994D03*
X011589Y018994D03*
X011589Y019014D03*
X011589Y019033D03*
X011589Y019053D03*
X011589Y019073D03*
X011589Y019093D03*
X011589Y019112D03*
X011589Y019132D03*
X011589Y019152D03*
X011589Y019171D03*
X011589Y019211D03*
X011589Y019230D03*
X011589Y019250D03*
X011589Y019270D03*
X011589Y020628D03*
X011589Y020648D03*
X011589Y020667D03*
X011589Y020707D03*
X011589Y020726D03*
X011589Y020746D03*
X011589Y020766D03*
X011589Y020785D03*
X011589Y020805D03*
X011589Y020825D03*
X011589Y020844D03*
X011589Y020864D03*
X011589Y020884D03*
X011589Y020923D03*
X011589Y020943D03*
X011589Y020963D03*
X011589Y021002D03*
X011589Y021022D03*
X011589Y021041D03*
X011589Y021081D03*
X011589Y021100D03*
X011589Y021120D03*
X011589Y021140D03*
X011589Y021159D03*
X011589Y021179D03*
X011589Y021199D03*
X011589Y021219D03*
X011589Y021238D03*
X011589Y021258D03*
X011589Y021297D03*
X011589Y021317D03*
X011589Y021337D03*
X013223Y019998D03*
X013223Y019978D03*
X013223Y019959D03*
X013223Y019939D03*
X013223Y019919D03*
X013223Y019900D03*
X013223Y019880D03*
X013519Y019880D03*
X013519Y019900D03*
X013519Y019919D03*
X013519Y019939D03*
X013519Y019959D03*
X013519Y019978D03*
X013519Y019998D03*
X013676Y020195D03*
X013676Y020215D03*
X013676Y020254D03*
X013676Y020274D03*
X013676Y020293D03*
X013676Y020313D03*
X013676Y020470D03*
X013676Y020490D03*
X013676Y020510D03*
X013676Y020530D03*
X013676Y020549D03*
X013676Y020569D03*
X013676Y020589D03*
X013971Y020589D03*
X013971Y020608D03*
X013971Y020628D03*
X013971Y020648D03*
X013971Y020667D03*
X013971Y020687D03*
X013971Y020707D03*
X013971Y020726D03*
X013971Y020746D03*
X013971Y020569D03*
X013971Y020549D03*
X013971Y020530D03*
X013971Y020510D03*
X013971Y020490D03*
X013971Y020470D03*
X014267Y020470D03*
X014267Y020490D03*
X014267Y020510D03*
X014267Y020530D03*
X014267Y020549D03*
X014267Y020569D03*
X014267Y020589D03*
X014562Y020589D03*
X014562Y020569D03*
X014562Y020549D03*
X014562Y020530D03*
X014562Y020510D03*
X014562Y020490D03*
X014562Y020470D03*
X014857Y020470D03*
X014857Y020451D03*
X014857Y020431D03*
X014857Y020411D03*
X014857Y020392D03*
X014857Y020372D03*
X014857Y020352D03*
X014857Y020333D03*
X014857Y020490D03*
X014857Y020510D03*
X014857Y020530D03*
X014857Y020549D03*
X014857Y020569D03*
X014857Y020589D03*
X014857Y020628D03*
X014857Y020648D03*
X014857Y020667D03*
X014857Y020687D03*
X014857Y020707D03*
X014857Y020726D03*
X014857Y020746D03*
X014857Y020785D03*
X014857Y020805D03*
X014857Y020825D03*
X014857Y020844D03*
X014857Y020864D03*
X014857Y020884D03*
X014857Y020904D03*
X014562Y020923D03*
X014562Y020943D03*
X014562Y020963D03*
X014562Y020982D03*
X014562Y021002D03*
X014562Y021022D03*
X014562Y021041D03*
X014562Y021061D03*
X014562Y021081D03*
X014562Y021100D03*
X014562Y021120D03*
X014562Y021140D03*
X014562Y021159D03*
X014562Y021179D03*
X014562Y021199D03*
X014719Y021356D03*
X014719Y021376D03*
X014719Y021396D03*
X014719Y021415D03*
X014719Y021455D03*
X014719Y021474D03*
X014719Y021494D03*
X014267Y021179D03*
X014267Y021159D03*
X014267Y021140D03*
X014267Y021120D03*
X014267Y021100D03*
X014267Y021081D03*
X013971Y021376D03*
X013971Y021396D03*
X013971Y021415D03*
X013971Y021435D03*
X013971Y021455D03*
X013971Y021474D03*
X013971Y021494D03*
X013381Y020589D03*
X013381Y020569D03*
X013381Y020549D03*
X013381Y020510D03*
X013381Y020490D03*
X013381Y020431D03*
X013381Y020411D03*
X013381Y020372D03*
X013381Y020352D03*
X013381Y020333D03*
X013814Y019841D03*
X013814Y019821D03*
X013814Y019801D03*
X013814Y019781D03*
X013814Y019762D03*
X013814Y019742D03*
X013814Y019722D03*
X013676Y019703D03*
X013676Y019683D03*
X013676Y019663D03*
X013676Y019624D03*
X013676Y019604D03*
X013676Y019585D03*
X013814Y019545D03*
X013814Y019526D03*
X013814Y019506D03*
X013814Y019486D03*
X013814Y019467D03*
X013814Y019447D03*
X013814Y019427D03*
X013676Y019388D03*
X013676Y019368D03*
X013676Y019329D03*
X013676Y019309D03*
X013676Y019289D03*
X013381Y019230D03*
X013381Y019211D03*
X013381Y019171D03*
X013381Y019152D03*
X013381Y018797D03*
X013381Y018778D03*
X013381Y018758D03*
X013381Y018738D03*
X013381Y018719D03*
X013381Y018699D03*
X013381Y018502D03*
X013381Y018482D03*
X013381Y018463D03*
X013381Y018423D03*
X013381Y018404D03*
X013223Y018364D03*
X013223Y018344D03*
X013223Y018325D03*
X013223Y018305D03*
X013223Y018285D03*
X013223Y018266D03*
X013223Y018246D03*
X013223Y018226D03*
X013223Y018207D03*
X013223Y018187D03*
X013223Y018167D03*
X013223Y018148D03*
X013223Y018128D03*
X013223Y018108D03*
X013223Y018089D03*
X013676Y018108D03*
X013676Y018128D03*
X013676Y018167D03*
X013676Y018187D03*
X013676Y018207D03*
X013676Y018226D03*
X013676Y018541D03*
X013676Y018561D03*
X013676Y018581D03*
X013676Y018620D03*
X013676Y018640D03*
X013676Y018659D03*
X013814Y018699D03*
X013814Y018719D03*
X013814Y018738D03*
X013814Y018758D03*
X013814Y018778D03*
X013814Y018797D03*
X014267Y018797D03*
X014267Y018778D03*
X014267Y018758D03*
X014267Y018738D03*
X014267Y018719D03*
X014267Y018699D03*
X014562Y018679D03*
X014562Y018659D03*
X014562Y018640D03*
X014562Y018620D03*
X014562Y018600D03*
X014562Y018581D03*
X014562Y018561D03*
X014562Y018541D03*
X014857Y018541D03*
X014857Y018561D03*
X014857Y018581D03*
X014857Y018600D03*
X014857Y018620D03*
X014857Y018640D03*
X014857Y018659D03*
X014857Y018679D03*
X015015Y018817D03*
X015015Y018837D03*
X015015Y018856D03*
X015015Y018876D03*
X015015Y018896D03*
X015015Y018915D03*
X015015Y018935D03*
X015015Y018955D03*
X015015Y018974D03*
X015015Y018994D03*
X015015Y019014D03*
X015015Y019033D03*
X015015Y019053D03*
X015015Y019073D03*
X015015Y019093D03*
X014857Y019289D03*
X014857Y019309D03*
X014857Y019329D03*
X014857Y019348D03*
X014857Y019368D03*
X014857Y019388D03*
X015152Y018679D03*
X015152Y018640D03*
X015152Y018620D03*
X015152Y018600D03*
X015152Y018581D03*
X015152Y018561D03*
X015152Y018502D03*
X015152Y018482D03*
X015152Y018463D03*
X015152Y018443D03*
X015152Y018423D03*
X015152Y018404D03*
X015605Y018699D03*
X015605Y018719D03*
X015605Y018738D03*
X015605Y018758D03*
X015605Y018778D03*
X015605Y018797D03*
X015763Y018640D03*
X015763Y018620D03*
X015763Y018581D03*
X015763Y018561D03*
X015763Y018541D03*
X015763Y018522D03*
X015900Y018364D03*
X015900Y018344D03*
X015900Y018325D03*
X015900Y018305D03*
X015900Y018285D03*
X015900Y018266D03*
X015900Y018246D03*
X015900Y018226D03*
X015763Y017911D03*
X015763Y017892D03*
X015763Y017872D03*
X015763Y017833D03*
X015763Y017813D03*
X015900Y017616D03*
X015900Y017596D03*
X015900Y017577D03*
X015900Y017557D03*
X015900Y017537D03*
X015900Y017518D03*
X015900Y017498D03*
X015763Y017163D03*
X015763Y017144D03*
X015763Y017124D03*
X015763Y017085D03*
X015763Y017065D03*
X015763Y017006D03*
X015763Y016986D03*
X015763Y016947D03*
X015763Y016927D03*
X015763Y016907D03*
X015763Y016868D03*
X015763Y016848D03*
X015763Y016829D03*
X015763Y016789D03*
X015763Y016770D03*
X016058Y016888D03*
X016058Y016907D03*
X016058Y016927D03*
X016058Y016947D03*
X016058Y016967D03*
X016058Y016986D03*
X016058Y017006D03*
X016058Y017026D03*
X016353Y017045D03*
X016353Y017065D03*
X016353Y017085D03*
X016353Y017104D03*
X016353Y017124D03*
X016353Y017144D03*
X016353Y017163D03*
X016353Y016868D03*
X016353Y016848D03*
X016353Y016829D03*
X016353Y016809D03*
X016353Y016789D03*
X016353Y016770D03*
X016353Y016750D03*
X016353Y016415D03*
X016353Y016396D03*
X016353Y016376D03*
X016353Y016356D03*
X016353Y016337D03*
X016353Y016317D03*
X016353Y016297D03*
X016648Y016297D03*
X016648Y016278D03*
X016648Y016258D03*
X016648Y016238D03*
X016648Y016219D03*
X016648Y016199D03*
X016648Y016179D03*
X016648Y016159D03*
X016648Y016317D03*
X016648Y016337D03*
X016648Y016356D03*
X016648Y016376D03*
X016648Y016396D03*
X016648Y016415D03*
X016648Y016435D03*
X016648Y016455D03*
X016648Y016474D03*
X016648Y016494D03*
X016648Y016514D03*
X016648Y016533D03*
X016648Y016553D03*
X016648Y016573D03*
X016806Y016612D03*
X016806Y016632D03*
X016806Y016652D03*
X016806Y016671D03*
X016806Y016691D03*
X016806Y016711D03*
X016944Y017045D03*
X016944Y017065D03*
X016944Y017085D03*
X016944Y017104D03*
X016944Y017124D03*
X016944Y017144D03*
X016944Y017163D03*
X016944Y017183D03*
X016648Y017163D03*
X016648Y017144D03*
X016648Y017124D03*
X016648Y017104D03*
X016648Y017085D03*
X016648Y017065D03*
X016648Y017045D03*
X016806Y017498D03*
X016806Y017518D03*
X016806Y017537D03*
X016806Y017577D03*
X016806Y017596D03*
X016944Y017656D03*
X016944Y017675D03*
X016944Y017695D03*
X016944Y017715D03*
X016944Y017734D03*
X016944Y017754D03*
X016648Y017951D03*
X016648Y017970D03*
X016648Y017990D03*
X016648Y018010D03*
X016648Y018030D03*
X016648Y018049D03*
X016648Y018069D03*
X016648Y018089D03*
X016648Y018108D03*
X016648Y018128D03*
X016648Y018148D03*
X016648Y018167D03*
X016648Y018187D03*
X016648Y018207D03*
X016353Y018207D03*
X016353Y018226D03*
X016353Y018187D03*
X016353Y018167D03*
X016353Y018148D03*
X016353Y018128D03*
X016353Y018108D03*
X016353Y018089D03*
X016196Y018561D03*
X016196Y018581D03*
X016196Y018600D03*
X016196Y018620D03*
X016196Y018640D03*
X016353Y018699D03*
X016353Y018719D03*
X016353Y018738D03*
X016353Y018758D03*
X016353Y018778D03*
X016353Y018797D03*
X016196Y018856D03*
X016196Y018876D03*
X016196Y018896D03*
X016196Y018915D03*
X016196Y018935D03*
X016196Y018994D03*
X016196Y019014D03*
X016196Y019033D03*
X016196Y019053D03*
X016196Y019073D03*
X016196Y019093D03*
X015900Y019289D03*
X015900Y019309D03*
X015900Y019329D03*
X015900Y019348D03*
X015900Y019368D03*
X015900Y019388D03*
X015605Y019585D03*
X015605Y019604D03*
X015605Y019624D03*
X015605Y019644D03*
X015605Y019663D03*
X015605Y019683D03*
X015605Y019703D03*
X015763Y019880D03*
X015763Y019900D03*
X015763Y019919D03*
X015763Y019959D03*
X015763Y019978D03*
X015763Y019998D03*
X015763Y020018D03*
X015900Y020175D03*
X015900Y020195D03*
X015900Y020215D03*
X015900Y020234D03*
X015900Y020254D03*
X015900Y020274D03*
X015900Y020293D03*
X015763Y020333D03*
X015763Y020352D03*
X015763Y020372D03*
X015763Y020411D03*
X015763Y020431D03*
X015763Y020490D03*
X015763Y020510D03*
X015763Y020549D03*
X015763Y020569D03*
X015763Y020589D03*
X015763Y020608D03*
X015605Y020766D03*
X015605Y020785D03*
X015605Y020805D03*
X015605Y020825D03*
X015605Y020844D03*
X015605Y020864D03*
X015605Y020884D03*
X015605Y020904D03*
X015605Y020923D03*
X015605Y020943D03*
X015605Y020963D03*
X015605Y020982D03*
X015605Y021002D03*
X015605Y021022D03*
X015605Y021041D03*
X015763Y021219D03*
X015763Y021238D03*
X015763Y021258D03*
X015763Y021297D03*
X015763Y021317D03*
X015763Y021337D03*
X015763Y021356D03*
X016058Y021337D03*
X016058Y021317D03*
X016058Y021297D03*
X016058Y021278D03*
X016058Y021258D03*
X016058Y021238D03*
X016058Y021219D03*
X016058Y021199D03*
X016058Y021179D03*
X016058Y021159D03*
X016058Y021140D03*
X016058Y021120D03*
X016058Y021100D03*
X016058Y021081D03*
X016058Y021061D03*
X016058Y021041D03*
X016058Y021022D03*
X016058Y021002D03*
X016058Y020982D03*
X016058Y020963D03*
X016058Y020943D03*
X016058Y020923D03*
X016058Y020904D03*
X016058Y020884D03*
X016058Y020864D03*
X016058Y020844D03*
X016058Y020825D03*
X016058Y020805D03*
X016058Y020785D03*
X016058Y020766D03*
X016058Y020746D03*
X016058Y020726D03*
X016058Y020707D03*
X016058Y020687D03*
X016058Y020667D03*
X016058Y020648D03*
X016058Y020628D03*
X015310Y020628D03*
X015310Y020648D03*
X015310Y020667D03*
X015310Y020687D03*
X015310Y020707D03*
X015310Y020726D03*
X015310Y020746D03*
X015152Y020589D03*
X015152Y020569D03*
X015152Y020549D03*
X015152Y020530D03*
X015152Y020510D03*
X015152Y020490D03*
X015152Y020431D03*
X015152Y020411D03*
X015152Y020392D03*
X015152Y020372D03*
X015152Y020352D03*
X015152Y020333D03*
X015152Y020274D03*
X015152Y020254D03*
X015152Y020234D03*
X015152Y020215D03*
X015152Y020195D03*
X013971Y019998D03*
X013971Y019978D03*
X013971Y019959D03*
X013971Y019939D03*
X013971Y019919D03*
X013971Y019900D03*
X013971Y019880D03*
X012928Y019545D03*
X012928Y019526D03*
X012928Y019506D03*
X012928Y019486D03*
X012928Y019467D03*
X012928Y019447D03*
X013814Y017754D03*
X013814Y017734D03*
X013814Y017715D03*
X013814Y017695D03*
X013814Y017675D03*
X013814Y017656D03*
X013814Y017636D03*
X014562Y017321D03*
X014562Y017301D03*
X014562Y017281D03*
X014562Y017262D03*
X014562Y017242D03*
X014562Y017222D03*
X014562Y017203D03*
X014562Y016868D03*
X014562Y016848D03*
X014562Y016829D03*
X014562Y016809D03*
X014562Y016789D03*
X014562Y016770D03*
X014562Y016750D03*
X014857Y016750D03*
X014857Y016770D03*
X014857Y016789D03*
X014857Y016809D03*
X014857Y016829D03*
X014857Y016848D03*
X014857Y016868D03*
X015152Y016848D03*
X015152Y016829D03*
X015152Y016809D03*
X015152Y016789D03*
X015152Y016770D03*
X015152Y016711D03*
X015152Y016691D03*
X015152Y016671D03*
X015152Y016652D03*
X015152Y016632D03*
X015152Y016612D03*
X014857Y016258D03*
X014857Y016238D03*
X014857Y016219D03*
X014857Y016199D03*
X014857Y016179D03*
X014857Y016159D03*
X015015Y016120D03*
X015015Y016100D03*
X015015Y016081D03*
X015015Y016061D03*
X015015Y016041D03*
X015015Y016022D03*
X015015Y016002D03*
X015310Y016002D03*
X015310Y016022D03*
X015310Y016041D03*
X015310Y016061D03*
X015310Y016081D03*
X015310Y016100D03*
X015310Y016120D03*
X015763Y016140D03*
X015763Y016159D03*
X015763Y016179D03*
X015763Y016199D03*
X015763Y016238D03*
X015763Y016258D03*
X015763Y016278D03*
X015900Y016297D03*
X015900Y016317D03*
X015900Y016337D03*
X015900Y016356D03*
X015900Y016376D03*
X015900Y016396D03*
X015900Y016415D03*
X015015Y017793D03*
X015015Y017813D03*
X015015Y017833D03*
X015015Y017852D03*
X015015Y017872D03*
X015015Y017892D03*
X015015Y017911D03*
X015015Y017931D03*
X013676Y016711D03*
X013676Y016691D03*
X013676Y016671D03*
X013676Y016652D03*
X013676Y016632D03*
X013676Y016612D03*
X013519Y016573D03*
X013519Y016553D03*
X013519Y016533D03*
X013519Y016514D03*
X013519Y016494D03*
X013519Y016474D03*
X013519Y016455D03*
X013519Y016278D03*
X013519Y016258D03*
X013519Y016238D03*
X013519Y016219D03*
X013519Y016199D03*
X013519Y016179D03*
X013519Y016159D03*
X013381Y016612D03*
X013381Y016632D03*
X013381Y016652D03*
X013381Y016691D03*
X013381Y016711D03*
X012928Y016711D03*
X012928Y016691D03*
X012928Y016671D03*
X012928Y016652D03*
X012928Y016632D03*
X012928Y016612D03*
X012770Y017065D03*
X012770Y017085D03*
X012770Y017104D03*
X012770Y017124D03*
X012770Y017144D03*
X012770Y017163D03*
X012475Y016868D03*
X012475Y016848D03*
X012475Y016829D03*
X012475Y016809D03*
X012475Y016789D03*
X012475Y016770D03*
X012475Y016750D03*
X012475Y016730D03*
X012475Y016711D03*
X012475Y016691D03*
X012475Y016671D03*
X012475Y016652D03*
X012475Y016632D03*
X012475Y016612D03*
X012475Y016593D03*
X012475Y016573D03*
X012475Y016553D03*
X012475Y016533D03*
X012475Y016514D03*
X012475Y016494D03*
X012475Y016474D03*
X012475Y016455D03*
X012475Y016435D03*
X012475Y016415D03*
X012475Y016396D03*
X012475Y016376D03*
X012475Y016356D03*
X012475Y016337D03*
X012475Y016317D03*
X012475Y016297D03*
X012475Y016278D03*
X012475Y016258D03*
X012475Y016238D03*
X012475Y016219D03*
X012475Y016199D03*
X012475Y016179D03*
X012475Y016159D03*
X012770Y016120D03*
X012770Y016100D03*
X012770Y016081D03*
X012770Y016061D03*
X012770Y016041D03*
X012770Y016022D03*
X012770Y016002D03*
X016806Y018541D03*
X016806Y018561D03*
X016806Y018581D03*
X016806Y018620D03*
X016806Y018640D03*
X016944Y018699D03*
X016944Y018719D03*
X016944Y018738D03*
X016944Y018758D03*
X016944Y018778D03*
X016944Y018797D03*
X016648Y020037D03*
X016648Y020057D03*
X016648Y020077D03*
X016648Y020096D03*
X016648Y020116D03*
X016648Y020136D03*
X016944Y020175D03*
X016944Y020195D03*
X016944Y020215D03*
X016944Y020234D03*
X016944Y020254D03*
X016944Y020274D03*
X016944Y020293D03*
X016944Y020313D03*
X016944Y020628D03*
X016944Y020648D03*
X016944Y020667D03*
X016944Y020687D03*
X016944Y020707D03*
X016944Y020726D03*
X016944Y020746D03*
X016944Y020766D03*
X016944Y020785D03*
X016944Y020805D03*
X016944Y020825D03*
X016944Y020844D03*
X016944Y020864D03*
X016944Y020884D03*
X016944Y020923D03*
X016944Y020943D03*
X016944Y020963D03*
X016944Y020982D03*
X016944Y021002D03*
X016944Y021022D03*
X016944Y021041D03*
X016944Y021081D03*
X016944Y021100D03*
X016944Y021120D03*
X016944Y021140D03*
X016944Y021159D03*
X016944Y021179D03*
X016944Y021199D03*
X016944Y021219D03*
X016944Y021238D03*
X016944Y021258D03*
X016944Y021278D03*
X016944Y021297D03*
X016944Y021317D03*
X016944Y021337D03*
D76*
X016432Y020018D03*
X016432Y019998D03*
X016432Y019978D03*
X016432Y019959D03*
X016432Y019939D03*
X016432Y019919D03*
X016432Y019900D03*
X016432Y019880D03*
X015979Y016593D03*
X015979Y016573D03*
X015979Y016553D03*
X015979Y016533D03*
X015979Y016514D03*
X015979Y016494D03*
X015979Y016474D03*
X015979Y016455D03*
X015979Y016435D03*
X013440Y016120D03*
X013440Y016100D03*
X013440Y016081D03*
X013440Y016061D03*
X013440Y016041D03*
X013440Y016022D03*
X013440Y016002D03*
X013144Y016435D03*
X012259Y017203D03*
X012259Y017222D03*
X012259Y017242D03*
X012259Y017262D03*
X012259Y017281D03*
X012259Y017301D03*
X012259Y017321D03*
X013302Y017951D03*
X013302Y017970D03*
X013302Y017990D03*
X013302Y018010D03*
X013302Y018030D03*
X013302Y018049D03*
X013302Y021219D03*
X013302Y021238D03*
X013302Y021258D03*
X013302Y021278D03*
X013302Y021297D03*
X013302Y021317D03*
X013302Y021337D03*
D77*
X013440Y021435D03*
X013440Y021494D03*
X013302Y020884D03*
X013302Y020864D03*
X013302Y020844D03*
X013302Y020825D03*
X013302Y020805D03*
X013302Y020785D03*
X013144Y020746D03*
X013144Y020726D03*
X013144Y020707D03*
X013144Y020687D03*
X013144Y020667D03*
X013144Y020648D03*
X013144Y020628D03*
X013144Y020293D03*
X013144Y020274D03*
X013144Y020254D03*
X013144Y020234D03*
X013144Y020215D03*
X013144Y020195D03*
X013144Y020175D03*
X013007Y020136D03*
X013007Y020116D03*
X013007Y020096D03*
X013007Y020077D03*
X013007Y020057D03*
X013007Y020037D03*
X013007Y019841D03*
X013007Y019821D03*
X013007Y019801D03*
X013007Y019781D03*
X013007Y019762D03*
X013007Y019742D03*
X013007Y019722D03*
X013007Y019565D03*
X013440Y019486D03*
X013440Y019781D03*
X013440Y020096D03*
X013893Y020096D03*
X013893Y020077D03*
X013893Y020057D03*
X013893Y020037D03*
X013893Y020018D03*
X013893Y020116D03*
X013893Y020136D03*
X013893Y020156D03*
X014050Y020313D03*
X014050Y020333D03*
X014050Y020352D03*
X014050Y020372D03*
X014050Y020392D03*
X014050Y020411D03*
X014050Y020431D03*
X014050Y020451D03*
X014483Y020628D03*
X014483Y020648D03*
X014483Y020667D03*
X014483Y020687D03*
X014483Y020707D03*
X014483Y020726D03*
X014483Y020746D03*
X014188Y020923D03*
X014188Y020943D03*
X014188Y020963D03*
X014188Y020982D03*
X014188Y021002D03*
X014188Y021022D03*
X014188Y021041D03*
X014188Y021061D03*
X014345Y021376D03*
X014345Y021396D03*
X014345Y021415D03*
X014345Y021435D03*
X014345Y021455D03*
X014345Y021474D03*
X014345Y021494D03*
X015093Y021337D03*
X015093Y021219D03*
X015231Y021041D03*
X015231Y021022D03*
X015231Y021002D03*
X015231Y020982D03*
X015231Y020963D03*
X015231Y020943D03*
X015231Y020923D03*
X015231Y020904D03*
X015389Y021376D03*
X015389Y021396D03*
X015389Y021415D03*
X015389Y021435D03*
X015389Y021455D03*
X015389Y021474D03*
X015389Y021494D03*
X014798Y020313D03*
X014778Y020234D03*
X014641Y020156D03*
X014641Y020136D03*
X014641Y020116D03*
X014641Y020096D03*
X014641Y020077D03*
X014641Y020057D03*
X014641Y020037D03*
X014778Y019703D03*
X014778Y019644D03*
X014483Y019545D03*
X014483Y019526D03*
X014483Y019506D03*
X014483Y019486D03*
X014483Y019467D03*
X014483Y019447D03*
X014483Y019427D03*
X014188Y019585D03*
X014188Y019604D03*
X014188Y019624D03*
X014188Y019644D03*
X014188Y019663D03*
X014188Y019683D03*
X014188Y019703D03*
X013893Y019860D03*
X013735Y019270D03*
X013735Y019191D03*
X013893Y019112D03*
X013893Y019093D03*
X013893Y019073D03*
X013893Y019053D03*
X013893Y019033D03*
X013893Y019014D03*
X013893Y018994D03*
X014188Y018679D03*
X014050Y018226D03*
X014050Y018207D03*
X014050Y018187D03*
X014050Y018167D03*
X014050Y018148D03*
X014050Y018128D03*
X014050Y018108D03*
X014050Y018089D03*
X014188Y017911D03*
X014188Y017892D03*
X014188Y017872D03*
X014188Y017852D03*
X014188Y017833D03*
X014188Y017813D03*
X014188Y017793D03*
X014345Y017616D03*
X014345Y017596D03*
X014345Y017577D03*
X014345Y017557D03*
X014345Y017537D03*
X014345Y017518D03*
X014345Y017498D03*
X014483Y017656D03*
X014483Y017675D03*
X014483Y017695D03*
X014483Y017715D03*
X014483Y017734D03*
X014483Y017754D03*
X014483Y017774D03*
X014188Y017321D03*
X014188Y017301D03*
X014188Y017281D03*
X014188Y017262D03*
X014188Y017242D03*
X014188Y017222D03*
X014188Y017203D03*
X014483Y017163D03*
X014483Y017144D03*
X014483Y017124D03*
X014483Y017104D03*
X014483Y017085D03*
X014483Y017065D03*
X014483Y017045D03*
X014188Y016888D03*
X014188Y016868D03*
X014188Y016848D03*
X014188Y016829D03*
X014188Y016809D03*
X014188Y016789D03*
X014188Y016770D03*
X014188Y016750D03*
X014050Y016711D03*
X014050Y016691D03*
X014050Y016671D03*
X014050Y016652D03*
X014050Y016632D03*
X014050Y016612D03*
X014050Y016415D03*
X014050Y016396D03*
X014050Y016376D03*
X014050Y016356D03*
X014050Y016337D03*
X014050Y016317D03*
X014050Y016297D03*
X014188Y016120D03*
X014188Y016100D03*
X014188Y016081D03*
X014188Y016061D03*
X014188Y016041D03*
X014188Y016022D03*
X014188Y016002D03*
X014483Y016159D03*
X014483Y016179D03*
X014483Y016199D03*
X014483Y016219D03*
X014483Y016238D03*
X014483Y016258D03*
X014483Y016278D03*
X013755Y016750D03*
X013735Y016809D03*
X013735Y017026D03*
X013893Y017360D03*
X013893Y017380D03*
X013893Y017400D03*
X013893Y017419D03*
X013893Y017439D03*
X013893Y017459D03*
X013893Y017478D03*
X013007Y017026D03*
X013007Y017006D03*
X013007Y016986D03*
X013007Y016967D03*
X013007Y016947D03*
X013007Y016927D03*
X013007Y016907D03*
X013007Y016888D03*
X013007Y016868D03*
X013007Y016848D03*
X013007Y016829D03*
X013007Y016809D03*
X013007Y016789D03*
X013007Y016770D03*
X013007Y016750D03*
X012259Y017656D03*
X012259Y017675D03*
X012259Y017695D03*
X012259Y017715D03*
X012259Y017734D03*
X012259Y017754D03*
X012259Y017774D03*
X012101Y018089D03*
X012101Y018108D03*
X012101Y018128D03*
X012101Y018148D03*
X012101Y018167D03*
X012101Y018187D03*
X012101Y018207D03*
X012101Y018226D03*
X012101Y018246D03*
X012101Y018266D03*
X012101Y018285D03*
X012101Y018305D03*
X012101Y018325D03*
X012101Y018344D03*
X012101Y018364D03*
X011668Y018364D03*
X011648Y018305D03*
X011668Y018226D03*
X011668Y018069D03*
X011668Y017931D03*
X011806Y018837D03*
X011806Y018856D03*
X011806Y018876D03*
X011806Y018896D03*
X011806Y018915D03*
X011806Y018935D03*
X011806Y018955D03*
X012101Y019132D03*
X012101Y019152D03*
X012101Y019171D03*
X012101Y019191D03*
X012101Y019211D03*
X012101Y019230D03*
X012101Y019250D03*
X012259Y019427D03*
X012259Y019447D03*
X012259Y019467D03*
X012259Y019486D03*
X012259Y019506D03*
X012259Y019526D03*
X012259Y019545D03*
X012259Y019742D03*
X012259Y019762D03*
X012259Y019781D03*
X012259Y019801D03*
X012259Y019821D03*
X012259Y019841D03*
X012554Y019703D03*
X012554Y019683D03*
X012554Y019663D03*
X012554Y019644D03*
X012554Y019624D03*
X012554Y019604D03*
X012554Y019585D03*
X011806Y019545D03*
X011806Y019526D03*
X011806Y019506D03*
X011806Y019486D03*
X011806Y019467D03*
X011806Y019447D03*
X011806Y019427D03*
X011806Y019742D03*
X011806Y019762D03*
X011806Y019781D03*
X011806Y019801D03*
X011806Y019821D03*
X011806Y019841D03*
X011806Y019860D03*
X012692Y018364D03*
X012692Y018305D03*
X013440Y019053D03*
X013735Y018522D03*
X014641Y018994D03*
X014641Y019014D03*
X014641Y019033D03*
X014641Y019053D03*
X014641Y019073D03*
X014641Y019093D03*
X014641Y019112D03*
X015231Y019289D03*
X015231Y019309D03*
X015231Y019329D03*
X015231Y019348D03*
X015231Y019368D03*
X015231Y019388D03*
X015231Y019407D03*
X015231Y019585D03*
X015231Y019604D03*
X015231Y019624D03*
X015231Y019644D03*
X015231Y019663D03*
X015231Y019683D03*
X015231Y019703D03*
X015389Y019112D03*
X015389Y019093D03*
X015389Y019073D03*
X015389Y019053D03*
X015389Y019033D03*
X015389Y019014D03*
X015389Y018994D03*
X015979Y018797D03*
X015979Y018778D03*
X015979Y018758D03*
X015979Y018738D03*
X015979Y018719D03*
X015979Y018699D03*
X016274Y018522D03*
X016274Y018502D03*
X016274Y018482D03*
X016274Y018463D03*
X016274Y018443D03*
X016274Y018423D03*
X016274Y018404D03*
X016274Y018384D03*
X016727Y018364D03*
X016727Y018344D03*
X016727Y018325D03*
X016727Y018305D03*
X016727Y018285D03*
X016727Y018266D03*
X016727Y018246D03*
X016727Y018226D03*
X016432Y017754D03*
X016432Y017734D03*
X016432Y017715D03*
X016432Y017695D03*
X016432Y017675D03*
X016432Y017656D03*
X016432Y017636D03*
X015979Y017636D03*
X015979Y017656D03*
X015979Y017675D03*
X015979Y017695D03*
X015979Y017715D03*
X015979Y017734D03*
X015979Y017754D03*
X015526Y017754D03*
X015526Y017734D03*
X015526Y017715D03*
X015526Y017695D03*
X015526Y017675D03*
X015526Y017656D03*
X015389Y017931D03*
X015389Y017951D03*
X015389Y017970D03*
X015389Y017990D03*
X015389Y018010D03*
X015389Y018030D03*
X015389Y018049D03*
X015389Y018069D03*
X015093Y018246D03*
X015093Y018364D03*
X014936Y017321D03*
X014936Y017301D03*
X014936Y017281D03*
X014936Y017262D03*
X014936Y017242D03*
X014936Y017222D03*
X014936Y017203D03*
X014936Y017183D03*
X014936Y017163D03*
X014936Y017144D03*
X014936Y017124D03*
X014936Y017104D03*
X014936Y017085D03*
X014936Y017065D03*
X014936Y017045D03*
X015389Y017045D03*
X015389Y017065D03*
X015389Y017085D03*
X015389Y017104D03*
X015389Y017124D03*
X015389Y017144D03*
X015389Y017163D03*
X015389Y017183D03*
X015389Y017203D03*
X015389Y017222D03*
X015389Y017242D03*
X015389Y017262D03*
X015389Y017281D03*
X015389Y017301D03*
X015389Y017321D03*
X015389Y016278D03*
X015389Y016258D03*
X015389Y016238D03*
X015389Y016219D03*
X015389Y016199D03*
X015389Y016179D03*
X015389Y016159D03*
X015389Y016140D03*
X014936Y016140D03*
X016727Y016593D03*
X016865Y016750D03*
X016865Y016809D03*
X016865Y016868D03*
X016865Y018837D03*
X016865Y018896D03*
X016865Y018955D03*
X016865Y019427D03*
X016865Y019486D03*
X016727Y019585D03*
X016727Y019604D03*
X016727Y019624D03*
X016727Y019644D03*
X016727Y019663D03*
X016727Y019683D03*
X016727Y019703D03*
X016432Y019545D03*
X016432Y019526D03*
X016432Y019506D03*
X016432Y019486D03*
X016432Y019467D03*
X016432Y019447D03*
X013597Y020628D03*
X013597Y020648D03*
X013597Y020667D03*
X013597Y020687D03*
X013597Y020707D03*
X013597Y020726D03*
X013597Y020746D03*
D78*
X013528Y020943D03*
X013528Y020963D03*
X013528Y021002D03*
X013528Y021022D03*
X013666Y021081D03*
X013666Y021100D03*
X013666Y021120D03*
X013666Y021140D03*
X013666Y021159D03*
X013666Y021179D03*
X013824Y020884D03*
X013824Y020864D03*
X013824Y020844D03*
X013824Y020825D03*
X013824Y020805D03*
X013824Y020785D03*
X014414Y020785D03*
X014414Y020766D03*
X014414Y020805D03*
X014414Y020825D03*
X014414Y020844D03*
X014414Y020864D03*
X014414Y020884D03*
X014414Y020608D03*
X014119Y021219D03*
X014119Y021238D03*
X014119Y021258D03*
X014119Y021278D03*
X014119Y021297D03*
X014119Y021317D03*
X014119Y021337D03*
X014414Y019860D03*
X014414Y019841D03*
X014414Y019821D03*
X014414Y019801D03*
X014414Y019781D03*
X014414Y019762D03*
X014414Y019742D03*
X014414Y019407D03*
X014414Y019388D03*
X014414Y019368D03*
X014414Y019348D03*
X014414Y019329D03*
X014414Y019309D03*
X014414Y019289D03*
X014709Y019250D03*
X014709Y019230D03*
X014709Y019211D03*
X014709Y019191D03*
X014709Y019171D03*
X014709Y019152D03*
X015162Y019447D03*
X015162Y019467D03*
X015162Y019486D03*
X015162Y019506D03*
X015162Y019526D03*
X015162Y019545D03*
X015005Y019900D03*
X015005Y019919D03*
X015005Y019939D03*
X015005Y019959D03*
X015005Y019978D03*
X015910Y019545D03*
X015910Y019526D03*
X015910Y019506D03*
X015910Y019467D03*
X015910Y019447D03*
X015910Y019427D03*
X016206Y019585D03*
X016206Y019604D03*
X016206Y019624D03*
X016206Y019644D03*
X016206Y019663D03*
X016206Y019683D03*
X016206Y019703D03*
X016501Y020175D03*
X016501Y020195D03*
X016501Y020215D03*
X016501Y020234D03*
X016501Y020254D03*
X016501Y020274D03*
X016501Y020293D03*
X016501Y020313D03*
X016501Y020766D03*
X016501Y020785D03*
X016501Y020805D03*
X016501Y020825D03*
X016501Y020844D03*
X016501Y020864D03*
X016501Y020884D03*
X016501Y020904D03*
X016501Y020923D03*
X016501Y020943D03*
X016501Y020963D03*
X016501Y020982D03*
X016501Y021002D03*
X016501Y021022D03*
X016501Y021041D03*
X016501Y021061D03*
X016501Y021081D03*
X016501Y021100D03*
X016501Y021120D03*
X016501Y021140D03*
X016501Y021159D03*
X016501Y021179D03*
X016501Y021199D03*
X016796Y019841D03*
X016796Y019821D03*
X016796Y019801D03*
X016796Y019781D03*
X016796Y019762D03*
X016796Y019742D03*
X016796Y019722D03*
X015910Y018069D03*
X015910Y018049D03*
X015910Y018030D03*
X015910Y017990D03*
X015910Y017970D03*
X015910Y017951D03*
X016206Y017911D03*
X016206Y017892D03*
X016206Y017872D03*
X016206Y017852D03*
X016206Y017833D03*
X016206Y017813D03*
X016206Y017793D03*
X016796Y017793D03*
X016796Y017813D03*
X016796Y017833D03*
X016796Y017852D03*
X016796Y017872D03*
X016796Y017892D03*
X016796Y017911D03*
X016796Y017931D03*
X016796Y016140D03*
X016796Y016120D03*
X016796Y016100D03*
X016796Y016081D03*
X016796Y016061D03*
X016796Y016041D03*
X016796Y016022D03*
X016796Y016002D03*
X014709Y016612D03*
X014709Y016632D03*
X014709Y016652D03*
X014709Y016671D03*
X014709Y016691D03*
X014709Y016711D03*
X014709Y016907D03*
X014709Y016927D03*
X014709Y016947D03*
X014709Y016967D03*
X014709Y016986D03*
X014709Y017006D03*
X014709Y017360D03*
X014709Y017380D03*
X014709Y017400D03*
X014709Y017419D03*
X014709Y017439D03*
X014709Y017459D03*
X014414Y017951D03*
X014414Y017970D03*
X014414Y017990D03*
X014414Y018010D03*
X014414Y018030D03*
X014414Y018049D03*
X014867Y018108D03*
X014867Y018128D03*
X014867Y018167D03*
X014867Y018187D03*
X014867Y018207D03*
X014709Y018404D03*
X014709Y018423D03*
X014709Y018443D03*
X014709Y018463D03*
X014709Y018482D03*
X014709Y018502D03*
X013371Y017321D03*
X013371Y017301D03*
X013371Y017281D03*
X013371Y017262D03*
X013371Y017242D03*
X013371Y017222D03*
X013371Y017203D03*
X012780Y017656D03*
X012780Y017675D03*
X012780Y017695D03*
X012780Y017715D03*
X012780Y017734D03*
X012780Y017754D03*
X012623Y017596D03*
X012623Y017577D03*
X012623Y017557D03*
X012623Y017537D03*
X012623Y017518D03*
X012623Y018108D03*
X012623Y018128D03*
X012623Y018148D03*
X012623Y018167D03*
X012623Y018187D03*
X012623Y018207D03*
X012623Y018679D03*
X012623Y018699D03*
X012623Y018719D03*
X012623Y018738D03*
X012623Y018758D03*
X012623Y018778D03*
X012623Y018797D03*
X012623Y018817D03*
X012623Y018974D03*
X012623Y019270D03*
X012032Y019270D03*
X011737Y018974D03*
X011737Y018659D03*
X011737Y018640D03*
X011737Y018620D03*
X011737Y018581D03*
X011737Y018561D03*
X011737Y018541D03*
X012032Y016730D03*
X012032Y016711D03*
X012032Y016691D03*
X012032Y016671D03*
X012032Y016652D03*
X012032Y016632D03*
X012032Y016612D03*
X012032Y016593D03*
X012032Y016573D03*
X012032Y016553D03*
X012032Y016533D03*
X012032Y016514D03*
X012032Y016494D03*
X012032Y016474D03*
X012032Y016455D03*
X012032Y016435D03*
X012032Y016415D03*
X012032Y016396D03*
X012032Y016376D03*
X012032Y016356D03*
X012032Y016337D03*
X012032Y016317D03*
X012032Y016297D03*
X012032Y020766D03*
X012032Y020785D03*
X012032Y020805D03*
X012032Y020825D03*
X012032Y020844D03*
X012032Y020864D03*
X012032Y020884D03*
X012032Y020904D03*
X012032Y020923D03*
X012032Y020943D03*
X012032Y020963D03*
X012032Y020982D03*
X012032Y021002D03*
X012032Y021022D03*
X012032Y021041D03*
X012032Y021061D03*
X012032Y021081D03*
X012032Y021100D03*
X012032Y021120D03*
X012032Y021140D03*
X012032Y021159D03*
X012032Y021179D03*
X012032Y021199D03*
D79*
X012022Y021356D03*
X012022Y020608D03*
X012180Y019565D03*
X013223Y021356D03*
X015900Y018817D03*
X015900Y018679D03*
X015605Y017478D03*
X016196Y017321D03*
X016196Y017262D03*
X016196Y017183D03*
X016511Y020608D03*
X016511Y021356D03*
X012022Y016888D03*
X012022Y016140D03*
D80*
X013292Y016140D03*
D81*
X012997Y016455D03*
X012997Y016474D03*
X012997Y016494D03*
X012997Y016514D03*
X012997Y016533D03*
X012997Y016553D03*
X012997Y016573D03*
X013450Y017045D03*
X013450Y017065D03*
X013450Y017085D03*
X013450Y017104D03*
X013450Y017124D03*
X013450Y017144D03*
X013450Y017163D03*
X013450Y017183D03*
X012859Y017360D03*
X012859Y017380D03*
X012859Y017400D03*
X012859Y017419D03*
X012859Y017439D03*
X012859Y017459D03*
X014335Y017636D03*
X014335Y017931D03*
X014946Y018226D03*
X015379Y017636D03*
X014335Y017183D03*
X014926Y016514D03*
X014946Y016455D03*
X014335Y016140D03*
X015536Y018974D03*
X016422Y019289D03*
X016422Y019309D03*
X016422Y019329D03*
X016422Y019348D03*
X016422Y019368D03*
X016422Y019388D03*
X016422Y019407D03*
X016717Y019112D03*
X016717Y019093D03*
X016717Y019073D03*
X016717Y019053D03*
X016717Y019033D03*
X016717Y019014D03*
X016717Y018994D03*
X016127Y019722D03*
X016127Y019742D03*
X016127Y019762D03*
X016127Y019781D03*
X016127Y019801D03*
X016127Y019821D03*
X016127Y019841D03*
X015379Y021061D03*
X015241Y021356D03*
X014198Y021356D03*
X013587Y021061D03*
X013587Y019565D03*
X011954Y019585D03*
X011954Y019604D03*
X011954Y019624D03*
X011954Y019644D03*
X011954Y019663D03*
X011954Y019683D03*
X011954Y019703D03*
X011816Y020175D03*
X011816Y020195D03*
X011816Y020215D03*
X011816Y020254D03*
X011816Y020274D03*
X011816Y020293D03*
X011816Y020313D03*
D82*
X012928Y020923D03*
X012928Y020943D03*
X012928Y020963D03*
X012928Y020982D03*
X012928Y021002D03*
X012928Y021022D03*
X012928Y021041D03*
X012928Y021061D03*
X012928Y021081D03*
X012928Y021100D03*
X012928Y021120D03*
X012928Y021140D03*
X012928Y021159D03*
X012928Y021179D03*
X012928Y021199D03*
X013519Y021041D03*
X013519Y020982D03*
X013519Y020923D03*
X013814Y020766D03*
X013223Y020313D03*
X011885Y018817D03*
X011885Y018797D03*
X011885Y018778D03*
X011885Y018758D03*
X011885Y018738D03*
X011885Y018719D03*
X011885Y018699D03*
X011727Y018600D03*
X011885Y018502D03*
X011885Y018482D03*
X011885Y018463D03*
X011885Y018443D03*
X011885Y018423D03*
X011885Y018404D03*
X011885Y018384D03*
X011885Y017616D03*
X011885Y017596D03*
X011885Y017577D03*
X011885Y017557D03*
X011885Y017537D03*
X011885Y017518D03*
X011885Y017498D03*
X012633Y017498D03*
X012633Y017616D03*
X012633Y018089D03*
X012633Y018226D03*
X013223Y018522D03*
X013223Y018541D03*
X013223Y018561D03*
X013223Y018581D03*
X013223Y018600D03*
X013223Y018620D03*
X013223Y018640D03*
X013223Y018659D03*
X013223Y018679D03*
X014424Y018069D03*
X014719Y018384D03*
X014719Y018522D03*
X014857Y018148D03*
X014857Y018089D03*
X015310Y017616D03*
X015310Y017596D03*
X015310Y017577D03*
X015310Y017557D03*
X015310Y017537D03*
X015310Y017518D03*
X015310Y017498D03*
X015310Y017026D03*
X015310Y017006D03*
X015310Y016986D03*
X015310Y016967D03*
X015310Y016947D03*
X015310Y016927D03*
X015310Y016907D03*
X015310Y016888D03*
X014719Y016888D03*
X014719Y017026D03*
X014719Y016730D03*
X014719Y017341D03*
X013971Y016573D03*
X013971Y016553D03*
X013971Y016533D03*
X013971Y016514D03*
X013971Y016494D03*
X013971Y016474D03*
X013971Y016455D03*
X013971Y016435D03*
X012928Y016278D03*
X012928Y016258D03*
X012928Y016238D03*
X012928Y016219D03*
X012928Y016199D03*
X012928Y016179D03*
X012928Y016159D03*
X014719Y019132D03*
X015152Y019427D03*
X015310Y019722D03*
X015310Y019742D03*
X015310Y019762D03*
X015310Y019781D03*
X015310Y019801D03*
X015310Y019821D03*
X015310Y019841D03*
X015015Y019880D03*
X015015Y019998D03*
X015310Y020608D03*
X015310Y021081D03*
X015310Y021100D03*
X015310Y021120D03*
X015310Y021140D03*
X015310Y021159D03*
X015310Y021179D03*
X015310Y021199D03*
X015900Y019486D03*
X015605Y018955D03*
X015605Y018935D03*
X015605Y018915D03*
X015605Y018896D03*
X015605Y018876D03*
X015605Y018856D03*
X015605Y018837D03*
X015900Y018010D03*
D83*
X015753Y017852D03*
X015753Y017793D03*
X015457Y017793D03*
X015457Y017813D03*
X015457Y017833D03*
X015457Y017852D03*
X015457Y017872D03*
X015457Y017892D03*
X015457Y017911D03*
X015162Y018384D03*
X015162Y018522D03*
X015162Y018541D03*
X015162Y018659D03*
X015457Y018659D03*
X015457Y018640D03*
X015457Y018620D03*
X015457Y018600D03*
X015457Y018581D03*
X015457Y018561D03*
X015457Y018541D03*
X015457Y018522D03*
X015753Y018600D03*
X015753Y018659D03*
X016206Y018659D03*
X016206Y018541D03*
X016206Y018837D03*
X016206Y018955D03*
X016206Y018974D03*
X016206Y019112D03*
X016501Y019132D03*
X016501Y019152D03*
X016501Y019171D03*
X016501Y019191D03*
X016501Y019211D03*
X016501Y019230D03*
X016501Y019250D03*
X015910Y019407D03*
X015753Y019939D03*
X015753Y020392D03*
X015753Y020451D03*
X015753Y020470D03*
X015753Y020530D03*
X015457Y020530D03*
X015457Y020549D03*
X015457Y020569D03*
X015457Y020589D03*
X015457Y020510D03*
X015457Y020490D03*
X015457Y020470D03*
X015162Y020470D03*
X015162Y020451D03*
X015162Y020313D03*
X015162Y020293D03*
X015162Y020175D03*
X014867Y020608D03*
X014867Y020766D03*
X014414Y020313D03*
X014414Y020293D03*
X014414Y020274D03*
X014414Y020254D03*
X014414Y020234D03*
X014414Y020215D03*
X014414Y020195D03*
X014414Y020175D03*
X014119Y020175D03*
X014119Y020195D03*
X014119Y020215D03*
X014119Y020234D03*
X014119Y020254D03*
X014119Y020274D03*
X014119Y020293D03*
X013666Y020234D03*
X013666Y020175D03*
X013371Y020392D03*
X013371Y020451D03*
X013371Y020470D03*
X013371Y020530D03*
X013076Y020530D03*
X013076Y020549D03*
X013076Y020569D03*
X013076Y020589D03*
X013076Y020510D03*
X013076Y020490D03*
X013076Y020470D03*
X013076Y020451D03*
X013076Y020431D03*
X013076Y020411D03*
X013076Y020392D03*
X013076Y020372D03*
X013076Y020352D03*
X013076Y020333D03*
X012780Y020175D03*
X012623Y019722D03*
X012623Y019427D03*
X012780Y019407D03*
X012918Y019427D03*
X013076Y019407D03*
X013076Y019388D03*
X013076Y019368D03*
X013076Y019348D03*
X013076Y019329D03*
X013076Y019309D03*
X013076Y019289D03*
X013076Y019270D03*
X013076Y019250D03*
X013076Y019230D03*
X013076Y019211D03*
X013076Y019191D03*
X013076Y019171D03*
X013076Y019152D03*
X013076Y019132D03*
X013371Y019132D03*
X013371Y019191D03*
X013371Y019250D03*
X013371Y019270D03*
X013666Y019348D03*
X013666Y019407D03*
X013666Y019644D03*
X014119Y019545D03*
X014119Y019526D03*
X014119Y019506D03*
X014119Y019486D03*
X014119Y019467D03*
X014119Y019447D03*
X014119Y019427D03*
X014867Y019407D03*
X015005Y019112D03*
X014414Y018364D03*
X014414Y018344D03*
X014414Y018325D03*
X014414Y018305D03*
X014414Y018285D03*
X014414Y018266D03*
X014414Y018246D03*
X014414Y018226D03*
X014119Y018384D03*
X014119Y018404D03*
X014119Y018423D03*
X014119Y018443D03*
X014119Y018463D03*
X014119Y018482D03*
X014119Y018502D03*
X014119Y018522D03*
X014119Y018541D03*
X014119Y018561D03*
X014119Y018581D03*
X014119Y018600D03*
X014119Y018620D03*
X014119Y018640D03*
X014119Y018659D03*
X013666Y018600D03*
X013371Y018443D03*
X013371Y018384D03*
X013076Y018384D03*
X013076Y018404D03*
X013076Y018423D03*
X013076Y018443D03*
X013076Y018463D03*
X013076Y018482D03*
X013076Y018502D03*
X013076Y018699D03*
X013076Y018719D03*
X013076Y018738D03*
X013076Y018758D03*
X013076Y018778D03*
X013076Y018797D03*
X012623Y018896D03*
X012623Y019132D03*
X012623Y019191D03*
X012485Y019112D03*
X012170Y019112D03*
X011580Y019191D03*
X012032Y020037D03*
X012032Y020057D03*
X012032Y020077D03*
X012032Y020096D03*
X012032Y020116D03*
X012032Y020136D03*
X012032Y020156D03*
X011580Y020687D03*
X011580Y020904D03*
X011580Y020982D03*
X011580Y021061D03*
X011580Y021278D03*
X013076Y021376D03*
X013076Y021396D03*
X013076Y021415D03*
X013076Y021435D03*
X013076Y021455D03*
X013076Y021474D03*
X013076Y021494D03*
X014257Y021199D03*
X014709Y021435D03*
X015457Y021337D03*
X015457Y021317D03*
X015457Y021297D03*
X015457Y021278D03*
X015457Y021258D03*
X015457Y021238D03*
X015457Y021219D03*
X015753Y021278D03*
X016954Y021061D03*
X016954Y020904D03*
X016639Y020156D03*
X016796Y018659D03*
X016796Y018600D03*
X016796Y018522D03*
X016934Y017774D03*
X016796Y017616D03*
X016796Y017557D03*
X016796Y017478D03*
X016501Y017478D03*
X016501Y017459D03*
X016501Y017439D03*
X016501Y017419D03*
X016501Y017400D03*
X016501Y017380D03*
X016501Y017360D03*
X016501Y017341D03*
X016501Y017498D03*
X016501Y017518D03*
X016501Y017537D03*
X016501Y017557D03*
X016501Y017577D03*
X016501Y017596D03*
X016501Y017616D03*
X015753Y017104D03*
X015753Y017045D03*
X015753Y017026D03*
X015753Y016967D03*
X015753Y016888D03*
X015753Y016809D03*
X015753Y016750D03*
X015457Y016750D03*
X015457Y016770D03*
X015457Y016789D03*
X015457Y016809D03*
X015457Y016829D03*
X015457Y016848D03*
X015457Y016868D03*
X015162Y016868D03*
X015162Y016750D03*
X015162Y016730D03*
X014867Y016278D03*
X014414Y016435D03*
X014414Y016455D03*
X014414Y016474D03*
X014414Y016494D03*
X014414Y016514D03*
X014414Y016533D03*
X014414Y016553D03*
X014414Y016573D03*
X013666Y016730D03*
X013371Y016730D03*
X013371Y016671D03*
X012938Y016730D03*
X012780Y017045D03*
X011894Y017341D03*
X011875Y017774D03*
X011737Y017793D03*
X011737Y017911D03*
X012485Y018384D03*
X013666Y018148D03*
X013666Y018089D03*
X013824Y017774D03*
X014119Y017774D03*
X014119Y017754D03*
X014119Y017734D03*
X014119Y017715D03*
X014119Y017695D03*
X014119Y017675D03*
X014119Y017656D03*
X013076Y019585D03*
X013076Y019604D03*
X013076Y019624D03*
X013076Y019644D03*
X013076Y019663D03*
X013076Y019683D03*
X013076Y019703D03*
X011580Y016809D03*
X011580Y016593D03*
X011580Y016514D03*
X011580Y016435D03*
X011580Y016219D03*
X015753Y016219D03*
X016796Y016730D03*
D84*
X016658Y016888D03*
X016048Y016730D03*
X015753Y017341D03*
X015753Y017360D03*
X015753Y017380D03*
X015753Y017400D03*
X015753Y017419D03*
X015753Y017439D03*
X015753Y017459D03*
X016048Y017931D03*
X015753Y019132D03*
X015753Y019152D03*
X015753Y019171D03*
X015753Y019191D03*
X015753Y019211D03*
X015753Y019230D03*
X015753Y019250D03*
X015162Y019860D03*
X014867Y020018D03*
X014572Y019270D03*
X013371Y020608D03*
X012485Y019998D03*
X012485Y019880D03*
X012780Y017478D03*
X013076Y016415D03*
X013076Y016396D03*
X013076Y016376D03*
X013076Y016356D03*
X013076Y016337D03*
X013076Y016317D03*
X013076Y016297D03*
D85*
X013302Y017341D03*
X013302Y017774D03*
X013440Y017774D03*
X013597Y017774D03*
X013144Y017774D03*
X014188Y017341D03*
X014483Y016297D03*
X015389Y016297D03*
X015526Y016730D03*
X016274Y017341D03*
X016727Y017774D03*
X014778Y019722D03*
X014050Y019722D03*
X013007Y020766D03*
X013302Y021199D03*
X014050Y021199D03*
X011806Y020156D03*
X011668Y017774D03*
X016432Y020156D03*
D86*
X016727Y018974D03*
X014936Y016573D03*
X014936Y016435D03*
X014936Y016297D03*
X012849Y017341D03*
X011806Y020234D03*
D87*
X014936Y016553D03*
X014936Y016533D03*
X014936Y016494D03*
X014936Y016474D03*
X014936Y016415D03*
X014936Y016396D03*
X014936Y016376D03*
X014936Y016356D03*
X014936Y016337D03*
X014936Y016317D03*
D88*
X013450Y016593D03*
D89*
X014788Y016593D03*
X013292Y018069D03*
D90*
X011885Y018522D03*
X011885Y018679D03*
X011885Y017478D03*
X012475Y019900D03*
X012475Y019919D03*
X012475Y019939D03*
X012475Y019959D03*
X012475Y019978D03*
X014562Y017478D03*
X016058Y016711D03*
X016058Y016691D03*
X016058Y016671D03*
X016058Y016652D03*
X016058Y016632D03*
X016058Y016612D03*
X016648Y016907D03*
X016648Y016927D03*
X016648Y016947D03*
X016648Y016967D03*
X016648Y016986D03*
X016648Y017006D03*
X016648Y017026D03*
D91*
X016422Y017774D03*
X015536Y017774D03*
X013902Y017341D03*
X013745Y016888D03*
X014040Y016730D03*
X013745Y019132D03*
X013450Y019112D03*
X013450Y019427D03*
X013450Y019722D03*
X013450Y020156D03*
X012997Y020156D03*
X013292Y020766D03*
X012249Y019722D03*
X011816Y019722D03*
X014788Y020175D03*
X015083Y020156D03*
X016422Y019427D03*
D92*
X016875Y019447D03*
X016875Y019467D03*
X016875Y019506D03*
X016875Y019526D03*
X016875Y019545D03*
X016875Y018935D03*
X016875Y018915D03*
X016875Y018876D03*
X016875Y018856D03*
X016875Y018817D03*
X016875Y018679D03*
X016875Y017636D03*
X016875Y016848D03*
X016875Y016829D03*
X016875Y016789D03*
X016875Y016770D03*
X015083Y018266D03*
X015083Y018285D03*
X015083Y018305D03*
X015083Y018325D03*
X015083Y018344D03*
X014788Y019585D03*
X014788Y019604D03*
X014788Y019624D03*
X014788Y019663D03*
X014788Y019683D03*
X015083Y020037D03*
X015083Y020057D03*
X015083Y020077D03*
X015083Y020096D03*
X015083Y020116D03*
X015083Y020136D03*
X014788Y020195D03*
X014788Y020215D03*
X014788Y020254D03*
X014788Y020274D03*
X014788Y020293D03*
X013745Y019250D03*
X013745Y019230D03*
X013745Y019211D03*
X013745Y019171D03*
X013745Y019152D03*
X013450Y019093D03*
X013450Y019073D03*
X013450Y019033D03*
X013450Y019014D03*
X013450Y018994D03*
X013745Y018679D03*
X013745Y018502D03*
X013745Y018482D03*
X013745Y018463D03*
X013745Y018443D03*
X013745Y018423D03*
X013745Y018404D03*
X013745Y018384D03*
X012702Y018344D03*
X012702Y018325D03*
X012702Y018285D03*
X012702Y018266D03*
X012702Y018246D03*
X011658Y018246D03*
X011658Y018266D03*
X011658Y018285D03*
X011658Y018325D03*
X011658Y018344D03*
X011658Y018049D03*
X011658Y018030D03*
X011658Y018010D03*
X011658Y017990D03*
X011658Y017970D03*
X011658Y017951D03*
X013450Y019447D03*
X013450Y019467D03*
X013450Y019506D03*
X013450Y019526D03*
X013450Y019545D03*
X013450Y019742D03*
X013450Y019762D03*
X013450Y019801D03*
X013450Y019821D03*
X013450Y019841D03*
X013450Y020037D03*
X013450Y020057D03*
X013450Y020077D03*
X013450Y020116D03*
X013450Y020136D03*
X013450Y021376D03*
X013450Y021396D03*
X013450Y021415D03*
X013450Y021455D03*
X013450Y021474D03*
X015083Y021317D03*
X015083Y021297D03*
X015083Y021278D03*
X015083Y021258D03*
X015083Y021238D03*
X015831Y020313D03*
X013745Y017006D03*
X013745Y016986D03*
X013745Y016967D03*
X013745Y016947D03*
X013745Y016927D03*
X013745Y016907D03*
X013745Y016868D03*
X013745Y016848D03*
X013745Y016829D03*
X013745Y016789D03*
X013745Y016770D03*
D93*
X012180Y017341D03*
D94*
X012328Y017636D03*
X014709Y019565D03*
D95*
X014414Y019722D03*
X013666Y021199D03*
X012780Y017774D03*
D96*
X015979Y017774D03*
D97*
X015900Y019270D03*
X013814Y018955D03*
X013814Y018935D03*
X013814Y018915D03*
X013814Y018896D03*
X013814Y018876D03*
X013814Y018856D03*
X013814Y018837D03*
X013814Y018817D03*
X013066Y017911D03*
X013066Y017852D03*
X013066Y017793D03*
D98*
X013076Y017813D03*
X013076Y017833D03*
X013076Y017872D03*
X013076Y017892D03*
D99*
X012997Y017931D03*
X012702Y020018D03*
D100*
X013893Y018974D03*
D101*
X012849Y019860D03*
X016274Y019565D03*
D102*
X016353Y019860D03*
D103*
X013666Y020904D03*
M02*
