G75*
%MOIN*%
%OFA0B0*%
%FSLAX24Y24*%
%IPPOS*%
%LPD*%
%AMOC8*
5,1,8,0,0,1.08239X$1,22.5*
%
%ADD10C,0.0600*%
%ADD11R,0.0552X0.0552*%
%ADD12C,0.0680*%
%ADD13C,0.0520*%
%ADD14R,0.0190X0.0249*%
%ADD15R,0.0476X0.0476*%
%ADD16R,0.0437X0.0437*%
%ADD17C,0.0476*%
D10*
X024040Y011451D02*
X024560Y011451D01*
X024560Y012451D02*
X024040Y012451D01*
X024040Y013451D02*
X024560Y013451D01*
X024560Y014451D02*
X024040Y014451D01*
X024040Y015451D02*
X024560Y015451D01*
X024560Y016451D02*
X024040Y016451D01*
D11*
X028382Y019247D03*
X028382Y020074D03*
X029382Y020074D03*
X029382Y019247D03*
X030382Y019247D03*
X030382Y020074D03*
X031382Y020074D03*
X031382Y019247D03*
X032382Y019247D03*
X032382Y020074D03*
X033382Y020074D03*
X033382Y019247D03*
X034382Y019247D03*
X034382Y020074D03*
X035382Y020074D03*
X035382Y019247D03*
X036382Y019247D03*
X036382Y020074D03*
X037382Y020074D03*
X037382Y019247D03*
X037382Y021247D03*
X037382Y022074D03*
X036382Y022074D03*
X036382Y021247D03*
X035382Y021247D03*
X035382Y022074D03*
X034382Y022074D03*
X034382Y021247D03*
X033382Y021247D03*
X033382Y022074D03*
X032382Y022074D03*
X032382Y021247D03*
X031382Y021247D03*
X031382Y022074D03*
X030382Y022074D03*
X030382Y021247D03*
X029382Y021247D03*
X029382Y022074D03*
X028382Y022074D03*
X028382Y021247D03*
X028382Y023247D03*
X028382Y024074D03*
X029382Y024074D03*
X029382Y023247D03*
X030382Y023247D03*
X030382Y024074D03*
X031382Y024074D03*
X031382Y023247D03*
X032382Y023247D03*
X032382Y024074D03*
X033382Y024074D03*
X033382Y023247D03*
X034382Y023247D03*
X034382Y024074D03*
X035382Y024074D03*
X035382Y023247D03*
X036382Y023247D03*
X036382Y024074D03*
X037382Y024074D03*
X037382Y023247D03*
X037382Y025247D03*
X037382Y026074D03*
X036382Y026074D03*
X036382Y025247D03*
X035382Y025247D03*
X035382Y026074D03*
X034382Y026074D03*
X034382Y025247D03*
X033382Y025247D03*
X033382Y026074D03*
X032382Y026074D03*
X032382Y025247D03*
X031382Y025247D03*
X031382Y026074D03*
X030382Y026074D03*
X030382Y025247D03*
X029382Y025247D03*
X029382Y026074D03*
X028382Y026074D03*
X028382Y025247D03*
X028382Y027247D03*
X028382Y028074D03*
X029382Y028074D03*
X029382Y027247D03*
X030382Y027247D03*
X030382Y028074D03*
X031382Y028074D03*
X031382Y027247D03*
X032382Y027247D03*
X032382Y028074D03*
X033382Y028074D03*
X033382Y027247D03*
X034382Y027247D03*
X034382Y028074D03*
X035382Y028074D03*
X035382Y027247D03*
X036382Y027247D03*
X036382Y028074D03*
X037382Y028074D03*
X037382Y027247D03*
X037382Y029247D03*
X037382Y030074D03*
X036382Y030074D03*
X036382Y029247D03*
X035382Y029247D03*
X035382Y030074D03*
X034382Y030074D03*
X034382Y029247D03*
X033382Y029247D03*
X033382Y030074D03*
X032382Y030074D03*
X032382Y029247D03*
X031382Y029247D03*
X031382Y030074D03*
X030382Y030074D03*
X030382Y029247D03*
X029382Y029247D03*
X029382Y030074D03*
X028382Y030074D03*
X028382Y029247D03*
X028382Y031247D03*
X028382Y032074D03*
X029382Y032074D03*
X029382Y031247D03*
X030382Y031247D03*
X030382Y032074D03*
X031382Y032074D03*
X031382Y031247D03*
X032382Y031247D03*
X032382Y032074D03*
X033382Y032074D03*
X033382Y031247D03*
X034382Y031247D03*
X034382Y032074D03*
X035382Y032074D03*
X035382Y031247D03*
X036382Y031247D03*
X036382Y032074D03*
X037382Y032074D03*
X037382Y031247D03*
X037382Y033247D03*
X037382Y034074D03*
X036382Y034074D03*
X036382Y033247D03*
X035382Y033247D03*
X035382Y034074D03*
X034382Y034074D03*
X034382Y033247D03*
X033382Y033247D03*
X033382Y034074D03*
X032382Y034074D03*
X032382Y033247D03*
X031382Y033247D03*
X031382Y034074D03*
X030382Y034074D03*
X030382Y033247D03*
X029382Y033247D03*
X029382Y034074D03*
X028382Y034074D03*
X028382Y033247D03*
X028382Y035247D03*
X028382Y036074D03*
X029382Y036074D03*
X029382Y035247D03*
X030382Y035247D03*
X030382Y036074D03*
X031382Y036074D03*
X031382Y035247D03*
X032382Y035247D03*
X032382Y036074D03*
X033382Y036074D03*
X033382Y035247D03*
X034382Y035247D03*
X034382Y036074D03*
X035382Y036074D03*
X035382Y035247D03*
X036382Y035247D03*
X036382Y036074D03*
X037382Y036074D03*
X037382Y035247D03*
X037382Y037247D03*
X037382Y038074D03*
X036382Y038074D03*
X036382Y037247D03*
X035382Y037247D03*
X035382Y038074D03*
X034382Y038074D03*
X034382Y037247D03*
X033382Y037247D03*
X033382Y038074D03*
X032382Y038074D03*
X032382Y037247D03*
X031382Y037247D03*
X031382Y038074D03*
X030382Y038074D03*
X030382Y037247D03*
X029382Y037247D03*
X029382Y038074D03*
X028382Y038074D03*
X028382Y037247D03*
D12*
X026649Y037636D02*
X026049Y037636D01*
X026049Y036636D02*
X026649Y036636D01*
X026649Y035636D02*
X026049Y035636D01*
X026049Y034636D02*
X026649Y034636D01*
X026649Y033636D02*
X026049Y033636D01*
X026049Y032636D02*
X026649Y032636D01*
X026649Y031636D02*
X026049Y031636D01*
X026049Y030636D02*
X026649Y030636D01*
X026649Y029636D02*
X026049Y029636D01*
X026049Y028636D02*
X026649Y028636D01*
X020600Y023451D02*
X020000Y023451D01*
X020000Y022451D02*
X020600Y022451D01*
X020600Y021451D02*
X020000Y021451D01*
X020000Y020451D02*
X020600Y020451D01*
X020600Y019451D02*
X020000Y019451D01*
X020000Y018451D02*
X020600Y018451D01*
X020600Y017451D02*
X020000Y017451D01*
X020000Y016451D02*
X020600Y016451D01*
X020600Y015451D02*
X020000Y015451D01*
X020000Y014451D02*
X020600Y014451D01*
X008100Y014451D02*
X007500Y014451D01*
X007500Y015451D02*
X008100Y015451D01*
X008100Y016451D02*
X007500Y016451D01*
X007500Y017451D02*
X008100Y017451D01*
X008100Y018451D02*
X007500Y018451D01*
X007500Y019451D02*
X008100Y019451D01*
X008100Y020451D02*
X007500Y020451D01*
X007500Y021451D02*
X008100Y021451D01*
X008100Y022451D02*
X007500Y022451D01*
X007500Y023451D02*
X008100Y023451D01*
X003600Y017951D02*
X003000Y017951D01*
X003000Y016951D02*
X003600Y016951D01*
X003600Y015951D02*
X003000Y015951D01*
X003870Y010935D02*
X004470Y010935D01*
X004470Y009935D02*
X003870Y009935D01*
X003870Y008935D02*
X004470Y008935D01*
X038582Y028660D02*
X039182Y028660D01*
X039182Y029660D02*
X038582Y029660D01*
X038582Y030660D02*
X039182Y030660D01*
X039182Y031660D02*
X038582Y031660D01*
X038582Y032660D02*
X039182Y032660D01*
X039182Y033660D02*
X038582Y033660D01*
X038582Y034660D02*
X039182Y034660D01*
X039182Y035660D02*
X038582Y035660D01*
X038582Y036660D02*
X039182Y036660D01*
X039182Y037660D02*
X038582Y037660D01*
D13*
X004300Y014451D03*
X004300Y013451D03*
X004300Y012451D03*
D14*
X006700Y014451D03*
X006900Y014451D03*
X006900Y015451D03*
X006700Y015451D03*
X006700Y016451D03*
X006900Y016451D03*
X006900Y017451D03*
X006700Y017451D03*
X006700Y018451D03*
X006900Y018451D03*
X006900Y019451D03*
X006700Y019451D03*
X006700Y020451D03*
X006900Y020451D03*
X006900Y021451D03*
X006700Y021451D03*
X006700Y022451D03*
X006900Y022451D03*
X006900Y023451D03*
X006700Y023451D03*
X021200Y023451D03*
X021400Y023451D03*
X021400Y022451D03*
X021200Y022451D03*
X021200Y021451D03*
X021400Y021451D03*
X021400Y020451D03*
X021200Y020451D03*
X021200Y019451D03*
X021400Y019451D03*
X021400Y018451D03*
X021200Y018451D03*
X021200Y017451D03*
X021400Y017451D03*
X021400Y016451D03*
X021200Y016451D03*
X021200Y015451D03*
X021400Y015451D03*
X021400Y014451D03*
X021200Y014451D03*
D15*
X005394Y008136D03*
X006300Y008451D03*
X005800Y009951D03*
X008300Y011451D03*
X009249Y012860D03*
X005300Y014951D03*
X009272Y005742D03*
X009292Y005041D03*
X011300Y002951D03*
X011800Y003451D03*
X013426Y002703D03*
X014300Y002951D03*
X015300Y003451D03*
X028371Y018719D03*
X029434Y018719D03*
X030379Y018679D03*
X031363Y018719D03*
X032426Y018679D03*
X033410Y018679D03*
X034355Y018640D03*
X035300Y018679D03*
X036402Y018719D03*
X037387Y018719D03*
X037387Y020648D03*
X036402Y020648D03*
X035379Y020687D03*
X034394Y020687D03*
X033410Y020648D03*
X032426Y020648D03*
X031363Y020726D03*
X030379Y020648D03*
X029394Y020648D03*
X028410Y020648D03*
X028410Y022656D03*
X029355Y022656D03*
X030379Y022695D03*
X031363Y022656D03*
X032426Y022695D03*
X033410Y022695D03*
X034355Y022695D03*
X035339Y022695D03*
X036363Y022656D03*
X037387Y022656D03*
X037426Y024703D03*
X036402Y024663D03*
X035379Y024703D03*
X034394Y024663D03*
X033410Y024703D03*
X032426Y024663D03*
X031402Y024703D03*
X030418Y024663D03*
X029394Y024663D03*
X028450Y024663D03*
X028410Y026632D03*
X029394Y026593D03*
X030379Y026632D03*
X031402Y026671D03*
X032505Y026632D03*
X033371Y026671D03*
X034394Y026671D03*
X035339Y026632D03*
X036402Y026711D03*
X037387Y026593D03*
X039276Y026829D03*
X037387Y028679D03*
X036363Y028719D03*
X035379Y028640D03*
X034394Y028679D03*
X033410Y028719D03*
X032465Y028679D03*
X031363Y028640D03*
X030379Y028640D03*
X029473Y028640D03*
X028371Y028640D03*
X028371Y030648D03*
X029473Y030648D03*
X030418Y030608D03*
X031402Y030648D03*
X032465Y030648D03*
X033371Y030608D03*
X034394Y030648D03*
X035379Y030648D03*
X036324Y030648D03*
X036363Y032656D03*
X036993Y032695D03*
X035379Y032616D03*
X034394Y032616D03*
X033410Y032695D03*
X032387Y032656D03*
X031363Y032616D03*
X030379Y032656D03*
X029394Y032616D03*
X028371Y032616D03*
X028371Y034703D03*
X029434Y034624D03*
X030418Y034663D03*
X031402Y034703D03*
X032387Y034703D03*
X033410Y034663D03*
X034394Y034624D03*
X035339Y034624D03*
X036363Y034703D03*
X037111Y034703D03*
X037387Y036711D03*
X036402Y036671D03*
X035379Y036632D03*
X034394Y036671D03*
X033371Y036593D03*
X032426Y036671D03*
X031402Y036711D03*
X030418Y036671D03*
X029394Y036632D03*
X028410Y036671D03*
X026796Y038758D03*
X025221Y038443D03*
X031954Y038719D03*
X036363Y038955D03*
X016200Y024451D03*
X015300Y024451D03*
D16*
X014001Y025136D03*
X012300Y025451D03*
X012083Y024518D03*
X011257Y024545D03*
X010721Y024411D03*
X010300Y023951D03*
X017300Y023951D03*
X009056Y012152D03*
X005300Y012451D03*
X008331Y007065D03*
X009300Y006451D03*
X013174Y009545D03*
X015300Y001951D03*
D17*
X037111Y030648D03*
M02*
